<?xml version="1.0" standalone="no"?>
<!DOCTYPE svg PUBLIC "-//W3C//DTD SVG 1.1//EN" "http://www.w3.org/Graphics/SVG/1.1/DTD/svg11.dtd" >
<svg xmlns="http://www.w3.org/2000/svg">
<metadata>
This is a custom SVG webfont generated by Font Squirrel.
</metadata>
<defs>
<font id="webfontxEDKdNPh" horiz-adv-x="1204" >
<font-face units-per-em="2048" ascent="1638" descent="-410" />
<missing-glyph horiz-adv-x="602" />
<glyph unicode=" "  horiz-adv-x="602" />
<glyph unicode="&#x09;" horiz-adv-x="602" />
<glyph unicode="&#xa0;" horiz-adv-x="602" />
<glyph unicode="!" horiz-adv-x="702" d="M309 485q-52 0 -78 93t-26 280q0 323 64.5 490.5t189.5 167.5q67 0 102 -56t35 -162q0 -113 -33.5 -266.5t-97.5 -329.5q-48 -131 -80 -174t-76 -43zM70 166q0 83 55.5 138.5t138.5 55.5q82 0 138.5 -56t56.5 -138t-56.5 -138.5t-138.5 -56.5t-138 56.5t-56 138.5z" />
<glyph unicode="&#x22;" horiz-adv-x="717" d="M553 846h-45l-84 463q-3 15 -3.5 22.5t-0.5 14.5q0 54 29.5 86t80.5 32t81 -31.5t30 -84.5q0 -16 -0.5 -24.5t-1.5 -15.5zM207 846h-43l-86 462q-3 16 -3.5 23.5t-0.5 14.5q0 54 29.5 86t80.5 32q52 0 82.5 -31.5t30.5 -84.5q0 -8 -1 -17t-3 -22z" />
<glyph unicode="#" horiz-adv-x="1575" d="M705 844l-84 -236h253l84 236h-253zM684 1466h248l-139 -393h241l140 393h247l-139 -393h270l-86 -229h-266l-82 -234h277l-84 -229h-275l-141 -393h-248l141 393h-241l-141 -393h-248l141 393h-276l86 229h272l82 234h-285l86 229h281z" />
<glyph unicode="$" d="M424 0q-191 30 -247 73t-56 156q0 132 20 182t68 50q52 0 82 -86q16 -45 28 -70q44 -83 98.5 -124.5t121.5 -41.5q71 0 126.5 51.5t55.5 114.5q0 101 -258 271l-57 38q-99 65 -144 134.5t-45 154.5q0 150 109 257t284 128l21 136q7 40 15 47t38 8h84q19 0 27 -7t8 -22 q0 -8 -2 -20l-23 -142q161 -21 218 -60t57 -122q0 -116 -18.5 -154.5t-65.5 -38.5q-43 0 -90 79q-3 5 -5 8q-53 91 -92 120t-94 29q-69 0 -115.5 -48.5t-46.5 -121.5q0 -87 200 -219l91 -62q114 -77 164.5 -150.5t50.5 -158.5q0 -162 -125.5 -276t-312.5 -117l-23 -156 q-6 -48 -17.5 -57.5t-43.5 -9.5h-61q-32 0 -42 7.5t-10 26.5q0 6 3 20.5t3 20.5z" />
<glyph unicode="%" horiz-adv-x="1692" d="M1300 582q-59 0 -100 -75t-41 -190q0 -102 31.5 -156.5t89.5 -54.5q56 0 92.5 72t36.5 187q0 103 -28.5 160t-80.5 57zM924 295q0 180 115.5 301t285.5 121q146 0 235 -91t89 -241q0 -175 -115.5 -294.5t-284.5 -119.5q-148 0 -236.5 88.5t-88.5 235.5zM1413 1239 q0 -15 -172.5 -218t-327.5 -409q-144 -192 -243.5 -340t-151.5 -250l-3 -6q-33 -65 -52 -65q-9 0 -28.5 8.5t-55.5 28.5q-40 22 -57 40t-17 38q0 19 24 45q5 6 7 8q130 140 369 461l90 120q224 299 298 406.5t107 173.5q4 7 9 18q28 54 48 54q36 0 96 -41t60 -72zM418 1188 q-59 0 -100.5 -74.5t-41.5 -189.5q0 -102 31.5 -156.5t89.5 -54.5q56 0 92.5 71.5t36.5 186.5q0 104 -28 160.5t-80 56.5zM41 901q0 180 115.5 301t285.5 121q145 0 234.5 -91.5t89.5 -240.5q0 -84 -30.5 -161t-88.5 -136q-55 -56 -127.5 -86t-152.5 -30q-148 0 -237 88 t-89 235z" />
<glyph unicode="&#x26;" horiz-adv-x="1925" d="M582 819q-59 -74 -87 -147.5t-28 -151.5q0 -157 99 -254.5t259 -97.5q141 0 235.5 75.5t94.5 182.5q0 68 -34 108.5t-89 40.5q-57 0 -106 -43t-49 -79q0 -6 -14 -14.5t-27 -8.5q-28 0 -47 25.5t-19 64.5q0 84 69 152t289 178l125 61q353 172 353 275q0 37 -21 57.5 t-59 20.5q-21 0 -54 -10.5t-45 -10.5q-20 0 -31.5 12.5t-11.5 36.5q0 70 78 126.5t183 56.5q107 0 170 -57.5t63 -155.5q0 -153 -120 -263.5t-412 -222.5q65 -40 96 -97.5t31 -137.5q0 -107 -54 -210t-153 -184q-116 -93 -268 -141.5t-330 -48.5q-268 0 -430 131.5 t-162 345.5q0 154 79 275.5t244 222.5q-34 40 -50.5 85t-16.5 97q0 166 141.5 284t347.5 118q125 0 207 -44t82 -108q0 -41 -24.5 -64.5t-67.5 -23.5q-22 0 -83.5 13.5t-98.5 13.5q-76 0 -128.5 -49.5t-52.5 -118.5q0 -47 16.5 -79.5t55.5 -64.5q18 -14 54 -31t36 -30 q0 -36 -47.5 -91t-89.5 -55q-17 0 -40 8t-58 27z" />
<glyph unicode="'" horiz-adv-x="371" d="M207 846h-43l-86 462q-3 16 -3.5 23.5t-0.5 14.5q0 53 31 85.5t81 32.5q51 0 81 -31.5t30 -84.5q0 -8 -1 -17t-3 -22z" />
<glyph unicode="(" horiz-adv-x="834" d="M610 -307q-76 0 -167.5 56.5t-180.5 160.5q-93 109 -142.5 253.5t-49.5 307.5q0 174 58 344t167 315q130 175 287 281.5t274 106.5q21 0 35 -11.5t14 -27.5q0 -10 -4.5 -19.5t-11.5 -15.5q-10 -9 -40 -29q-140 -93 -218 -213q-107 -162 -165 -389.5t-58 -484.5 q0 -129 23.5 -225.5t74.5 -178.5q32 -51 92.5 -105t60.5 -77q0 -22 -13.5 -35.5t-35.5 -13.5z" />
<glyph unicode=")" horiz-adv-x="834" d="M168 1516q77 0 169.5 -57.5t180.5 -160.5q93 -108 142 -252t49 -309q0 -174 -57.5 -343t-166.5 -314q-129 -174 -287 -280.5t-276 -106.5q-21 0 -35 11.5t-14 27.5q0 9 4.5 19t11.5 16q10 8 41 28q139 94 217 213q107 162 165.5 389.5t58.5 485.5q0 128 -24 225t-75 178 q-32 51 -92.5 105t-60.5 77q0 22 13.5 35t35.5 13z" />
<glyph unicode="*" horiz-adv-x="1024" d="M567 930q0 38 -9.5 61t-25.5 23q-20 0 -34.5 -25.5t-20.5 -73.5q0 -5 -1 -20q-2 -41 -9 -66q-12 -41 -45.5 -65.5t-77.5 -24.5q-56 0 -95.5 38.5t-39.5 92.5q0 56 35.5 90.5t103.5 45.5q53 8 84 27t31 42q0 13 -18.5 21t-49.5 8q-25 0 -66.5 -11.5t-58.5 -11.5 q-55 0 -95 37.5t-40 87.5q0 57 38.5 97t92.5 40q37 0 66 -17.5t51 -53.5l12 -21q53 -92 90 -92q13 0 20 6.5t7 18.5q0 41 -36 103t-36 95q0 58 37.5 97t91.5 39q56 0 93.5 -37.5t37.5 -91.5q0 -50 -58 -116.5t-58 -101.5q0 -12 6.5 -18t19.5 -6q19 0 39.5 11.5t42.5 35.5 q8 8 22 24q57 66 117 66q53 0 93.5 -38.5t40.5 -90.5q0 -54 -41.5 -93.5t-98.5 -39.5q-26 0 -82.5 28.5t-95.5 28.5q-17 0 -26 -6.5t-9 -19.5q0 -22 25.5 -44.5t71.5 -39.5q55 -20 82.5 -54t27.5 -81q0 -54 -39 -91.5t-94 -37.5q-53 0 -91 37t-38 89q0 17 5 50.5t5 48.5z " />
<glyph unicode="+" horiz-adv-x="1706" d="M735 1221h238v-494h479v-231h-479v-496h-238v496h-481v231h481v494z" />
<glyph unicode="," horiz-adv-x="602" d="M20 -383q0 17 41.5 67.5t63.5 82.5q37 53 58.5 100t21.5 74q0 15 -5 26t-14 15q-6 2 -17 7q-108 44 -108 148q0 97 56.5 159t142.5 62q77 0 122.5 -55.5t45.5 -148.5q0 -77 -36 -167.5t-107 -195.5q-97 -143 -136 -181t-73 -38q-22 0 -39 13.5t-17 31.5z" />
<glyph unicode="-" horiz-adv-x="797" d="M326 412q-52 0 -113 -5.5t-72 -5.5q-37 0 -53 15.5t-16 50.5q0 24 10 61t29 82q16 40 32 52t74 12q10 0 76 -1t123 -1q58 0 120 5t66 5q37 0 52.5 -14.5t15.5 -49.5q0 -32 -14.5 -81.5t-34.5 -85.5q-14 -26 -29 -34.5t-45 -8.5q-7 0 -29 1t-37 1q-1 0 -53 1t-102 1z" />
<glyph unicode="." horiz-adv-x="602" d="M55 166q0 83 56 138.5t139 55.5q82 0 138 -56t56 -138t-56.5 -138.5t-137.5 -56.5q-82 0 -138.5 56.5t-56.5 138.5z" />
<glyph unicode="/" horiz-adv-x="569" d="M381 1473q6 24 34 35.5t83 11.5q32 0 43.5 -6.5t11.5 -22.5q0 -6 -1.5 -15t-4.5 -21l-410 -1602q-6 -22 -34 -31.5t-83 -9.5q-35 0 -49 6t-14 20q0 4 1 9t1 6z" />
<glyph unicode="0" d="M659 1145q-110 0 -185 -189.5t-75 -482.5q0 -153 37 -234t107 -81q109 0 184.5 190.5t75.5 485.5q0 145 -38.5 228t-105.5 83zM39 551q0 128 31.5 244t93.5 217q91 146 226.5 228.5t287.5 82.5q223 0 355 -151t132 -404q0 -166 -55.5 -316.5t-163.5 -273.5 q-87 -99 -198 -153t-228 -54q-216 0 -348.5 159t-132.5 421z" />
<glyph unicode="1" d="M303 1110q0 33 35 60t117 55q118 39 231 61.5t186 22.5q52 0 78.5 -16t26.5 -46q0 -16 -11.5 -34t-34.5 -36q-6 -4 -18 -11q-42 -22 -55 -76q0 -1 -1 -5q-30 -143 -60 -350q-25 -169 -40.5 -313.5t-15.5 -185.5q0 -40 9 -53.5t48 -24.5q9 -3 24 -7q91 -26 91 -73 q0 -49 -78 -69.5t-278 -20.5q-222 0 -302.5 19t-80.5 67q0 24 20 41.5t68 34.5q13 4 35 9q62 16 80 71q6 19 17.5 85.5t35.5 229.5q25 173 40 297.5t15 154.5q0 28 -13.5 41.5t-46.5 18.5l-37 3q-85 6 -85 50z" />
<glyph unicode="2" d="M49 0q-67 0 -83.5 9.5t-16.5 37.5q0 32 49 72q7 5 10 8l217 186l12 10q480 409 480 638q0 75 -33 112t-100 37q-50 0 -101.5 -23t-115.5 -75q-15 -12 -39 -33q-76 -66 -119 -66q-34 0 -53 18t-19 50q0 39 37.5 88t106.5 100q102 77 206.5 115.5t210.5 38.5 q174 0 281.5 -95.5t107.5 -248.5q0 -121 -77.5 -230t-274.5 -253l-338 -250h308q75 0 112.5 9t67.5 32q29 21 69.5 73t69.5 52q24 0 39.5 -20t15.5 -52q0 -33 -30.5 -119t-79.5 -182q-34 -64 -60.5 -90.5t-56.5 -26.5q-25 0 -42 18t-32 60h-729z" />
<glyph unicode="3" d="M762 674q144 -40 213 -119.5t69 -204.5q0 -109 -52.5 -209.5t-147.5 -175.5q-107 -84 -240.5 -128t-281.5 -44q-173 0 -284.5 43t-111.5 107q0 34 28 60t64 26q23 0 123.5 -29t180.5 -29q155 0 257.5 88.5t102.5 221.5q0 106 -64 162.5t-186 56.5q-39 0 -85 -7.5 t-52 -7.5q-25 0 -37 19.5t-12 60.5q0 84 99 114l36 11q131 42 208 122t77 171q0 69 -43 109.5t-115 40.5q-73 0 -168.5 -44.5t-122.5 -44.5q-35 0 -55.5 17.5t-20.5 46.5q0 77 143.5 146t327.5 69q183 0 291.5 -84.5t108.5 -226.5q0 -108 -66.5 -198t-183.5 -140z" />
<glyph unicode="4" d="M264 326h357q30 0 42 11t17 44l65 462q2 7 2.5 12t0.5 13q0 13 -4 19t-13 6q-17 0 -105.5 -93.5t-248.5 -279.5l-96 -114q-23 -29 -32 -43.5t-9 -22.5q0 -6 7 -10t17 -4zM676 -266q-41 0 -57.5 13t-16.5 44q0 4 1 11l3 21l35 259h-610q-44 0 -57 8t-13 29q0 4 0.5 10.5 t1.5 13.5l10 66q11 77 126.5 226.5t492.5 553.5l38 41q273 293 412 293q46 0 64 -15t18 -53q0 -15 -1 -26.5t-3 -22.5l-129 -887h78q20 0 30.5 -10.5t10.5 -32.5v-12l-18 -128q-5 -32 -19 -43t-47 -11h-65l-31 -254q-7 -53 -27.5 -73.5t-64.5 -20.5h-162z" />
<glyph unicode="5" d="M397 825q-3 -7 -4.5 -14.5t-1.5 -15.5q0 -6 5.5 -9.5t27.5 -7.5l55 -12q307 -68 421 -159t114 -255q0 -103 -42 -197t-122 -171q-86 -83 -212.5 -131t-260.5 -48q-158 0 -257.5 38t-99.5 96q0 39 25.5 61.5t69.5 22.5q20 0 92 -16.5t125 -16.5q129 0 212 77t83 195 q0 90 -62 142t-225 92l-25 6q-180 44 -180 102q0 31 66.5 207t163.5 373q33 69 61.5 89t99.5 21l149 2q258 4 441 36q18 3 21 3q15 0 21.5 -7.5t6.5 -24.5q0 -76 -35.5 -153t-74.5 -95q-23 -11 -93.5 -17t-187.5 -8h-174q-77 0 -110 -28t-66 -111z" />
<glyph unicode="6" d="M760 463q0 102 -36 159.5t-99 57.5q-80 0 -132.5 -89.5t-52.5 -232.5q0 -96 39.5 -152t106.5 -56q79 0 126.5 84.5t47.5 228.5zM510 829q64 55 142 84t161 29q149 0 230 -97.5t81 -277.5q0 -261 -164.5 -429.5t-418.5 -168.5q-212 0 -337.5 125.5t-125.5 335.5 q0 195 82.5 385.5t245.5 370.5q106 117 209 192.5t149 75.5q44 0 96.5 -31.5t52.5 -48.5q0 -18 -66.5 -78t-113.5 -112q-78 -88 -133.5 -176t-89.5 -179z" />
<glyph unicode="7" d="M248 -23l540 895q28 44 42 73.5t14 41.5q0 23 -22 32t-81 9h-305q-66 0 -97 -11t-51 -39l-18 -27q-50 -74 -92 -74q-27 0 -43 17t-16 46q0 43 28 128.5t72 164.5q28 50 53.5 73t53.5 23q4 0 16 -5q71 -30 180 -30h549q93 0 116 -12.5t23 -46.5q0 -13 -21 -62t-83 -180 l-518 -1073q-6 -11 -16 -33q-72 -147 -123 -147q-25 0 -65 10.5t-81 28.5l-17 7q-85 36 -85 77q0 17 12 47t35 67z" />
<glyph unicode="8" d="M729 852q63 61 94 121.5t31 122.5q0 73 -42 117t-112 44q-72 0 -124 -49t-52 -116q0 -59 48 -115.5t157 -124.5zM473 662q-59 -80 -88 -151t-29 -138q0 -99 57.5 -162.5t147.5 -63.5q82 0 141.5 57t59.5 136t-63.5 151t-225.5 171zM385 737q-90 65 -132 134t-42 151 q0 171 145.5 282t372.5 111q193 0 306.5 -87t113.5 -234q0 -115 -75.5 -200t-221.5 -134q121 -75 177 -158.5t56 -185.5q0 -90 -43.5 -172.5t-123.5 -143.5q-83 -63 -187 -96t-219 -33q-200 0 -325.5 102t-125.5 261q0 126 85 232t239 171z" />
<glyph unicode="9" d="M436 821q0 -101 36 -158t99 -57q80 0 132.5 89t52.5 231q0 95 -39 149.5t-107 54.5q-80 0 -127 -82.5t-47 -226.5zM688 461q-86 -60 -161 -88.5t-146 -28.5q-146 0 -234 102.5t-88 274.5q0 135 53 256t150 207q76 68 176 103.5t217 35.5q217 0 340 -130t123 -359 q0 -190 -77.5 -365t-245.5 -365q-104 -115 -205.5 -190.5t-147.5 -75.5q-43 0 -96 32.5t-53 49.5t66.5 76.5t115.5 116.5q93 108 146 195t67 153z" />
<glyph unicode=":" horiz-adv-x="602" d="M119 866q0 84 56 140.5t138 56.5t138.5 -57t56.5 -140q0 -81 -56.5 -137.5t-138.5 -56.5t-138 56t-56 138zM23 166q0 83 56 139.5t138 56.5q81 0 137 -56.5t56 -139.5q0 -82 -56 -138.5t-137 -56.5q-82 0 -138 56.5t-56 138.5z" />
<glyph unicode=";" horiz-adv-x="602" d="M-8 -383q0 17 41 67.5t63 82.5q37 53 58.5 100t21.5 74q0 16 -4 26.5t-13 14.5l-17 7q-109 45 -109 148q0 96 57 158.5t143 62.5q76 0 121 -55t45 -149q0 -77 -35.5 -167.5t-107.5 -195.5l-4 -5q-144 -214 -203 -214q-22 0 -39.5 14t-17.5 31zM119 866q0 84 56 140.5 t138 56.5t138.5 -57t56.5 -140q0 -81 -56.5 -137.5t-138.5 -56.5t-138 56t-56 138z" />
<glyph unicode="&#x3c;" horiz-adv-x="1706" d="M1442 1214v-253l-854 -351l854 -348v-254l-1178 486v233z" />
<glyph unicode="=" horiz-adv-x="1706" d="M254 502h1198v-230h-1198v230zM254 950h1198v-231h-1198v231z" />
<glyph unicode="&#x3e;" horiz-adv-x="1706" d="M264 1214l1178 -487v-233l-1178 -486v254l854 348l-854 351v253z" />
<glyph unicode="?" horiz-adv-x="1081" d="M219 166q0 83 56 138.5t139 55.5q82 0 138 -56t56 -138t-56.5 -138.5t-137.5 -56.5q-82 0 -138.5 56.5t-56.5 138.5zM463 473q-52 0 -74 23t-22 75q0 151 177 375l44 55q51 67 75.5 129t24.5 123q0 55 -27 83t-81 28q-28 0 -54.5 -11.5t-48.5 -33.5q-29 -29 -48 -100 q-8 -29 -13 -43q-25 -76 -66.5 -110t-107.5 -34q-50 0 -79.5 33.5t-29.5 89.5q0 148 144.5 255.5t355.5 107.5q172 0 272.5 -84.5t100.5 -227.5q0 -71 -26.5 -134.5t-76.5 -113.5q-46 -45 -145.5 -119t-136.5 -116q-38 -42 -56 -139q-6 -32 -10 -47q-8 -31 -31.5 -47.5 t-60.5 -16.5z" />
<glyph unicode="@" horiz-adv-x="2019" d="M1171 313q-60 -95 -130 -143.5t-148 -48.5q-156 0 -241 90t-85 256q0 116 50.5 223.5t146.5 196.5q68 62 150 95.5t167 33.5q96 0 150 -44t67 -132l48 157h208l-174 -624q-8 -34 -11 -53t-3 -35q0 -45 19 -72t51 -27q30 0 84.5 27.5t101.5 69.5q97 87 148 211.5t51 273.5 q0 121 -34 219.5t-101 171.5q-99 109 -235.5 166t-299.5 57q-139 0 -265 -39.5t-233 -117.5q-166 -120 -255 -303t-89 -404q0 -336 205 -531.5t557 -195.5q163 0 315 49.5t316 157.5l41 -57q-151 -113 -321 -170.5t-351 -57.5q-432 0 -687 224.5t-255 601.5q0 202 87.5 381 t252.5 313q137 112 302.5 169.5t350.5 57.5q349 0 559.5 -189.5t210.5 -504.5q0 -164 -59 -302t-172 -239q-59 -52 -128 -80t-140 -28q-98 0 -156.5 52.5t-65.5 143.5zM1128 942q-60 0 -110 -44t-98 -140q-57 -112 -88 -218.5t-31 -187.5q0 -71 32.5 -113t86.5 -42 q59 0 115 60.5t108 180.5q42 99 67 198.5t25 166.5t-27.5 103t-79.5 36z" />
<glyph unicode="A" horiz-adv-x="1593" d="M946 233l-22 109q-11 50 -33.5 66t-99.5 16h-56h-180q-61 0 -85 -9.5t-44 -33.5q-24 -27 -45 -77t-21 -79q1 -30 40 -49q2 -1 3 -2q6 -3 17 -8q47 -21 47 -60q0 -57 -67.5 -86.5t-198.5 -29.5q-149 0 -204.5 21t-55.5 73q0 64 112 103l4 1q77 26 160 182l17 30 q169 309 300.5 573.5t155.5 331.5q18 45 33.5 102.5t17.5 64.5q8 21 32 33.5t56 12.5q93 0 132.5 -14.5t64.5 -51.5q35 -51 107 -396l63 -292q74 -328 103.5 -426.5t52.5 -120.5q6 -6 40.5 -18.5t55.5 -26.5q16 -10 24.5 -27.5t8.5 -40.5q0 -59 -81 -87.5t-247 -28.5 q-199 0 -263.5 21t-64.5 77q0 46 70 84l4 2l5 3q44 25 44 48q0 2 -1 5.5t-1 4.5zM584 608h245q14 1 19.5 6t5.5 17q0 4 -1 11l-3 21l-19 115q-16 115 -38 185.5t-39 70.5q-10 0 -24.5 -19t-29.5 -52l-135 -306q-4 -8 -6 -15t-2 -13q0 -8 8 -14.5t19 -6.5z" />
<glyph unicode="B" horiz-adv-x="1432" d="M969 791q181 -23 277.5 -119t96.5 -254q0 -203 -155 -316.5t-434 -113.5q-67 0 -172 4t-142 4q-43 0 -123.5 -2t-117.5 -2q-153 0 -205.5 20t-52.5 72q0 26 10 46t31 34q12 8 49 22.5t51 32.5q9 14 20 51t23 97q53 264 79.5 475t26.5 362q0 49 -7 63t-31 29l-14 9 q-60 36 -60 79q0 63 69.5 91t227.5 28q6 0 68 -1t118 -1q54 0 146 1t131 1q234 0 352.5 -85.5t118.5 -254.5q0 -140 -100 -238t-281 -134zM557 885l37 -3q72 -5 98 -5q155 0 234.5 58.5t79.5 172.5q0 101 -60 151t-182 50q-98 0 -127.5 -30.5t-46.5 -150.5zM528 661 l-39 -305q-3 -24 -4.5 -42.5t-1.5 -32.5q0 -59 38.5 -82t137.5 -23q159 0 241.5 69t82.5 201q0 120 -71.5 171t-243.5 51q-31 0 -66 -1.5t-74 -5.5z" />
<glyph unicode="C" horiz-adv-x="1442" d="M1157 104q-20 0 -63 -27.5t-68 -39.5q-78 -38 -163 -57t-173 -19q-292 0 -464.5 179t-172.5 483q0 192 66 356t194 291q122 119 280.5 183.5t328.5 64.5q152 0 282 -64q20 -10 25 -10q8 0 25 8t26 8q19 0 37 -14.5t39 -46.5q34 -54 52.5 -110t18.5 -101 q0 -60 -27.5 -91.5t-80.5 -31.5q-30 0 -57 14.5t-48 43.5l-20 27q-129 175 -274 175q-206 0 -334.5 -183.5t-128.5 -479.5q0 -217 96 -348.5t252 -131.5q70 0 142 31.5t149 95.5q25 21 63 64q59 67 98 67q33 0 52.5 -25t19.5 -67q0 -85 -48.5 -166.5t-96.5 -81.5q-4 0 -13 2 t-14 2z" />
<glyph unicode="D" horiz-adv-x="1583" d="M-59 80q0 29 15 55t40 41q14 9 50.5 23t43.5 32q10 24 22 81.5t25 144.5q51 333 70.5 503.5t19.5 266.5q0 50 -47 73q-18 9 -29 15q-17 10 -27.5 29.5t-10.5 41.5q0 68 84.5 92.5t394.5 24.5h213q198 0 324 -39.5t221 -128.5q83 -76 133.5 -213t50.5 -288 q0 -184 -66.5 -346t-193.5 -287q-107 -106 -254 -160.5t-324 -54.5q-88 0 -228 7t-192 7q-42 0 -99.5 -1t-72.5 -1q-92 0 -127.5 18.5t-35.5 63.5zM1137 842q0 229 -92 357t-257 128q-81 0 -117 -23.5t-57 -107.5q-29 -118 -55 -285.5t-49 -384.5q-9 -82 -13.5 -152.5 t-4.5 -101.5q0 -52 46 -78t138 -26q214 0 337.5 180.5t123.5 493.5z" />
<glyph unicode="E" horiz-adv-x="1356" d="M143 0q-112 0 -156 19t-44 65q0 24 9.5 44.5t27.5 35.5q14 12 56.5 28.5t55.5 34.5q12 15 26.5 79.5t37.5 211.5q39 247 62.5 441t23.5 262q0 31 -7 45t-34 30q-6 4 -20 12q-52 29 -52 81q0 54 46 79t144 25h723q54 0 110 14.5t60 14.5q28 0 47.5 -19.5t38.5 -66.5 q22 -52 35 -104.5t13 -88.5q0 -53 -22.5 -81.5t-63.5 -28.5q-29 0 -50 14.5t-51 60.5q-37 58 -72.5 76.5t-95.5 18.5h-217q-68 0 -100.5 -17.5t-50.5 -62.5q-22 -52 -39 -144t-17 -166q0 -25 10 -30.5t46 -5.5h127q67 0 91 15.5t46 59.5q9 19 21 61q28 95 87 95q38 0 53 -19 t15 -69q0 -127 -19 -251t-53 -220q-17 -46 -36 -63t-52 -17q-34 0 -50.5 17t-16.5 51q-2 108 -23.5 133.5t-77.5 25.5h-147q-24 0 -35 -7t-16 -23q-16 -50 -28.5 -155t-12.5 -212q0 -60 37 -82t147 -22h119q95 0 149 22t103 78q12 14 38 63.5t48 77.5q14 20 34.5 30.5 t40.5 10.5q33 0 50.5 -20.5t17.5 -59.5q0 -65 -27 -159.5t-73 -186.5q-19 -38 -41 -59t-43 -21q-1 0 -54.5 14.5t-115.5 14.5h-783z" />
<glyph unicode="F" horiz-adv-x="1298" d="M739 877h11q67 0 91 15.5t46 59.5q9 19 21 61q28 95 87 95q38 0 53 -19t15 -69q0 -127 -19 -251t-53 -220q-17 -46 -36 -63t-52 -17q-34 0 -50.5 17t-16.5 51q-2 108 -23.5 133.5t-77.5 25.5h-147q-24 0 -35 -7t-16 -23q-5 -13 -10 -54l-3 -18q-18 -144 -25 -215t-7 -107 q0 -23 10 -43t24 -26q9 -4 24 -10q83 -34 83 -89q0 -63 -73 -88.5t-265 -25.5q-210 0 -281 20.5t-71 73.5q0 25 9 44.5t28 35.5q14 12 56.5 28.5t55.5 34.5q12 15 26.5 79.5t37.5 211.5q39 247 62.5 441t23.5 262q0 31 -7 45t-34 30q-6 4 -20 12q-52 29 -52 81q0 54 46 79 t144 25h723q54 0 110 14.5t60 14.5q28 0 47.5 -19.5t38.5 -66.5q22 -52 35 -104.5t13 -88.5q0 -53 -22.5 -81.5t-63.5 -28.5q-29 0 -50 14.5t-51 60.5q-37 58 -72.5 76.5t-95.5 18.5h-217q-68 0 -100.5 -17.5t-50.5 -62.5q-22 -52 -39 -144t-17 -166q0 -25 10 -30.5t46 -5.5 h116z" />
<glyph unicode="G" horiz-adv-x="1630" d="M819 182q119 0 181.5 61t62.5 177q0 34 -10.5 53t-33.5 27q-15 5 -46 11q-88 19 -88 87q0 66 78.5 92.5t289.5 26.5q185 0 255.5 -25t70.5 -86q0 -36 -16.5 -56t-65.5 -38q-8 -3 -24 -8q-51 -16 -66 -70q-4 -15 -11 -46q-31 -140 -87 -206q-90 -104 -242 -162.5 t-336 -58.5q-307 0 -492.5 181t-185.5 481q0 192 66 356t194 291q122 119 280.5 183.5t328.5 64.5q152 0 282 -64q20 -10 25 -10q8 0 25 8t26 8q19 0 37 -14.5t39 -46.5q34 -54 52.5 -110t18.5 -101q0 -60 -27.5 -91.5t-80.5 -31.5q-30 0 -57 14.5t-48 43.5l-20 27 q-129 175 -274 175q-206 0 -334.5 -183.5t-128.5 -479.5q0 -222 98 -351t264 -129z" />
<glyph unicode="H" horiz-adv-x="1550" d="M-59 84q0 26 10 46t31 34q12 8 49 22.5t51 32.5q9 14 20 51t23 97q53 259 79.5 470.5t26.5 366.5q0 49 -7 63t-31 29l-14 9q-60 36 -60 79q0 64 72.5 92.5t236.5 28.5q213 0 274.5 -22.5t61.5 -83.5q0 -51 -63 -86t-70 -43q-15 -18 -36.5 -121.5t-21.5 -200.5 q0 -33 31 -45t146 -12h55q133 0 174 8t51 29q14 27 27.5 119.5t13.5 193.5q0 37 -33 55q-5 3 -7 4q-34 20 -46 37t-12 41q0 71 75.5 99t276.5 28q162 0 223.5 -23t61.5 -79t-68 -89t-76 -42q-14 -17 -26 -68.5t-31 -185.5q-50 -340 -70 -511t-20 -245q0 -27 6 -39t33 -26 q4 -3 12 -7q66 -33 66 -79q0 -67 -78 -95t-266 -28q-168 0 -234.5 21t-66.5 73q0 29 10 48t35 36q7 5 42 19t44 35q10 22 20.5 62.5t17.5 87.5q16 90 25.5 164t9.5 93q0 36 -32.5 47.5t-194.5 11.5h-41q-113 0 -149 -7.5t-43 -26.5q-19 -55 -34.5 -170t-15.5 -232 q0 -29 6 -40t27 -24q6 -4 17 -10q47 -26 47 -76q0 -61 -78.5 -85.5t-286.5 -24.5q-161 0 -218.5 21t-57.5 73z" />
<glyph unicode="I" horiz-adv-x="735" d="M465 1505q183 0 244 -22.5t61 -83.5q0 -22 -11.5 -41t-35.5 -37q-10 -8 -46 -24t-46 -37q-18 -41 -55 -281l-1 -6q-37 -253 -60 -456t-23 -267q0 -28 5.5 -39.5t28.5 -24.5q6 -4 18 -10q46 -26 46 -76q0 -61 -79.5 -85.5t-291.5 -24.5q-161 0 -219.5 21t-58.5 73 q0 26 10 46t31 34q12 8 49 22.5t51 32.5q9 14 20 51t23 97q53 264 79.5 475t26.5 362q0 49 -7 63t-31 29l-14 9q-60 36 -60 79q0 66 75 93.5t271 27.5z" />
<glyph unicode="J" horiz-adv-x="1208" d="M1235 1405q0 -51 -82 -97q-6 -3 -11 -6q-31 -17 -44 -38.5t-25 -98.5q-21 -148 -52 -397q-53 -441 -106 -543q-70 -136 -192 -200t-311 -64q-212 0 -333.5 83.5t-121.5 227.5q0 103 66.5 169.5t169.5 66.5q84 0 130 -41t46 -117q0 -27 -25 -75.5t-25 -71.5 q0 -29 28.5 -47.5t74.5 -18.5q60 0 103.5 32.5t68.5 96.5q8 24 17 74t18 121q40 318 54.5 477t14.5 262q0 51 -7 65t-31 29l-14 8q-62 35 -62 80q0 66 79 94.5t263 28.5q202 0 255.5 -21t53.5 -79z" />
<glyph unicode="K" horiz-adv-x="1432" d="M496 315q-1 -9 -2 -26q-2 -30 -2 -39q0 -28 5.5 -39.5t28.5 -24.5q6 -4 18 -10q46 -26 46 -76q0 -61 -79.5 -85.5t-291.5 -24.5q-161 0 -219.5 21t-58.5 73q0 26 10 46t31 34q12 8 49 22.5t51 32.5q9 14 20 51t23 97q53 264 79.5 475t26.5 362q0 49 -7 63t-31 29l-14 9 q-60 36 -60 79q0 64 72.5 92.5t240.5 28.5q214 0 276 -22.5t62 -83.5q0 -53 -85 -97l-8 -4q-32 -16 -45.5 -38.5t-25.5 -98.5l-33 -217v-6q-4 -31 -4 -43q0 -15 2 -21t7 -6q10 0 32.5 15.5t42.5 38.5l265 288q29 34 38 49t9 27q0 14 -38 48t-38 63q0 49 75 78.5t203 29.5 q157 0 225 -24t68 -78q0 -38 -22 -58.5t-97 -37.5q-59 -14 -112 -49t-142 -125l-229 -236q-18 -18 -25.5 -28t-7.5 -15q0 -7 16 -33q3 -5 5 -8l315 -485q41 -65 74 -101t61 -51q13 -7 37 -17q66 -29 66 -75q0 -49 -57.5 -71.5t-184.5 -22.5q-75 0 -117.5 4t-60.5 12 q-24 13 -52 46t-67 95l-272 439q-14 21 -25 32t-18 11q-11 0 -17 -16.5t-10 -60.5z" />
<glyph unicode="L" horiz-adv-x="1223" d="M143 0q-111 0 -156.5 20t-45.5 68q0 58 66 88.5t75 42.5q9 14 20 51t23 97q53 264 79.5 475t26.5 362q0 49 -7 63t-31 29l-14 9q-60 36 -60 79q0 64 72.5 92.5t240.5 28.5q214 0 276 -22.5t62 -83.5q0 -52 -63.5 -87t-69.5 -42q-8 -10 -14.5 -32.5t-16.5 -76.5 q-50 -297 -80 -540.5t-30 -321.5q0 -60 37 -82t147 -22h65q80 0 126 22.5t96 99.5q14 23 35 67q46 93 102 93q37 0 56.5 -20t19.5 -60q0 -62 -26 -155.5t-71 -190.5q-18 -39 -37.5 -59.5t-39.5 -20.5q-5 0 -23 6q-67 23 -135 23h-705z" />
<glyph unicode="M" horiz-adv-x="1835" d="M1333 1059l-448 -826q-54 -100 -81.5 -129.5t-55.5 -29.5q-60 0 -96 157q-4 20 -7 31l-196 852q-66 -359 -104 -592.5t-38 -271.5q0 -27 5 -41t16 -23q8 -6 27 -18q51 -30 51 -72q0 -56 -56.5 -80t-195.5 -24q-107 0 -162 22.5t-55 65.5q0 21 9.5 39.5t27.5 28.5 q10 6 28 15q70 35 94 105q12 32 32 126t60 317q46 250 60 348t14 147q0 39 -11 63.5t-33 36.5l-20 11q-55 29 -55 67q0 61 100.5 93t288.5 32q147 0 190 -185l5 -21l127 -552q9 -37 23 -64.5t22 -27.5t37 41.5t61 102.5l265 495q49 93 77.5 130t57.5 53q21 10 61.5 15 t104.5 5q141 0 207.5 -23.5t66.5 -72.5q0 -38 -48 -69q-5 -3 -7 -5q-2 -1 -7 -4q-44 -27 -65 -78q-13 -30 -23.5 -81t-25.5 -164q-23 -196 -35 -353.5t-12 -267.5q0 -104 5.5 -136t19.5 -47q8 -8 30 -22q55 -34 55 -78q0 -64 -76 -89t-300 -25q-152 0 -203 19t-51 69 q0 57 59 87.5t61 33.5q48 51 98 621z" />
<glyph unicode="N" horiz-adv-x="1554" d="M399 1004q-41 -291 -64.5 -494t-23.5 -260q0 -28 6 -39.5t29 -24.5q6 -4 17 -10q47 -26 47 -76q0 -55 -64.5 -81.5t-195.5 -26.5q-120 0 -170 21t-50 71q0 27 10 46.5t29 33.5q13 9 51 23t52 33q8 12 17.5 45.5t23.5 101.5q54 271 81 480.5t27 356.5q0 49 -7.5 63 t-30.5 29l-15 9q-59 36 -59 79q0 61 64.5 90t199.5 29h14q87 0 123 -16t65 -57q1 -2 193 -306l397 -616q41 268 64.5 469.5t23.5 265.5q0 29 -6 41t-28 25q-6 4 -18 10q-46 27 -46 76q0 55 64.5 81.5t195.5 26.5q120 0 169.5 -21t49.5 -71q0 -36 -18 -59t-64 -41 q-66 -27 -86 -117q-2 -10 -4 -17q-30 -136 -64.5 -365.5t-88.5 -655.5q-15 -107 -46.5 -143t-101.5 -36q-57 0 -103 34t-104 125l-195 310z" />
<glyph unicode="O" horiz-adv-x="1636" d="M768 158q181 0 297.5 190t116.5 494q0 228 -84 353.5t-236 125.5q-185 0 -296 -191.5t-111 -515.5q0 -218 82 -337t231 -119zM725 -37q-308 0 -490 187t-182 503q0 198 77 367t224 293q119 100 263.5 151.5t308.5 51.5q301 0 479 -182.5t178 -489.5q0 -140 -39 -268 t-117 -244q-112 -171 -300.5 -270t-401.5 -99z" />
<glyph unicode="P" horiz-adv-x="1331" d="M590 1128l-37 -274q40 -3 73 -4.5t60 -1.5q150 0 230.5 64.5t80.5 183.5q0 109 -58 161t-179 52q-96 0 -125.5 -31.5t-44.5 -149.5zM1354 1120q0 -224 -164.5 -349.5t-460.5 -125.5q-27 0 -72 2t-63 2q-33 0 -48 -11t-24 -44q-17 -67 -27 -159t-10 -185q0 -29 9.5 -42 t48.5 -28q42 -16 53.5 -32t11.5 -48q0 -61 -80 -85.5t-303 -24.5q-169 0 -226.5 20.5t-57.5 73.5q0 26 10 46t31 34q12 8 49 22.5t51 32.5q9 14 20 51t23 97q53 264 79.5 475t26.5 362q0 49 -7 63t-31 29l-14 9q-60 36 -60 79q0 65 69 92t242 27h31q108 -2 205 -2 q48 0 118.5 1t94.5 1q243 0 359 -93t116 -290z" />
<glyph unicode="Q" horiz-adv-x="1636" d="M811 -31q186 -59 310 -90t175 -31q63 0 128.5 42t82.5 42q27 0 43.5 -19t16.5 -50q0 -27 -13 -60.5t-38 -70.5q-54 -81 -134.5 -117.5t-203.5 -36.5q-196 0 -531 173q-1 1 -2 1l-72 39q-179 96 -249 96q-48 0 -118.5 -33.5t-94.5 -33.5q-34 0 -53 20t-19 56q0 69 76 114 t198 45h21v17q-141 85 -213 228t-72 337q0 141 39.5 271t118.5 245q118 172 306.5 267.5t412.5 95.5q301 0 479 -182.5t178 -489.5q0 -189 -70 -356t-200 -291q-103 -100 -228.5 -157t-273.5 -71zM768 147q181 0 297.5 192t116.5 499q0 231 -83.5 357t-236.5 126 q-185 0 -296 -192.5t-111 -520.5q0 -220 81.5 -340.5t231.5 -120.5z" />
<glyph unicode="R" horiz-adv-x="1470" d="M528 657q-22 -127 -33.5 -220.5t-11.5 -147.5q0 -37 6 -58t19 -32q9 -8 29 -19q53 -29 53 -80q0 -61 -79.5 -85.5t-291.5 -24.5q-161 0 -219.5 21t-58.5 73q0 26 10 46t31 34q12 8 49 22.5t51 32.5q9 14 20 51t23 97q53 264 79.5 475t26.5 362q0 49 -7 63t-31 29l-14 9 q-60 36 -60 79q0 63 69.5 91t227.5 28q6 0 68 -1t118 -1q53 0 145.5 1t131.5 1q239 0 355 -87t116 -267q0 -151 -90 -259t-246 -142v-17q72 -27 118 -83.5t66 -141.5q12 -52 27 -136q32 -173 100 -173q10 0 25.5 2t21.5 2q26 0 37.5 -12t11.5 -39q0 -66 -78.5 -113 t-195.5 -47q-64 0 -116.5 16.5t-86.5 46.5q-60 53 -97 253l-11 59q-34 176 -83.5 238.5t-144.5 62.5q-21 0 -40.5 -2t-39.5 -7zM559 877q30 -4 57 -5.5t52 -1.5q158 0 235.5 58.5t77.5 177.5q0 95 -58 153t-153 58q-59 0 -99 -6t-50 -17q-7 -6 -13 -36t-12 -84z" />
<glyph unicode="S" horiz-adv-x="1280" d="M559 164q107 0 167 51t60 141q0 111 -207 230l-14 8l-20 11q-163 91 -244 161q-65 55 -98 131.5t-33 169.5q0 197 145 324t371 127q84 0 167.5 -22.5t84.5 -22.5q5 0 36.5 13t59.5 13q63 0 113.5 -99.5t50.5 -230.5q0 -57 -23.5 -84.5t-72.5 -27.5q-37 0 -63 18t-68 88 q-55 91 -113.5 132.5t-128.5 41.5q-91 0 -147 -53.5t-56 -140.5q0 -136 238 -256l41 -21q129 -67 179.5 -100.5t76.5 -65.5q49 -61 72.5 -125.5t23.5 -138.5q0 -207 -169 -341t-437 -134q-131 0 -244 35.5t-190 99.5q-40 34 -62 106t-22 171q0 75 31 118.5t83 43.5 q58 0 102 -101l25 -55q60 -119 124.5 -167t160.5 -48z" />
<glyph unicode="T" horiz-adv-x="1384" d="M1194 1493q65 0 141 19q22 6 27 6q38 0 61 -68t23 -182q0 -155 -22.5 -204.5t-80.5 -49.5q-61 0 -93 105q-9 29 -15 46q-28 80 -65.5 105.5t-116.5 25.5q-68 0 -91 -26t-34 -111l-62 -422q-23 -166 -37 -303.5t-14 -183.5q0 -28 8 -41.5t41 -30.5l19 -8q45 -19 45 -70 q0 -63 -69.5 -86.5t-311.5 -23.5q-168 0 -225.5 20.5t-57.5 73.5q0 32 15.5 54.5t48.5 39.5q8 4 23 9q52 17 65 49q15 35 42 171.5t56 329.5q25 171 41 317.5t16 180.5t-21.5 48.5t-72.5 14.5q-61 0 -103.5 -22.5t-84.5 -79.5q-19 -25 -49 -74q-65 -108 -127 -108 q-37 0 -53.5 18.5t-16.5 59.5q0 45 14.5 104t48.5 152q36 94 62.5 132t56.5 38q4 0 19 -5q70 -20 149 -20h801z" />
<glyph unicode="U" horiz-adv-x="1565" d="M500 599q-10 -61 -14.5 -105.5t-4.5 -77.5q0 -129 76 -196.5t219 -67.5q104 0 178.5 36.5t124.5 112.5q25 39 45.5 121t40.5 231l54 377q6 43 9 88.5t3 91.5q0 37 -10.5 56.5t-46.5 42.5q-31 20 -42.5 36.5t-11.5 38.5q0 60 61 87.5t193 27.5q149 0 200.5 -20.5 t51.5 -73.5q0 -58 -85 -102l-10 -5q-60 -31 -94 -247l-3 -20l-64 -421q-31 -205 -63.5 -299.5t-85.5 -156.5q-81 -95 -217 -144t-318 -49q-272 0 -408.5 105.5t-136.5 316.5q0 77 22 241l3 19l49 346q8 57 12 107t4 90q0 51 -9 71.5t-35 40.5l-15 9q-59 35 -59 77 q0 63 72 91t237 28q209 0 272.5 -21t63.5 -77q0 -59 -86 -103l-7 -4q-38 -19 -58.5 -70.5t-47.5 -230.5z" />
<glyph unicode="V" horiz-adv-x="1493" d="M268 1149q-17 66 -31 92.5t-34 38.5q-14 8 -46 19q-79 28 -79 81q0 65 89.5 94t291.5 29q158 0 217 -22t59 -76q0 -30 -13.5 -49t-47.5 -35q-4 -2 -10 -4q-46 -19 -46 -64q0 -30 29 -152.5t78 -297.5l17 -62q51 -182 67 -182q5 0 12.5 9.5t18.5 27.5l305 539 q25 44 38 75.5t13 46.5q0 31 -46 53q-12 6 -17 9q-30 15 -41 30.5t-11 39.5q0 59 68 86.5t217 27.5q122 0 177.5 -23.5t55.5 -74.5q0 -53 -124 -102q-21 -8 -53 -49t-66 -103l-248 -444l-241 -445q-121 -226 -128 -236q-23 -35 -43 -48t-49 -13q-32 0 -49.5 13.5t-36.5 60.5 q-16 45 -64 216t-100 380z" />
<glyph unicode="W" horiz-adv-x="2124" d="M1049 743l-340 -653q-41 -79 -65.5 -101t-57.5 -22q-29 0 -45.5 16.5t-36.5 79.5q-90 275 -237 886q-31 133 -48 200q-15 64 -29 91.5t-34 39.5q-14 8 -43 19q-76 29 -76 83q0 64 85 92.5t277 28.5q153 0 210 -22t57 -76q0 -31 -14 -50.5t-46 -33.5q-4 -2 -11 -5 q-40 -16 -40 -63q0 -30 20 -123.5t64 -265.5q42 -166 65 -234.5t35 -68.5q14 0 75.5 106t176.5 326q-23 130 -40.5 189t-39.5 86q-10 13 -56 44.5t-46 67.5q0 62 89 92.5t267 30.5q129 0 184.5 -23t55.5 -75q0 -31 -13.5 -50.5t-45.5 -33.5q-3 -1 -10 -4q-42 -17 -42 -64 q0 -24 7 -63t20 -88l131 -502q5 -21 9.5 -30t11.5 -9q10 0 45.5 58.5t142.5 254.5q119 220 153.5 292t34.5 91q0 30 -42 52q-13 6 -19 10q-27 15 -38 31t-11 39q0 59 65 86.5t207 27.5q113 0 169 -23.5t56 -70.5q0 -31 -20.5 -53.5t-65.5 -38.5q-2 -1 -5 -2q-40 -13 -66 -41 q-36 -40 -253 -458l-38 -73l-340 -653q-42 -82 -65 -102.5t-56 -20.5q-34 0 -53.5 24.5t-46.5 123.5z" />
<glyph unicode="X" horiz-adv-x="1421" d="M1118 354q28 -56 52 -88.5t49 -48.5q14 -9 43 -21q75 -32 75 -81q0 -64 -88.5 -93.5t-281.5 -29.5q-150 0 -208.5 22t-58.5 76q0 16 8 31.5t22 26.5q7 5 22 14q45 29 45 53q0 10 -5.5 25t-17.5 36l-153 302l-211 -279l-2 -2q-46 -62 -46 -78q0 -15 39 -47.5t39 -65.5 q0 -59 -66.5 -85.5t-215.5 -26.5q-122 0 -178 23.5t-56 74.5t117 101l27 12q50 22 90.5 55.5t93.5 99.5l289 369l-211 412q-28 56 -52 88.5t-49 48.5q-14 9 -43 21q-75 32 -75 81q0 64 88 93.5t280 29.5q150 0 209.5 -22t59.5 -76q0 -16 -8 -31.5t-22 -26.5l-24 -16 q-43 -25 -43 -49q0 -12 5.5 -28.5t15.5 -34.5l121 -232l168 211q24 31 35.5 50.5t11.5 29.5q0 16 -40 47t-40 64q0 59 68 86.5t216 27.5q122 0 178 -23.5t56 -74.5t-116 -100l-30 -13q-47 -21 -86 -53t-96 -104l-241 -306z" />
<glyph unicode="Y" horiz-adv-x="1341" d="M485 686l-219 455q-25 51 -50.5 86t-49.5 51q-14 9 -45 22q-74 31 -74 80q0 64 88.5 93.5t282.5 29.5q154 0 212 -22t58 -76q0 -16 -8 -32t-20 -25q-10 -7 -26 -17q-42 -25 -42 -49q0 -10 4 -22.5t18 -40.5l160 -338l211 309q20 29 31.5 52.5t11.5 33.5q0 18 -38 49.5 t-38 63.5q0 59 67.5 86.5t215.5 27.5q122 0 177.5 -23.5t55.5 -74.5t-116 -101l-27 -12q-55 -25 -101 -64t-83 -93l-315 -448l-16 -172q-22 -239 -22 -265q0 -29 8.5 -43t39.5 -29q6 -3 19 -9q42 -18 42 -69q0 -63 -66.5 -86.5t-302.5 -23.5q-160 0 -216 20t-56 72 q0 69 80 102q20 8 29 13q51 25 99 349z" />
<glyph unicode="Z" horiz-adv-x="1298" d="M82 0q-73 0 -108 20.5t-35 63.5q0 24 11 52t32 52l788 992q19 23 27 38.5t8 26.5q0 18 -25.5 28.5t-68.5 10.5h-187q-90 0 -132.5 -18t-86.5 -82q-14 -21 -36 -58q-61 -102 -117 -102q-34 0 -47 17t-13 61q0 54 25.5 139.5t68.5 173.5q30 57 54.5 77.5t58.5 20.5 q3 0 13 -2q89 -20 200 -20h659q78 0 112 -19t34 -61q0 -21 -12 -48.5t-33 -53.5l-750 -949q-30 -37 -45.5 -64.5t-15.5 -43.5q0 -17 33 -26t98 -9h158q111 0 156.5 22.5t90.5 90.5q14 21 37 59q55 94 105 94q33 0 49 -16.5t16 -50.5q0 -50 -18 -125t-49 -154 q-41 -98 -67 -129t-60 -31q-1 0 -10 3q-74 20 -199 20h-719z" />
<glyph unicode="[" horiz-adv-x="834" d="M252 1350q10 80 48 111.5t124 31.5h367q81 0 102.5 -10t21.5 -37q0 -72 -27.5 -100.5t-107.5 -28.5h-102q-56 0 -73.5 -17.5t-24.5 -72.5l-166 -1219q-1 -8 -2.5 -23.5t-1.5 -21.5q0 -36 16.5 -49.5t65.5 -13.5h98q63 0 82.5 -12t19.5 -42q0 -74 -26 -100.5t-123 -26.5 h-328q-88 0 -125 24.5t-37 82.5q0 13 2 36.5t6 55.5z" />
<glyph unicode="\" horiz-adv-x="569" d="M90 1464q-1 5 -1.5 9t-0.5 12q0 19 12 27t41 8q70 0 91 -11.5t26 -42.5l236 -1598q1 -4 1.5 -8t0.5 -12q0 -20 -12 -28t-42 -8q-66 0 -87.5 11.5t-26.5 42.5z" />
<glyph unicode="]" horiz-adv-x="834" d="M563 -135q-11 -81 -49.5 -113.5t-122.5 -32.5h-366q-83 0 -104 11.5t-21 42.5q0 69 28.5 97t106.5 28h102q57 0 74.5 17.5t24.5 70.5l165 1218q1 7 2 20q3 22 3 27q0 36 -16.5 49t-65.5 13h-101q-58 0 -79 12.5t-21 42.5q0 71 23.5 98t125.5 27h328q93 0 127.5 -25.5 t34.5 -91.5q0 -6 -2 -29l-6 -53z" />
<glyph unicode="^" horiz-adv-x="2048" d="M893 1462h260l479 -565h-121l-489 348l-490 -348h-120z" />
<glyph unicode="_" horiz-adv-x="1024" d="M0 -244h1024v-239h-1024v239z" />
<glyph unicode="`" horiz-adv-x="1024" d="M336 1298q-42 12 -56 25t-14 39q0 65 22.5 115.5t51.5 50.5q10 0 24.5 -4t43.5 -15l325 -137q68 -29 84.5 -45t16.5 -41q0 -48 -19 -76t-53 -28q-10 0 -28 3t-40 9z" />
<glyph unicode="a" horiz-adv-x="1223" d="M1114 981q0 -30 -20 -155q-15 -91 -23 -148q-19 -136 -32 -248t-13 -133q0 -32 10.5 -43.5t38.5 -11.5q5 0 14.5 1t14.5 1q23 0 34 -9.5t11 -29.5q0 -34 -23 -66.5t-69 -62.5q-74 -48 -136 -73.5t-108 -25.5q-32 0 -49 12t-33 48q-14 31 -19.5 70.5t-13.5 39.5 q-9 0 -47 -27q-29 -21 -49 -34q-101 -64 -168 -89.5t-127 -25.5q-134 0 -214.5 98t-80.5 263q0 112 33 222.5t96 209.5q93 147 215 228t248 81q68 0 154 -33.5t104 -33.5q20 0 83 33.5t104 33.5q29 0 47 -25t18 -67zM774 739q0 75 -29 117.5t-79 42.5q-44 0 -85 -25.5 t-81 -78.5q-64 -84 -106 -207.5t-42 -227.5q0 -74 29 -116.5t80 -42.5q42 0 83.5 26.5t82.5 79.5q64 86 105.5 207.5t41.5 224.5z" />
<glyph unicode="b" horiz-adv-x="1214" d="M780 664q0 81 -30.5 127.5t-83.5 46.5q-45 0 -87 -29t-79 -84q-53 -78 -86 -191t-33 -217q0 -82 30.5 -128t84.5 -46q43 0 85 29.5t81 85.5q52 79 85 190.5t33 215.5zM496 1354l-54 -380q-1 -5 -1.5 -11t-0.5 -17q0 -15 4 -23.5t11 -9.5q4 0 40 27.5t70 48.5 q84 51 137.5 68.5t108.5 17.5q143 0 227 -97t84 -263q0 -122 -39 -247t-112 -237q-85 -129 -209 -195.5t-281 -66.5q-198 0 -302.5 82.5t-104.5 237.5q0 22 3 54t9 73l31 207q25 178 40 320t15 198q0 62 -10.5 81.5t-46.5 32.5q-5 2 -12 4q-74 25 -74 64q0 25 20 49.5 t55 42.5q94 48 193 76.5t162 28.5q20 0 34.5 -18t14.5 -44q0 -12 -3 -38t-9 -66z" />
<glyph unicode="c" horiz-adv-x="1063" d="M14 383q0 135 52 262t147 223q95 97 222 151t257 54q141 0 227.5 -70t86.5 -184q0 -86 -46 -137t-122 -51q-71 0 -106.5 34t-35.5 103q0 12 3 36.5t3 37.5q0 30 -19 49.5t-48 19.5q-104 0 -178 -135.5t-74 -339.5q0 -135 47.5 -199.5t147.5 -64.5q39 0 75.5 12.5 t87.5 44.5q28 18 70 51t57 33q26 0 51 -25.5t25 -54.5q0 -25 -16.5 -50.5t-48.5 -49.5q-105 -80 -218 -121t-231 -41q-194 0 -305 109.5t-111 302.5z" />
<glyph unicode="d" horiz-adv-x="1237" d="M1085 678q-21 -150 -34 -253.5t-13 -127.5q0 -32 10.5 -43.5t38.5 -11.5q6 0 15 1t14 1q23 0 34 -9.5t11 -29.5q0 -34 -23 -66.5t-69 -62.5q-74 -48 -136 -73.5t-108 -25.5q-32 0 -48.5 12t-33.5 48q-14 32 -19.5 71t-12.5 39q-9 0 -47 -27l-50 -34q-101 -64 -168 -89.5 t-127 -25.5q-134 0 -214 98t-80 263q0 110 33.5 221t97.5 213q90 143 213.5 226t244.5 83q56 0 121.5 -24.5t75.5 -24.5q17 0 28 52t11 132q0 50 -57 66q-4 1 -7 2t-10 3q-86 24 -86 67q0 34 29.5 58t97.5 46q96 31 182.5 49.5t124.5 18.5q31 0 49.5 -22t18.5 -58 q0 -22 -5.5 -67t-15.5 -109zM788 739q0 75 -29.5 117.5t-80.5 42.5q-43 0 -83 -25.5t-81 -78.5q-64 -86 -105.5 -209t-41.5 -228q0 -73 29.5 -115t80.5 -42q42 0 82.5 26t81.5 80q64 83 105.5 205t41.5 227z" />
<glyph unicode="e" horiz-adv-x="1104" d="M385 389q8 -111 55 -164t138 -53q39 0 75.5 12.5t87.5 44.5q28 18 70 51t57 33q26 0 51 -25.5t25 -54.5q0 -25 -16.5 -50.5t-48.5 -49.5q-105 -80 -218 -121t-231 -41q-193 0 -304.5 109t-111.5 297q0 147 60 283.5t168 234.5q90 82 215.5 130t251.5 48 q150 0 235.5 -69.5t85.5 -190.5q0 -180 -173.5 -302t-442.5 -122h-29zM616 911q-38 0 -71.5 -21.5t-67.5 -68.5q-36 -51 -61 -124t-25 -122q0 -13 16.5 -21.5t41.5 -8.5q94 0 172.5 82.5t78.5 185.5q0 49 -21 73.5t-63 24.5z" />
<glyph unicode="f" horiz-adv-x="711" d="M176 834h-143q-18 0 -26.5 8.5t-8.5 25.5v13l10 67q4 25 13.5 34t29.5 9h139q6 40 10.5 147.5t28.5 161.5q45 101 143.5 159.5t223.5 58.5q149 0 241.5 -56t92.5 -143q0 -61 -32.5 -95t-90.5 -34q-42 0 -73.5 17.5t-55.5 54.5q-10 15 -25 45q-35 69 -73 69 q-43 0 -62.5 -23.5t-19.5 -74.5q0 -31 9 -102t9 -111q0 -19 -1.5 -37t-4.5 -37h170q18 0 27.5 -9t9.5 -28v-10l-10 -67q-4 -25 -13.5 -34t-29.5 -9h-156l-100 -824q-1 -2 -1 -6q-10 -75 -10 -131q0 -21 5.5 -59.5t5.5 -55.5q0 -82 -94 -127t-267 -45q-55 0 -84 19t-29 55 q0 40 43.5 70t47.5 35q11 18 27.5 111t35.5 247z" />
<glyph unicode="g" d="M252 -60q-6 -19 -8 -30t-2 -21q0 -76 71 -118.5t199 -42.5q119 0 191.5 38.5t72.5 98.5q0 34 -22 50.5t-66 16.5q-23 0 -110.5 -10t-151.5 -10q-38 0 -79.5 7t-94.5 21zM410 631q0 -97 37.5 -146t111.5 -49q91 0 156 90.5t65 221.5q0 89 -39 139.5t-108 50.5 q-94 0 -158.5 -87.5t-64.5 -219.5zM129 -10q-49 26 -73.5 67t-24.5 97q0 74 46 128.5t146 98.5q-60 45 -93.5 117.5t-33.5 160.5q0 185 144 299.5t381 114.5q52 0 113.5 -6t131.5 -18q41 21 79.5 53t76.5 76q38 -31 58 -59.5t20 -53.5q0 -28 -22 -59t-66 -64 q39 -50 58.5 -103.5t19.5 -113.5q0 -191 -146 -307.5t-389 -116.5q-58 0 -112.5 8.5t-110.5 26.5q-18 -24 -26.5 -44t-8.5 -36q0 -41 33 -62.5t98 -21.5q62 0 190.5 10.5t194.5 10.5q116 0 178 -57.5t62 -164.5q0 -173 -172.5 -282t-452.5 -109q-189 0 -298.5 63.5 t-109.5 172.5q0 43 28.5 88.5t80.5 85.5z" />
<glyph unicode="h" horiz-adv-x="1241" d="M514 1243l-43 -278q-1 -5 -1.5 -9.5t-0.5 -13.5t3 -12.5t9 -3.5q3 0 10.5 3.5t16.5 8.5l74 41q80 44 143 63t125 19q126 0 188 -72t62 -219q0 -109 -29 -268t-29 -205q0 -32 11 -43.5t39 -11.5q5 0 15 1t15 1q23 0 33 -9.5t10 -29.5q0 -36 -24 -70t-72 -65 q-69 -46 -146.5 -72.5t-140.5 -26.5q-66 0 -90 19.5t-24 72.5q0 33 28 180q4 21 6 33q34 175 47 266.5t13 141.5q0 69 -22 100t-70 31q-112 0 -170.5 -117t-83.5 -401q-3 -28 -6 -76q-8 -130 -33 -160q-24 -27 -107 -54t-155 -27q-45 0 -63.5 16.5t-18.5 54.5q0 43 28.5 190 t42.5 232q39 233 61.5 413t22.5 253q0 64 -11 84.5t-48 31.5q-2 1 -5 2q-83 27 -83 66q0 27 20 50.5t58 41.5q97 48 199 76.5t165 28.5q25 0 42.5 -23t17.5 -57q0 -30 -22 -157q-5 -26 -7 -40z" />
<glyph unicode="i" horiz-adv-x="612" d="M565 1366q0 -74 -68 -127t-165 -53q-84 0 -132 38t-48 103q0 82 68.5 135.5t174.5 53.5q77 0 123.5 -41.5t46.5 -108.5zM41 63q0 31 32 195l25 131q20 109 30.5 193t10.5 127q0 51 -11.5 71t-51.5 31q-3 1 -7 2q-83 25 -83 68q0 31 35 59.5t108 56.5q92 36 177.5 56 t139.5 20q30 0 49 -21t19 -55q0 -19 -18.5 -127t-30.5 -192q-22 -149 -34.5 -251.5t-12.5 -129.5q0 -33 10.5 -43t40.5 -10q4 0 13.5 1t13.5 1q36 0 53.5 -13t17.5 -38q0 -32 -25.5 -63.5t-74.5 -61.5q-75 -45 -162.5 -72t-157.5 -27q-55 0 -80.5 22.5t-25.5 69.5z" />
<glyph unicode="j" horiz-adv-x="602" d="M-80 -246q46 0 70.5 36t46.5 165q44 259 71 474.5t27 281.5q0 50 -11.5 69.5t-50.5 30.5q-2 1 -6 2q-83 25 -83 68q0 31 34.5 59.5t108.5 56.5q91 36 178 56t148 20q29 0 48 -21t19 -55q0 -28 -16 -114t-23 -130q-32 -215 -65 -478.5t-41 -313.5q-29 -190 -123 -286.5 t-250 -96.5q-106 0 -169.5 34.5t-63.5 90.5q0 29 16.5 46.5t44.5 17.5q14 0 43.5 -6.5t46.5 -6.5zM565 1366q0 -74 -68 -127t-165 -53q-84 0 -132 38t-48 103q0 82 68.5 135.5t174.5 53.5q77 0 123.5 -41.5t46.5 -108.5z" />
<glyph unicode="k" horiz-adv-x="1139" d="M443 541q145 25 226 81.5t81 133.5q0 34 -23 56t-59 22q-86 0 -152 -84t-73 -209zM471 965q-1 -6 -1.5 -11.5t-0.5 -13.5t2.5 -12t7.5 -4q2 0 31 21l53 38q61 41 128 62.5t132 21.5q116 0 181 -59t65 -164q0 -108 -73.5 -193.5t-217.5 -144.5q70 -176 102.5 -226.5 t71.5 -66.5q12 -5 37 -8q60 -9 60 -55q0 -56 -94 -116.5t-191 -60.5q-48 0 -81 23t-65 82q-32 61 -72 174t-77 113q-12 0 -25.5 -16.5t-17.5 -37.5q-3 -16 -10.5 -96t-26.5 -131q-8 -21 -26 -35t-68 -33q-46 -17 -95.5 -26.5t-84.5 -9.5q-45 0 -63.5 16.5t-18.5 54.5 q0 44 33 218q25 126 38 204q39 233 61.5 413t22.5 253q0 64 -11 84.5t-48 31.5q-2 1 -5 2q-83 27 -83 66q0 27 20 50.5t58 41.5q97 48 199 76.5t165 28.5q25 0 42.5 -23t17.5 -57q0 -30 -22 -157q-5 -26 -7 -40z" />
<glyph unicode="l" horiz-adv-x="621" d="M463 678q-20 -137 -32.5 -247.5t-12.5 -135.5q0 -31 10 -41t39 -10q4 0 13 1t14 1q33 0 50 -13t17 -38q0 -32 -25 -65t-73 -62q-70 -44 -158.5 -70.5t-163.5 -26.5q-51 0 -74.5 22t-23.5 70q0 31 26 170t42 234q38 244 58.5 419t20.5 255q0 63 -10.5 83t-47.5 31 q-5 2 -12 4q-77 24 -77 64q0 27 20 51t58 41q98 47 205 76t174 29q31 0 49 -22t18 -58q0 -18 -11 -95q-7 -50 -11 -81z" />
<glyph unicode="m" horiz-adv-x="1802" d="M428 1016l8 -49q7 -33 11.5 -47.5t9.5 -14.5q2 0 30.5 23t59.5 43q74 48 139.5 71t128.5 23q67 0 114 -26t81 -81q7 -11 17 -30q14 -27 22 -27q4 0 47 31l48 34q71 49 140 74t131 25q121 0 180.5 -73t59.5 -220q0 -111 -26.5 -272t-26.5 -207q0 -29 10 -40t37 -11 q3 0 12 1t14 1q22 0 31.5 -9.5t9.5 -29.5q0 -34 -22.5 -67.5t-67.5 -65.5q-66 -48 -141.5 -75.5t-136.5 -27.5q-69 0 -97 21t-28 71q0 34 21 139l16 79q26 146 40.5 254t14.5 155q0 64 -22 95.5t-66 31.5q-92 0 -141 -114t-70 -381q-2 -25 -5 -69q-11 -160 -34 -190 q-25 -31 -103 -56t-161 -25q-42 0 -62 17.5t-20 55.5q0 21 19 126l18 100q35 208 46 288t11 121q0 63 -23 95t-67 32q-92 0 -141 -114t-70 -381q-2 -25 -5 -69q-11 -160 -34 -190q-25 -32 -104 -56.5t-166 -24.5q-40 0 -58 15.5t-18 49.5q0 38 32 204q18 89 27 142 q24 128 36.5 221.5t12.5 137.5q0 56 -62 63h-3l-12 3q-80 21 -80 58q0 21 15 40t46 38q21 13 51 26.5t82 33.5q67 24 120.5 38.5t74.5 14.5q17 0 30.5 -13.5t18.5 -35.5z" />
<glyph unicode="n" horiz-adv-x="1251" d="M436 967q7 -36 12.5 -50t12.5 -14q6 0 46.5 30t78.5 50q74 39 143 58.5t131 19.5q127 0 188.5 -72t61.5 -219q0 -109 -28.5 -268t-28.5 -205q0 -32 10.5 -43.5t38.5 -11.5q5 0 15 1t16 1q22 0 32.5 -9.5t10.5 -29.5q0 -36 -25 -69.5t-74 -65.5q-70 -46 -146 -72.5 t-138 -26.5q-67 0 -91 19.5t-24 72.5q0 33 28 180q4 21 7 34q33 174 46 265.5t13 141.5q0 68 -22.5 99.5t-71.5 31.5q-109 0 -166.5 -115t-83.5 -397q-2 -21 -5 -59q-11 -150 -38 -183q-25 -28 -105.5 -54.5t-156.5 -26.5q-46 0 -65 15t-19 50q0 38 32 204q18 89 27 142 q24 128 36.5 221.5t12.5 137.5q0 56 -62 63h-3l-12 3q-80 21 -80 58q0 21 15 40t46 38q21 13 51 26.5t82 33.5q63 22 116.5 35.5t78.5 13.5q18 0 31.5 -12.5t17.5 -32.5z" />
<glyph unicode="o" horiz-adv-x="1180" d="M608 909q-92 0 -161.5 -137t-69.5 -334q0 -143 38 -223t105 -80q95 0 162.5 142t67.5 356q0 128 -38.5 202t-103.5 74zM12 430q0 125 46 233.5t139 204.5q94 98 214 151.5t244 53.5q209 0 334 -123t125 -329q0 -121 -46 -236.5t-132 -208.5q-90 -99 -208 -152t-251 -53 q-204 0 -334.5 129.5t-130.5 329.5z" />
<glyph unicode="p" horiz-adv-x="1247" d="M821 662q0 81 -30.5 127.5t-83.5 46.5q-45 0 -87 -29t-79 -84q-53 -78 -86 -191t-33 -217q0 -82 30.5 -128t84.5 -46q43 0 85 29.5t80 85.5q53 79 86 190.5t33 215.5zM133 589q7 49 10.5 91.5t3.5 69.5q0 55 -59 66q-4 1 -6 1q-1 0 -3 1q-89 16 -89 56q0 22 15.5 42 t45.5 36q22 13 55.5 26.5t98.5 35.5q83 27 129 39t65 12q18 0 31.5 -15t18.5 -39l10 -51q1 -6 3 -17q9 -50 19 -50q9 0 48.5 34t74.5 56q78 49 139.5 70.5t122.5 21.5q139 0 220 -101.5t81 -277.5q0 -125 -31.5 -237t-93.5 -209q-84 -134 -194 -208.5t-221 -74.5 q-93 0 -203 61q-27 15 -33 15q-8 0 -12.5 -8t-7.5 -28l-15 -96q-3 -18 -4.5 -36.5t-1.5 -36.5q0 -17 8.5 -33.5t20.5 -21.5q2 -1 9 -4q91 -37 91 -82q0 -49 -72.5 -71.5t-230.5 -22.5q-164 0 -224.5 21t-60.5 73q0 46 65 79q27 14 38 23q31 26 61 231l2 17z" />
<glyph unicode="q" horiz-adv-x="1214" d="M788 739q0 75 -29.5 117.5t-80.5 42.5q-43 0 -83 -25.5t-81 -78.5q-64 -84 -105.5 -207.5t-41.5 -227.5q0 -74 29 -116.5t79 -42.5q42 0 83.5 26.5t82.5 79.5q65 86 106 207.5t41 224.5zM987 -29q-6 -44 -8 -69t-2 -43q0 -30 8 -46t29 -28q7 -4 19 -10q63 -32 63 -78 q0 -51 -60.5 -72.5t-210.5 -21.5q-172 0 -244.5 22t-72.5 72q0 47 77 78q34 13 48 22q31 22 48 147l3 25l25 183q-106 -88 -205.5 -134.5t-184.5 -46.5q-134 0 -214 98t-80 263q0 112 33 222.5t96 209.5q92 147 214 228t248 81q68 0 154 -33.5t104 -33.5q21 0 85 33.5 t104 33.5q29 0 46 -24.5t17 -67.5q0 -16 -3 -44.5t-13 -94.5z" />
<glyph unicode="r" horiz-adv-x="963" d="M356 1063q27 0 44.5 -23.5t35.5 -87.5q8 -26 14 -57t9 -31t30 33t54 61q38 42 89 63t113 21q90 0 139.5 -50.5t49.5 -143.5q0 -91 -41.5 -143t-114.5 -52q-35 0 -58 9t-38 28q-11 14 -25 44q-27 57 -63 57q-67 0 -102 -105.5t-70 -470.5q-1 -6 -2 -16q-14 -153 -49 -174 q-39 -22 -103 -38t-123 -16q-46 0 -65 15t-19 53q0 37 44 254l8 39q24 119 37.5 221t13.5 156q0 52 -11.5 72t-46.5 34q-9 4 -27 10q-59 20 -59 56q0 29 28 55t89 53q71 32 135.5 53t83.5 21z" />
<glyph unicode="s" horiz-adv-x="934" d="M383 135q57 0 89 27.5t32 77.5q0 55 -121 136q-29 20 -45 32q-152 104 -201 176.5t-49 167.5q0 142 110 231.5t289 89.5q67 0 134.5 -14.5t134.5 -42.5q47 -21 61 -44t14 -77q0 -78 -23.5 -120t-68.5 -42q-47 0 -82 64q-11 21 -18 33q-24 39 -56 59t-69 20 q-45 0 -72.5 -24.5t-27.5 -65.5q0 -66 122 -143q22 -13 33 -21q149 -94 196.5 -166.5t47.5 -177.5q0 -154 -119 -247t-319 -93q-160 0 -277.5 59.5t-117.5 131.5q0 89 34 147t84 58q43 0 75 -68q15 -32 26 -50q31 -53 80.5 -83.5t103.5 -30.5z" />
<glyph unicode="t" horiz-adv-x="766" d="M174 889h-131q-18 0 -24.5 4.5t-6.5 15.5v13l6 36q12 69 174 96l7 1l8 36q25 109 37 138q7 18 25 31t59 24q24 7 69.5 13t89.5 6q33 0 46.5 -11t13.5 -37q0 -10 -0.5 -15t-1.5 -11l-23 -187h228q21 0 26.5 -4t5.5 -16v-12l-10 -83q-3 -20 -13 -29t-30 -9h-199 q-17 0 -24 -6.5t-10 -36.5l-72 -496q-2 -12 -3 -25t-1 -32q0 -50 28 -76.5t82 -26.5q39 0 94 19.5t72 19.5q22 0 35.5 -15.5t13.5 -39.5q0 -25 -17 -48t-52 -44q-76 -47 -182.5 -78t-194.5 -31q-110 0 -167.5 55.5t-57.5 161.5q0 41 18 164v2z" />
<glyph unicode="u" horiz-adv-x="1251" d="M733 156q-89 -85 -200.5 -133t-217.5 -48q-119 0 -183 71.5t-64 205.5q0 97 32.5 268.5t32.5 239.5q0 25 -8 35.5t-37 21.5l-15 6q-55 20 -55 60q0 30 27 53.5t90 48.5q111 44 175 63t98 19q47 0 69.5 -25.5t22.5 -80.5q0 -76 -45 -282.5t-45 -326.5q0 -70 21 -101.5 t69 -31.5q109 0 166 112.5t90 418.5q3 28 7 79q9 119 34 148t105 55.5t157 26.5q45 0 64.5 -15.5t19.5 -50.5q0 -21 -19.5 -138.5t-31.5 -203.5q-18 -123 -28.5 -224t-10.5 -130q0 -32 10.5 -43.5t38.5 -11.5q5 0 15 1t16 1q22 0 32.5 -9.5t10.5 -29.5q0 -35 -22.5 -67 t-68.5 -62q-76 -50 -138 -75.5t-107 -25.5q-47 0 -69 34t-38 147z" />
<glyph unicode="v" horiz-adv-x="1161" d="M453 535q-10 -61 -15.5 -108t-5.5 -77q0 -69 31 -106t88 -37q120 0 212.5 129t92.5 313q0 106 -32.5 212.5t-32.5 113.5q0 40 35 62t102 22q84 0 117.5 -50t33.5 -182q0 -384 -187 -619t-486 -235q-153 0 -236.5 79t-83.5 222q0 71 26.5 214.5t26.5 213.5 q0 57 -10.5 76.5t-50.5 32.5q-3 1 -7 2q-83 25 -83 68q0 27 29.5 54.5t82.5 49.5q93 39 184 62.5t134 23.5q52 0 76 -24.5t24 -79.5q0 -19 -3.5 -51.5t-10.5 -75.5z" />
<glyph unicode="w" horiz-adv-x="1731" d="M444 534q-9 -55 -13.5 -102.5t-4.5 -81.5q0 -66 30 -104.5t81 -38.5q92 0 150 133.5t81 398.5q2 25 5 71q10 140 34 169q24 28 102 54t152 26q47 0 64.5 -14t17.5 -50q0 -25 -9 -82t-34 -192q-35 -181 -46.5 -259.5t-11.5 -123.5q0 -67 22 -98t69 -31q111 0 200.5 129.5 t89.5 310.5q0 104 -32.5 211t-32.5 115q0 40 35.5 62t101.5 22q83 0 115 -49t32 -185q0 -154 -26 -276t-80 -223q-86 -160 -232 -256.5t-300 -96.5q-95 0 -161.5 41.5t-97.5 120.5q-88 -81 -177.5 -121.5t-180.5 -40.5q-137 0 -217 81t-80 220q0 71 25.5 214t25.5 214 q0 58 -10.5 77.5t-48.5 31.5q-4 1 -12 4q-76 24 -76 62q0 29 28 56.5t82 51.5q91 39 179 62.5t129 23.5q52 0 75 -24t23 -78q0 -21 -3.5 -54t-10.5 -75z" />
<glyph unicode="x" horiz-adv-x="1085" d="M725 391q27 -62 46.5 -84t43.5 -22q18 0 55.5 19.5t59.5 19.5q27 0 41 -13.5t14 -40.5q0 -37 -35 -83.5t-112 -110.5q-64 -54 -111.5 -79.5t-83.5 -25.5q-47 0 -85 41.5t-85 147.5l-70 155l-94 -137q-82 -121 -127 -164t-84 -43q-47 0 -98 81t-51 159q0 35 17 51.5 t52 16.5q14 0 44 -18.5t47 -18.5q27 0 67 33t86 96l68 90l-70 180q-24 64 -45 92.5t-45 28.5q-13 0 -47.5 -9.5t-54.5 -9.5q-24 0 -39 14.5t-15 37.5q0 27 21.5 57t68.5 70q78 65 147 103t107 38q29 0 54.5 -21t42.5 -57l98 -217l127 168q64 83 91.5 105t53.5 22 q45 0 98.5 -81.5t53.5 -162.5q0 -34 -12 -55t-31 -21q-30 0 -73 22.5t-54 22.5q-16 0 -32 -12t-46 -49l-100 -123z" />
<glyph unicode="y" horiz-adv-x="1161" d="M705 154q68 132 100.5 245.5t32.5 221.5q0 90 -53.5 200t-53.5 137q0 46 40.5 75.5t102.5 29.5q81 0 123.5 -76.5t42.5 -222.5q0 -163 -51 -344t-143 -344q-136 -239 -313 -369.5t-365 -130.5q-141 0 -222 65.5t-81 178.5q0 75 43.5 125.5t105.5 50.5t99 -38.5t37 -102.5 q0 -14 -3.5 -39.5t-3.5 -38.5q0 -18 18 -30.5t44 -12.5q87 0 156 73t69 168q0 70 -48.5 230.5t-129.5 347.5q-61 142 -95.5 182.5t-78.5 40.5q-6 0 -19 -2t-22 -2q-27 0 -43.5 12.5t-16.5 32.5q0 37 31 78.5t88 81.5q54 39 115 61.5t108 22.5q86 0 182 -225.5t204 -681.5z " />
<glyph unicode="z" horiz-adv-x="938" d="M590 242q52 0 76.5 12.5t52.5 46.5q7 9 20 24q47 60 76 60q23 0 37 -16.5t14 -42.5q0 -39 -15.5 -102t-43.5 -130q-26 -63 -50.5 -91t-54.5 -28q-9 0 -42 12.5t-70 12.5h-508q-54 0 -81.5 20.5t-27.5 61.5q0 22 10.5 44t34.5 52l469 571l3 4q20 26 20 29q0 7 -9 13t-22 6 h-172q-60 0 -86.5 -8.5t-40.5 -28.5q-8 -12 -20 -35q-28 -51 -58 -51q-25 0 -41 27.5t-16 74.5q0 115 40.5 199t88.5 84q2 0 13 -4q46 -19 87 -19h449q86 0 115.5 -19t29.5 -67q0 -21 -14.5 -48.5t-48.5 -67.5l-453 -547l-2 -3q-20 -26 -20 -30q0 -7 9.5 -11.5t25.5 -4.5 h225z" />
<glyph unicode="{" horiz-adv-x="1024" d="M852 1516v-66q-111 -3 -152 -54t-41 -208v-131q0 -227 -50.5 -308.5t-184.5 -113.5q134 -33 184.5 -113.5t50.5 -306.5v-131q0 -158 41 -209.5t152 -55.5v-63h-12q-229 0 -314.5 74t-85.5 272v187q0 168 -54.5 230t-207.5 77v80q153 14 207.5 76.5t54.5 230.5v186 q0 199 85.5 273t314.5 74h12z" />
<glyph unicode="|" horiz-adv-x="1024" d="M393 1565h240v-2048h-240v2048z" />
<glyph unicode="}" horiz-adv-x="1024" d="M172 1516h12q229 0 314.5 -74t85.5 -273v-186q0 -168 54.5 -230.5t207.5 -76.5v-80q-153 -15 -207.5 -77t-54.5 -230v-187q0 -198 -85.5 -272t-314.5 -74h-12v63q111 4 152 55.5t41 209.5v131q0 226 50.5 306.5t184.5 113.5q-134 34 -184.5 115t-50.5 307v131 q0 157 -41 208t-152 54v66z" />
<glyph unicode="~" horiz-adv-x="1706" d="M1530 819v-254q-101 -69 -194 -103t-183 -34q-45 0 -89 7.5t-83 21.5q-13 4 -38 13q-255 89 -382 89q-84 0 -175.5 -37.5t-207.5 -120.5v254q112 73 207.5 108.5t179.5 35.5q63 0 126.5 -12t169.5 -46q16 -5 51 -17q159 -56 247 -56q84 0 173.5 36t197.5 115z" />
<glyph unicode="&#xa0;" />
<glyph unicode="&#xa1;" horiz-adv-x="702" d="M381 1001q52 0 78 -92.5t26 -279.5q0 -323 -64.5 -490.5t-189.5 -167.5q-66 0 -100.5 55.5t-34.5 161.5q0 116 33.5 270t95.5 326q48 132 80 174.5t76 42.5zM621 1321q0 -83 -56 -139t-139 -56q-82 0 -138.5 56.5t-56.5 138.5q0 81 57 138t138 57q82 0 138.5 -56.5 t56.5 -138.5z" />
<glyph unicode="&#xa2;" d="M551 -61q-30 0 -40.5 8.5t-10.5 32.5q0 8 0.5 13.5t1.5 11.5l14 95q-186 25 -287.5 141t-101.5 302q0 237 145.5 411t393.5 230l16 112q5 31 19.5 44.5t43.5 13.5h62q29 0 38 -7.5t9 -27.5q0 -6 -0.5 -10t-1.5 -9l-16 -112q139 -8 224 -82t85 -184q0 -82 -49 -137.5 t-121 -55.5q-68 0 -102.5 35t-34.5 104v37q0 76 -21 99.5t-72 23.5q-104 0 -180 -129.5t-76 -314.5q0 -144 55 -216.5t163 -72.5q37 0 74.5 14t94.5 51l4 3q86 57 121 57t52.5 -15t17.5 -45q0 -63 -115 -145.5t-272 -114.5l-14 -104q-5 -33 -20 -45t-52 -12h-47z" />
<glyph unicode="&#xa3;" d="M272 168q-25 32 -53.5 46.5t-62.5 14.5q-35 0 -57.5 -20t-22.5 -51q0 -28 19 -44t52 -16q32 0 62.5 17t62.5 53zM381 350q12 40 17 69t5 50q0 25 -5 52t-15 59h-225q-32 0 -38.5 4t-6.5 18q0 8 0.5 13t1.5 10l12 80q4 24 12.5 31t40.5 7h164q-12 62 -18.5 111t-6.5 86 q0 172 122.5 276.5t324.5 104.5q150 0 243 -80.5t93 -206.5q0 -42 -22.5 -69t-55.5 -27q-25 0 -42 17t-36 69q-26 66 -60.5 94.5t-88.5 28.5q-68 0 -107 -53.5t-39 -147.5q0 -34 22 -184q2 -12 3 -19h209q21 0 30 -7t9 -25q0 -2 -1 -7.5t-1 -9.5l-9 -70q-3 -25 -14.5 -34.5 t-38.5 -9.5l-180 -1q1 -9 1.5 -20.5t0.5 -32.5q0 -80 -24 -145.5t-72 -118.5q55 -28 110.5 -41.5t112.5 -13.5q74 0 133 25.5t102 76.5l22 28q33 46 58 46t37.5 -15t12.5 -44q0 -43 -24.5 -95t-68.5 -100q-73 -80 -166.5 -119t-216.5 -39q-90 0 -164.5 24.5t-136.5 74.5 q-64 -44 -126.5 -66t-120.5 -22q-103 0 -157 48.5t-54 139.5q0 100 71 160.5t189 60.5q43 0 87.5 -10t94.5 -31z" />
<glyph unicode="&#xa4;" horiz-adv-x="1241" d="M623 1145q-107 0 -184 -77t-77 -183q0 -108 76 -183t185 -75q107 0 182.5 75t75.5 183q0 107 -76 183.5t-182 76.5zM178 1444l203 -201q54 37 113.5 55.5t126.5 18.5q69 0 130 -18.5t113 -55.5l201 201l119 -117l-201 -205q35 -53 52.5 -112t17.5 -125t-17.5 -125.5 t-52.5 -112.5l201 -203l-119 -118l-201 202q-52 -37 -111.5 -55t-129.5 -18t-128.5 17.5t-113.5 55.5l-203 -202l-117 118l201 203q-36 54 -54 113t-18 125q0 67 18.5 126.5t53.5 110.5l-201 205z" />
<glyph unicode="&#xa5;" d="M735 481q-12 -125 -17 -183t-5 -81q0 -25 6 -36t35 -25q5 -3 12 -6q43 -18 43 -60q0 -56 -53 -77t-283 -21q-139 0 -184 17.5t-45 62.5q0 57 68 86l26 12q40 20 72 217l16 94h-295q-45 0 -67.5 16t-22.5 48t23 48.5t67 16.5h307l-65 131h-205q-45 0 -67.5 16t-22.5 48 t22.5 48.5t67.5 16.5h143l-59 121q-21 44 -44.5 75t-45.5 46q-12 8 -38 19q-63 26 -63 69q0 56 78.5 81.5t253.5 25.5q132 0 183 -19t51 -65q0 -33 -42 -62.5t-42 -46.5q0 -15 16 -50q1 -3 2 -5l139 -293l185 268q16 23 26.5 45.5t10.5 30.5q0 14 -34 42t-34 56q0 51 60 75 t188 24q107 0 155 -20.5t48 -65.5q0 -44 -98 -86l-30 -13q-44 -19 -84 -53t-73 -82l-82 -117h145q44 0 66 -16t22 -49q0 -32 -21.5 -48t-66.5 -16h-235l-92 -131h284q45 0 67.5 -16.5t22.5 -48.5t-22 -48t-68 -16h-305z" />
<glyph unicode="&#xa6;" horiz-adv-x="1024" d="M393 408h240v-758h-240v758zM393 1432h240v-758h-240v758z" />
<glyph unicode="&#xa7;" horiz-adv-x="1110" d="M252 608q0 -41 21.5 -80t58.5 -65q83 -58 151.5 -87.5t118.5 -29.5q81 0 138 58.5t57 140.5q0 45 -25.5 88t-69.5 72q-79 51 -146 78.5t-112 27.5q-78 0 -135 -61t-57 -142zM313 909q-59 49 -86.5 103.5t-27.5 122.5q0 169 134 276t349 107q155 0 250.5 -61t95.5 -157 q0 -62 -35.5 -101.5t-91.5 -39.5q-72 0 -108 113q-7 22 -11 33q-10 29 -53.5 50t-99.5 21q-92 0 -146.5 -42t-54.5 -111q0 -58 40 -100t197 -119l42 -20q161 -75 229 -144q40 -42 60 -95.5t20 -119.5q0 -124 -67 -215.5t-201 -151.5q70 -50 103.5 -114.5t33.5 -149.5 q0 -179 -139.5 -299.5t-352.5 -120.5q-166 0 -266 64t-100 169q0 64 37.5 103t99.5 39q70 0 97 -95q4 -16 7 -26q17 -52 59.5 -77t112.5 -25q92 0 153.5 52.5t61.5 129.5q0 64 -47.5 112t-208.5 125q-17 9 -51 24q-149 69 -213 126q-44 40 -67 97.5t-23 129.5 q0 127 67.5 224t200.5 163z" />
<glyph unicode="&#xa8;" horiz-adv-x="1024" d="M768 1212q-48 0 -79.5 34.5t-31.5 86.5q0 65 45 112.5t107 47.5q52 0 82.5 -33t30.5 -90q0 -71 -42.5 -114.5t-111.5 -43.5zM344 1212q-51 0 -83 34t-32 87q0 66 44 114t106 48q51 0 83 -34t32 -89q0 -69 -43 -114.5t-107 -45.5z" />
<glyph unicode="&#xa9;" horiz-adv-x="1683" d="M1128 1104h50v-330h-52q-29 130 -98 201.5t-164 71.5q-112 0 -167.5 -91t-55.5 -272q0 -182 61 -278.5t177 -96.5q76 0 143.5 44.5t124.5 131.5l51 -32q-64 -108 -152 -162.5t-198 -54.5q-192 0 -318.5 122t-126.5 306q0 194 122.5 319t312.5 125q82 0 157.5 -33 t79.5 -33q22 0 33.5 13.5t19.5 48.5zM844 1311q-126 0 -242.5 -49t-204.5 -138q-89 -91 -136.5 -206t-47.5 -240q0 -130 47 -244t137 -203q93 -91 205.5 -137.5t239.5 -46.5t240.5 47.5t201.5 136.5q89 91 137.5 207.5t48.5 239.5q0 126 -48.5 244.5t-135.5 203.5 q-89 88 -205 136.5t-237 48.5zM844 1423q144 0 280.5 -56.5t241.5 -160.5q104 -104 161.5 -242.5t57.5 -285.5q0 -146 -56.5 -281.5t-162.5 -242.5q-105 -106 -240 -161.5t-284 -55.5t-283 55.5t-242 161.5q-106 104 -162.5 239t-56.5 285q0 149 55.5 283t161.5 241 q105 106 242.5 163.5t286.5 57.5z" />
<glyph unicode="&#xaa;" horiz-adv-x="918" d="M836 1448q0 -24 -20 -134l-13 -77q-14 -96 -23.5 -175t-9.5 -91q0 -22 8 -30.5t29 -8.5h20q19 0 27 -6.5t8 -20.5q0 -23 -17.5 -46t-51.5 -44q-59 -35 -104.5 -52.5t-78.5 -17.5q-25 0 -37.5 9t-23.5 34q-12 23 -16 49.5t-9 26.5q-7 0 -38 -21l-33 -22q-83 -46 -131 -63 t-91 -17q-100 0 -160.5 68.5t-60.5 183.5q0 81 24.5 158.5t71.5 144.5q69 103 160.5 160t186.5 57q51 0 115.5 -23.5t78.5 -23.5q15 0 62 23.5t77 23.5q23 0 36.5 -17.5t13.5 -47.5zM582 1280q0 52 -22 81.5t-60 29.5q-33 0 -63 -17.5t-62 -54.5q-48 -60 -79.5 -146.5 t-31.5 -158.5q0 -52 22 -81.5t60 -29.5q32 0 63 18.5t62 55.5q48 60 79.5 145.5t31.5 157.5z" />
<glyph unicode="&#xab;" horiz-adv-x="991" d="M664 512q77 -141 115 -230t38 -128q0 -22 -17 -38t-40 -16q-26 0 -56 24t-73 79l-67 86q-154 198 -154 225q0 35 135 161l28 27l45 43q205 195 259 195q19 0 28.5 -11.5t9.5 -35.5q0 -32 -59 -122t-192 -259zM274 512q78 -141 116 -230t38 -128q0 -22 -17 -38t-40 -16 q-26 0 -56 24t-73 79l-50 63q-169 219 -169 248q0 37 143 172l18 16l45 43q205 195 258 195q20 0 29.5 -11.5t9.5 -35.5q0 -32 -59 -122t-193 -259z" />
<glyph unicode="&#xac;" horiz-adv-x="1706" d="M254 866h1198v-501h-229v274h-969v227z" />
<glyph unicode="&#xad;" horiz-adv-x="797" d="M326 412q-52 0 -113 -5.5t-72 -5.5q-37 0 -53 15.5t-16 50.5q0 24 10 61t29 82q16 40 32 52t74 12q10 0 76 -1t123 -1q58 0 120 5t66 5q37 0 52.5 -14.5t15.5 -49.5q0 -32 -14.5 -81.5t-34.5 -85.5q-14 -26 -29 -34.5t-45 -8.5q-7 0 -29 1t-37 1q-1 0 -53 1t-102 1z" />
<glyph unicode="&#xae;" horiz-adv-x="1683" d="M772 728q8 -2 16 -2.5t23 -0.5q85 0 127.5 43.5t42.5 130.5q0 62 -38.5 103.5t-98.5 41.5q-37 0 -54.5 -15.5t-17.5 -47.5v-253zM463 1100h405q147 0 236.5 -56t89.5 -145q0 -87 -64.5 -136.5t-211.5 -74.5q116 -23 172.5 -87.5t56.5 -172.5q0 -48 10 -68t33 -20 q25 0 39 31t14 88v12h55q0 -5 1 -15t1 -14q0 -90 -47 -135t-141 -45q-45 0 -80 13t-55 36q-32 37 -36 134q-2 43 -5 65q-13 87 -47.5 124.5t-100.5 37.5h-16v-244q0 -45 18 -63.5t70 -26.5v-57h-397v57q57 5 77.5 24t20.5 66v524q0 47 -19 65.5t-79 26.5v56zM844 1311 q-127 0 -244.5 -49t-204.5 -138q-88 -90 -135 -204.5t-47 -241.5q0 -130 47 -244t137 -203q93 -91 205.5 -137.5t239.5 -46.5t240.5 47.5t201.5 136.5q89 91 137.5 207.5t48.5 239.5q0 125 -49 243.5t-137 204.5q-89 88 -204 136.5t-236 48.5zM844 1423q150 0 291 -60 t245 -169q99 -102 152 -240t53 -292q0 -141 -63 -280.5t-176 -246.5q-102 -97 -232 -149t-272 -52q-109 0 -212.5 31.5t-197.5 91.5q-159 107 -246.5 269.5t-87.5 351.5q0 149 56 284t161 240q105 106 242.5 163.5t286.5 57.5z" />
<glyph unicode="&#xaf;" horiz-adv-x="1024" d="M774 1417q62 0 75 -8.5t13 -34.5q0 -83 -20.5 -117t-75.5 -34h-395q-59 0 -72.5 9t-13.5 36q0 83 19.5 116t74.5 33h395z" />
<glyph unicode="&#xb0;" horiz-adv-x="674" d="M338 1321q-69 0 -117.5 -48t-48.5 -116q0 -70 48 -118t118 -48q68 0 116 49t48 117t-48 116t-116 48zM338 1466q129 0 220 -91t91 -220q0 -128 -91.5 -219.5t-221.5 -91.5q-129 0 -219 90.5t-90 220.5q0 131 90.5 221t220.5 90z" />
<glyph unicode="&#xb1;" horiz-adv-x="1706" d="M254 213h1198v-231h-1198v231zM735 1241h238v-319h479v-232h-479v-319h-238v319h-481v232h481v319z" />
<glyph unicode="&#xb2;" horiz-adv-x="795" d="M33 518q-44 0 -56 6t-12 23q0 20 38 45l3 2l144 113l3 2q320 248 320 385q0 45 -21.5 67.5t-66.5 22.5q-32 0 -65 -13.5t-79 -46.5q-6 -5 -19 -15q-54 -42 -85 -42q-22 0 -34.5 10.5t-12.5 28.5q0 24 24.5 54t69.5 61q69 46 138.5 69t138.5 23q114 0 185 -57.5t71 -149.5 q0 -74 -51.5 -139.5t-180.5 -151.5l-223 -149h203q50 0 74.5 5.5t44.5 18.5t47 44.5t45 31.5q16 0 26.5 -12t10.5 -31q0 -21 -20.5 -73t-53.5 -109q-22 -38 -40 -54t-36 -16q-17 0 -28 10.5t-21 36.5h-481z" />
<glyph unicode="&#xb3;" horiz-adv-x="795" d="M504 922q95 -24 140.5 -71t45.5 -122q0 -66 -35 -127t-98 -104q-71 -51 -159 -78t-185 -27q-114 0 -188 26t-74 64q0 21 18.5 36.5t42.5 15.5q14 0 81.5 -16.5t119.5 -16.5q103 0 170.5 52.5t67.5 131.5q0 65 -42.5 98t-123.5 33q-27 0 -57 -4t-33 -4q-17 0 -25 12t-8 37 q0 51 67 68l23 6q87 26 137.5 74t50.5 102q0 40 -28.5 65t-75.5 25q-50 0 -112.5 -26.5t-80.5 -26.5q-23 0 -36 10t-13 29q0 46 94.5 87.5t214.5 41.5q122 0 193.5 -51t71.5 -138q0 -63 -44 -117.5t-120 -84.5z" />
<glyph unicode="&#xb4;" horiz-adv-x="1024" d="M485 1196q-21 -6 -39 -9t-28 -3q-34 0 -53 28t-19 78q0 23 17.5 39.5t80.5 44.5l326 135q28 11 43 15t25 4q29 0 52 -49.5t23 -114.5q0 -27 -14.5 -41t-54.5 -25z" />
<glyph unicode="&#xb5;" horiz-adv-x="1233" d="M219 190q-12 -89 -27 -239q-40 -377 -163 -377q-57 0 -92 34.5t-35 88.5q0 56 69 281t105 397l108 510h293l-106 -498q-10 -43 -15.5 -75t-5.5 -50q0 -54 28 -86.5t75 -32.5q62 0 104 55t68 171l110 516h291l-111 -525q-6 -26 -9 -49t-3 -43q0 -43 19.5 -67.5t54.5 -24.5 q26 0 49.5 13.5t40.5 37.5q10 14 25 42q35 63 65 63q11 0 20 -12t9 -27q0 -30 -21 -87t-53 -104q-41 -62 -95.5 -92t-125.5 -30q-90 0 -136.5 47.5t-54.5 146.5q-36 -97 -98.5 -145.5t-150.5 -48.5q-101 0 -161 54.5t-71 155.5z" />
<glyph unicode="&#xb6;" horiz-adv-x="1024" d="M997 1479v-123h-106v-1356h-176v1356h-150v-1356h-174v784q-164 6 -263 101t-99 245q0 158 106 253.5t283 95.5h579z" />
<glyph unicode="&#xb7;" horiz-adv-x="602" d="M113 647q0 83 55.5 139t138.5 56q82 0 138.5 -56.5t56.5 -138.5t-57 -139t-138 -57q-82 0 -138 57t-56 139z" />
<glyph unicode="&#xb8;" horiz-adv-x="1024" d="M336 0h100q-5 -30 -8.5 -61t-5.5 -61q30 5 52 8t38 3q83 0 135.5 -44.5t52.5 -114.5q0 -84 -71 -133.5t-195 -49.5q-119 0 -199.5 32.5t-80.5 78.5q0 24 14 39.5t35 15.5q3 0 68 -27.5t137 -27.5q53 0 79.5 17t26.5 51q0 32 -19 48.5t-57 16.5q-23 0 -54 -2t-40 -2 q-20 0 -28.5 10.5t-8.5 36.5q0 30 25 148z" />
<glyph unicode="&#xb9;" horiz-adv-x="795" d="M199 1184q0 20 23.5 36.5t76.5 32.5q80 23 154 36.5t122 13.5q34 0 51 -9.5t17 -27.5q0 -9 -7.5 -20t-20.5 -21q-5 -3 -14 -7q-28 -14 -36 -47q-3 -10 -15.5 -72.5t-25.5 -140.5q-16 -99 -25.5 -184.5t-9.5 -114.5q0 -25 6 -32.5t32 -14.5q5 -1 15 -4q60 -16 60 -43 q0 -30 -52.5 -42.5t-182.5 -12.5q-143 0 -197.5 12t-54.5 41q0 15 13 25t44 20q9 3 24 6q41 9 52 42q5 15 14 65.5t21 124.5q16 98 26 174.5t10 95.5q0 17 -8.5 25.5t-30.5 11.5q-8 1 -25 2q-56 3 -56 29z" />
<glyph unicode="&#xba;" horiz-adv-x="885" d="M457 1399q-69 0 -121.5 -96.5t-52.5 -233.5q0 -101 28.5 -157t79.5 -56q71 0 121.5 100t50.5 248q0 91 -29 143t-77 52zM10 1063q0 87 34 163t103 144q72 69 162 106t183 37q156 0 250 -86t94 -231q0 -84 -35 -165t-99 -146q-67 -69 -156 -106.5t-188 -37.5 q-153 0 -250.5 91t-97.5 231z" />
<glyph unicode="&#xbb;" horiz-adv-x="991" d="M664 526q-78 141 -116 230t-38 129q0 22 16.5 38.5t38.5 16.5q25 0 54.5 -23.5t74.5 -80.5l67 -87q154 -198 154 -225q0 -36 -143 -171l-18 -17l-21 -19q-228 -217 -284 -217q-20 0 -29.5 11t-9.5 34q0 31 58 118.5t196 262.5zM274 526q-77 141 -115 230t-38 129 q0 22 16.5 38.5t38.5 16.5q25 0 54.5 -23.5t74.5 -80.5l67 -87q154 -198 154 -225q0 -36 -143 -171l-18 -17l-33 -31q-216 -205 -271 -205q-20 0 -30.5 11.5t-10.5 33.5q0 31 58 118.5t196 262.5z" />
<glyph unicode="&#xbc;" horiz-adv-x="1860" d="M1266 182h225q18 0 26 6.5t11 24.5l41 261q1 3 1.5 5.5t0.5 5.5q0 8 -2 11t-8 4q-12 0 -70 -54.5t-154 -154.5l-61 -64q-12 -13 -18.5 -22.5t-6.5 -14.5q1 -3 4.5 -5t10.5 -3zM1526 -150q-26 0 -36.5 8t-10.5 25q0 2 1 8t1 11l22 143h-385q-24 0 -33.5 5t-9.5 16 q0 3 0.5 6t1.5 7l6 38q6 43 77.5 125.5t312.5 310.5l15 15q179 173 269 173q29 0 40 -8.5t11 -30.5q0 -8 -0.5 -14t-1.5 -13l-82 -497h50q11 0 17.5 -6t6.5 -16v-9l-10 -71q-4 -18 -13 -24.5t-28 -6.5h-43l-19 -142q-3 -28 -16 -40t-41 -13h-102zM1419 1229q0 -20 -47 -73 l-20 -23q-72 -83 -204 -277.5t-282 -441.5q0 -1 -3 -5q-104 -162 -222 -421q-8 -17 -15.5 -24t-17.5 -7q-19 0 -56.5 17.5t-86.5 50.5q-14 8 -21.5 19.5t-7.5 25.5q0 23 52 83q37 43 57 70q64 88 381 594l129 205q53 85 116 206q58 111 84 111q14 0 44.5 -16.5t101.5 -62.5 q8 -7 13 -15.5t5 -15.5zM193 1192q0 17 21.5 32t72.5 31q76 23 147.5 35.5t116.5 12.5q31 0 48 -9.5t17 -25.5q0 -10 -7.5 -20t-20.5 -19q-5 -3 -13 -7q-27 -13 -34 -42q0 -2 -5 -21q-20 -88 -34 -178q-16 -96 -25.5 -178t-9.5 -103t6 -28.5t31 -14.5q3 0 10 -2 q61 -14 61 -43q0 -26 -49 -37.5t-174 -11.5q-139 0 -190 10.5t-51 36.5q0 14 11.5 23.5t42.5 19.5q8 2 21 5q40 9 52 41q5 14 26 130q5 29 8 45q16 96 25.5 166.5t9.5 87.5q0 16 -8.5 23t-29.5 10q-9 1 -24 2q-52 3 -52 29z" />
<glyph unicode="&#xbd;" horiz-adv-x="1860" d="M1130 0q-41 0 -52 5.5t-11 21.5q0 17 34 41l4 3l136 105l1 1q310 231 310 362q0 41 -21 62.5t-63 21.5q-30 0 -62 -13t-74 -42l-27 -20q-47 -36 -74 -36q-22 0 -33.5 9.5t-11.5 27.5q0 22 23 49t67 57q67 44 132 65t132 21q110 0 178 -53.5t68 -138.5q0 -68 -49 -128.5 t-174 -141.5l-213 -142h194q48 0 71 5t42 18q18 12 43.5 41.5t44.5 29.5q14 0 24.5 -11.5t10.5 -29.5t-19.5 -66t-50.5 -101q-21 -36 -38 -51t-36 -15q-16 0 -26.5 9.5t-20.5 33.5h-459zM1419 1229q0 -20 -47 -73l-20 -23q-72 -83 -204 -277.5t-282 -441.5q0 -1 -3 -5 q-104 -162 -222 -421q-8 -17 -15.5 -24t-17.5 -7q-19 0 -56.5 17.5t-86.5 50.5q-14 8 -21.5 19.5t-7.5 25.5q0 23 52 83q37 43 57 70q64 88 381 594l129 205q53 85 116 206q58 111 84 111q14 0 44.5 -16.5t101.5 -62.5q8 -7 13 -15.5t5 -15.5zM193 1192q0 17 21.5 32 t72.5 31q76 23 147.5 35.5t116.5 12.5q31 0 48 -9.5t17 -25.5q0 -10 -7.5 -20t-20.5 -19q-5 -3 -13 -7q-27 -13 -34 -42q0 -2 -5 -21q-20 -88 -34 -178q-16 -96 -25.5 -178t-9.5 -103t6 -28.5t31 -14.5q3 0 10 -2q61 -14 61 -43q0 -26 -49 -37.5t-174 -11.5 q-139 0 -190 10.5t-51 36.5q0 14 11.5 23.5t42.5 19.5q8 2 21 5q40 9 52 41q5 14 26 130q5 29 8 45q16 96 25.5 166.5t9.5 87.5q0 16 -8.5 23t-29.5 10q-9 1 -24 2q-52 3 -52 29z" />
<glyph unicode="&#xbe;" horiz-adv-x="1860" d="M1266 182h225q18 0 26 6.5t11 24.5l41 261q1 3 1.5 5.5t0.5 5.5q0 8 -2 11t-8 4q-12 0 -70 -54.5t-154 -154.5l-61 -64q-12 -13 -18.5 -22.5t-6.5 -14.5q1 -3 4.5 -5t10.5 -3zM1526 -150q-26 0 -36.5 8t-10.5 25q0 2 1 8t1 11l22 143h-385q-24 0 -33.5 5t-9.5 16 q0 3 0.5 6t1.5 7l6 38q6 43 77.5 125.5t312.5 310.5l15 15q179 173 269 173q29 0 40 -8.5t11 -30.5q0 -8 -0.5 -14t-1.5 -13l-82 -497h50q11 0 17.5 -6t6.5 -16v-9l-10 -71q-4 -18 -13 -24.5t-28 -6.5h-43l-19 -142q-3 -28 -16 -40t-41 -13h-102zM1419 1229q0 -20 -47 -73 l-20 -23q-72 -83 -204 -277.5t-282 -441.5q0 -1 -3 -5q-104 -162 -222 -421q-8 -17 -15.5 -24t-17.5 -7q-19 0 -56.5 17.5t-86.5 50.5q-14 8 -21.5 19.5t-7.5 25.5q0 23 52 83q37 43 57 70q64 88 381 594l129 205q53 85 116 206q58 111 84 111q14 0 44.5 -16.5t101.5 -62.5 q8 -7 13 -15.5t5 -15.5zM479 946q91 -21 134.5 -65.5t43.5 -114.5q0 -60 -32.5 -117.5t-92.5 -99.5q-70 -47 -154.5 -71.5t-174.5 -24.5q-109 0 -179.5 24t-70.5 60q0 19 18 34t41 15q14 0 77.5 -16.5t113.5 -16.5q98 0 162.5 49.5t64.5 124.5q0 59 -41 91t-117 32 q-25 0 -53.5 -4t-32.5 -4q-16 0 -23 10.5t-7 34.5q0 46 62 63l21 6q84 24 132.5 68t48.5 96q0 38 -27.5 61t-73.5 23q-45 0 -105 -24.5t-77 -24.5q-23 0 -36 9t-13 26q0 43 90.5 82t206.5 39q115 0 183.5 -47.5t68.5 -126.5q0 -61 -41.5 -111.5t-116.5 -79.5z" />
<glyph unicode="&#xbf;" horiz-adv-x="1081" d="M614 1016q52 0 74.5 -23.5t22.5 -77.5q0 -148 -175 -366l-49 -62q-49 -65 -73.5 -127t-24.5 -124q0 -56 27.5 -84.5t81.5 -28.5q27 0 53.5 11.5t48.5 33.5q29 29 48 101q8 29 14 45q25 75 65 108t107 33q50 0 80 -33.5t30 -89.5q0 -148 -145.5 -254.5t-356.5 -106.5 q-171 0 -270.5 84t-99.5 228q0 72 25.5 135t74.5 112q46 46 145.5 120t137.5 116q38 43 58 141l9 43q8 32 32 49t60 17zM858 1323q0 -83 -56 -139t-138 -56q-83 0 -139 56.5t-56 138.5q0 81 56.5 138t138.5 57t138 -56.5t56 -138.5z" />
<glyph unicode="&#xc0;" horiz-adv-x="1593" d="M946 233l-22 109q-11 50 -33.5 66t-99.5 16h-56h-180q-61 0 -85 -9.5t-44 -33.5q-24 -27 -45 -77t-21 -79q1 -30 40 -49q2 -1 3 -2q6 -3 17 -8q47 -21 47 -60q0 -57 -67.5 -86.5t-198.5 -29.5q-149 0 -204.5 21t-55.5 73q0 64 112 103l4 1q77 26 160 182l17 30 q169 309 300.5 573.5t155.5 331.5q18 45 33.5 102.5t17.5 64.5q8 21 32 33.5t56 12.5q93 0 132.5 -14.5t64.5 -51.5q35 -51 107 -396l63 -292q74 -328 103.5 -426.5t52.5 -120.5q6 -6 40.5 -18.5t55.5 -26.5q16 -10 24.5 -27.5t8.5 -40.5q0 -59 -81 -87.5t-247 -28.5 q-199 0 -263.5 21t-64.5 77q0 46 70 84l4 2l5 3q44 25 44 48q0 2 -1 5.5t-1 4.5zM584 608h245q14 1 19.5 6t5.5 17q0 4 -1 11l-3 21l-19 115q-16 115 -38 185.5t-39 70.5q-10 0 -24.5 -19t-29.5 -52l-135 -306q-4 -8 -6 -15t-2 -13q0 -8 8 -14.5t19 -6.5zM651 1744 q-42 12 -56 25t-14 39q0 65 22.5 115.5t51.5 50.5q10 0 24.5 -4t43.5 -15l325 -137q68 -29 84.5 -45t16.5 -41q0 -48 -19 -76t-53 -28q-10 0 -28 3t-40 9z" />
<glyph unicode="&#xc1;" horiz-adv-x="1593" d="M946 233l-22 109q-11 50 -33.5 66t-99.5 16h-56h-180q-61 0 -85 -9.5t-44 -33.5q-24 -27 -45 -77t-21 -79q1 -30 40 -49q2 -1 3 -2q6 -3 17 -8q47 -21 47 -60q0 -57 -67.5 -86.5t-198.5 -29.5q-149 0 -204.5 21t-55.5 73q0 64 112 103l4 1q77 26 160 182l17 30 q169 309 300.5 573.5t155.5 331.5q18 45 33.5 102.5t17.5 64.5q8 21 32 33.5t56 12.5q93 0 132.5 -14.5t64.5 -51.5q35 -51 107 -396l63 -292q74 -328 103.5 -426.5t52.5 -120.5q6 -6 40.5 -18.5t55.5 -26.5q16 -10 24.5 -27.5t8.5 -40.5q0 -59 -81 -87.5t-247 -28.5 q-199 0 -263.5 21t-64.5 77q0 46 70 84l4 2l5 3q44 25 44 48q0 2 -1 5.5t-1 4.5zM584 608h245q14 1 19.5 6t5.5 17q0 4 -1 11l-3 21l-19 115q-16 115 -38 185.5t-39 70.5q-10 0 -24.5 -19t-29.5 -52l-135 -306q-4 -8 -6 -15t-2 -13q0 -8 8 -14.5t19 -6.5zM800 1642 q-21 -6 -39 -9t-28 -3q-34 0 -53 28t-19 78q0 23 17.5 39.5t80.5 44.5l326 135q28 11 43 15t25 4q29 0 52 -49.5t23 -114.5q0 -27 -14.5 -41t-54.5 -25z" />
<glyph unicode="&#xc2;" horiz-adv-x="1593" d="M946 233l-22 109q-11 50 -33.5 66t-99.5 16h-56h-180q-61 0 -85 -9.5t-44 -33.5q-24 -27 -45 -77t-21 -79q1 -30 40 -49q2 -1 3 -2q6 -3 17 -8q47 -21 47 -60q0 -57 -67.5 -86.5t-198.5 -29.5q-149 0 -204.5 21t-55.5 73q0 64 112 103l4 1q77 26 160 182l17 30 q169 309 300.5 573.5t155.5 331.5q18 45 33.5 102.5t17.5 64.5q8 21 32 33.5t56 12.5q93 0 132.5 -14.5t64.5 -51.5q35 -51 107 -396l63 -292q74 -328 103.5 -426.5t52.5 -120.5q6 -6 40.5 -18.5t55.5 -26.5q16 -10 24.5 -27.5t8.5 -40.5q0 -59 -81 -87.5t-247 -28.5 q-199 0 -263.5 21t-64.5 77q0 46 70 84l4 2l5 3q44 25 44 48q0 2 -1 5.5t-1 4.5zM584 608h245q14 1 19.5 6t5.5 17q0 4 -1 11l-3 21l-19 115q-16 115 -38 185.5t-39 70.5q-10 0 -24.5 -19t-29.5 -52l-135 -306q-4 -8 -6 -15t-2 -13q0 -8 8 -14.5t19 -6.5zM919 1855l-32 -47 q-123 -180 -212 -180q-46 0 -68 8t-22 24q0 12 42 66l4 5l188 237q14 17 32 23.5t66 6.5q64 0 85 -7.5t40 -45.5l119 -244q1 -2 4 -7q10 -19 10 -34q0 -16 -16.5 -23t-59.5 -7q-83 0 -147 149z" />
<glyph unicode="&#xc3;" horiz-adv-x="1593" d="M946 233l-22 109q-11 50 -33.5 66t-99.5 16h-56h-180q-61 0 -85 -9.5t-44 -33.5q-24 -27 -45 -77t-21 -79q1 -30 40 -49q2 -1 3 -2q6 -3 17 -8q47 -21 47 -60q0 -57 -67.5 -86.5t-198.5 -29.5q-149 0 -204.5 21t-55.5 73q0 64 112 103l4 1q77 26 160 182l17 30 q169 309 300.5 573.5t155.5 331.5q18 45 33.5 102.5t17.5 64.5q8 21 32 33.5t56 12.5q93 0 132.5 -14.5t64.5 -51.5q35 -51 107 -396l63 -292q74 -328 103.5 -426.5t52.5 -120.5q6 -6 40.5 -18.5t55.5 -26.5q16 -10 24.5 -27.5t8.5 -40.5q0 -59 -81 -87.5t-247 -28.5 q-199 0 -263.5 21t-64.5 77q0 46 70 84l4 2l5 3q44 25 44 48q0 2 -1 5.5t-1 4.5zM584 608h245q14 1 19.5 6t5.5 17q0 4 -1 11l-3 21l-19 115q-16 115 -38 185.5t-39 70.5q-10 0 -24.5 -19t-29.5 -52l-135 -306q-4 -8 -6 -15t-2 -13q0 -8 8 -14.5t19 -6.5zM1034 1671 q-63 0 -173.5 41t-158.5 41q-34 0 -56.5 -17.5t-43.5 -64.5q-9 -18 -18 -23.5t-25 -5.5q-24 0 -42 11.5t-18 27.5q0 26 24 79.5t60 98.5q34 43 71 63.5t81 20.5t157 -41t181 -41q42 0 65.5 15t42.5 58q10 21 17.5 26t21.5 6q35 0 48.5 -9.5t13.5 -31.5q0 -91 -76.5 -172.5 t-171.5 -81.5z" />
<glyph unicode="&#xc4;" horiz-adv-x="1593" d="M946 233l-22 109q-11 50 -33.5 66t-99.5 16h-56h-180q-61 0 -85 -9.5t-44 -33.5q-24 -27 -45 -77t-21 -79q1 -30 40 -49q2 -1 3 -2q6 -3 17 -8q47 -21 47 -60q0 -57 -67.5 -86.5t-198.5 -29.5q-149 0 -204.5 21t-55.5 73q0 64 112 103l4 1q77 26 160 182l17 30 q169 309 300.5 573.5t155.5 331.5q18 45 33.5 102.5t17.5 64.5q8 21 32 33.5t56 12.5q93 0 132.5 -14.5t64.5 -51.5q35 -51 107 -396l63 -292q74 -328 103.5 -426.5t52.5 -120.5q6 -6 40.5 -18.5t55.5 -26.5q16 -10 24.5 -27.5t8.5 -40.5q0 -59 -81 -87.5t-247 -28.5 q-199 0 -263.5 21t-64.5 77q0 46 70 84l4 2l5 3q44 25 44 48q0 2 -1 5.5t-1 4.5zM584 608h245q14 1 19.5 6t5.5 17q0 4 -1 11l-3 21l-19 115q-16 115 -38 185.5t-39 70.5q-10 0 -24.5 -19t-29.5 -52l-135 -306q-4 -8 -6 -15t-2 -13q0 -8 8 -14.5t19 -6.5zM1083 1658 q-48 0 -79.5 34.5t-31.5 86.5q0 65 45 112.5t107 47.5q52 0 82.5 -33t30.5 -90q0 -71 -42.5 -114.5t-111.5 -43.5zM659 1658q-51 0 -83 34t-32 87q0 66 44 114t106 48q51 0 83 -34t32 -89q0 -69 -43 -114.5t-107 -45.5z" />
<glyph unicode="&#xc5;" horiz-adv-x="1593" d="M584 596h245q13 0 19 5.5t6 19.5q0 5 -2 21q-2 8 -2 11l-19 117q-16 117 -37.5 190.5t-37.5 73.5q-11 0 -26.5 -20t-29.5 -53l-135 -314q-4 -10 -6 -18.5t-2 -12.5q0 -8 7.5 -14t19.5 -6zM946 217l-22 102q-11 47 -33.5 61.5t-97.5 14.5h-58h-180q-57 0 -82.5 -9 t-46.5 -32q-24 -25 -45 -70.5t-21 -72.5q0 -17 7 -26t36 -23l15 -6q49 -21 49 -58q0 -53 -68 -80.5t-198 -27.5q-150 0 -205 19.5t-55 68.5q0 59 99 91q32 10 49 18q70 31 308 496l45 87l146 281q76 146 135 294q12 29 14 33q11 19 41.5 28t91.5 9q67 0 102 -12.5t58 -42.5 q44 -54 110 -375q35 -169 58 -270q62 -271 95.5 -379.5t58.5 -132.5q6 -7 41 -19t55 -24q16 -11 24.5 -27t8.5 -37q0 -55 -79 -80.5t-249 -25.5q-205 0 -266.5 19.5t-61.5 70.5q0 24 12.5 39.5t61.5 40.5q32 16 40.5 25.5t8.5 21.5q0 2 -1 5t-1 5zM788 1729q0 -44 30 -74.5 t73 -30.5t73.5 31t30.5 74q0 42 -30.5 72t-73.5 30t-73 -29.5t-30 -72.5zM645 1729q0 102 71.5 173.5t174.5 71.5q104 0 176 -71t72 -174q0 -105 -72 -176.5t-176 -71.5q-103 0 -174.5 71.5t-71.5 176.5z" />
<glyph unicode="&#xc6;" horiz-adv-x="2073" d="M846 0q-112 0 -156.5 19t-44.5 65q0 38 21 63.5t70 45.5q3 1 13 5q34 15 46 30q12 16 25.5 66.5t13.5 92.5q0 51 -35.5 67.5t-198.5 16.5h-27q-117 0 -164.5 -9.5t-76.5 -33.5q-50 -41 -87.5 -102.5t-37.5 -96.5q0 -18 7.5 -29t37.5 -26l18 -9q41 -19 41 -56 q0 -58 -65.5 -88.5t-190.5 -30.5q-142 0 -196 21t-54 73q0 26 19 53t31 27q31 0 88.5 47t105.5 119l508 766q42 65 55 92.5t13 46.5q0 21 -9 34t-36 27l-18 10q-60 32 -60 85t49 77.5t158 24.5h1034q53 0 109.5 14.5t60.5 14.5q27 0 46.5 -19.5t39.5 -66.5 q22 -54 35.5 -106.5t13.5 -86.5q0 -52 -23.5 -81t-64.5 -29q-28 0 -49.5 14.5t-50.5 60.5q-38 58 -73 76.5t-95 18.5h-217q-69 0 -101.5 -17.5t-50.5 -62.5q-22 -52 -38.5 -144t-16.5 -166q0 -25 10 -30.5t45 -5.5h127q67 0 91 15.5t46 59.5q10 19 22 61q27 95 87 95 q38 0 52.5 -19t14.5 -69q0 -127 -19 -251t-52 -220q-17 -46 -36.5 -63t-51.5 -17q-34 0 -51 17t-17 51q-2 108 -23.5 133.5t-76.5 25.5h-148q-23 0 -34 -6.5t-17 -24.5q-15 -49 -28 -154t-13 -212q0 -60 37.5 -82t148.5 -22h117q96 0 149.5 22t102.5 78q12 14 38.5 63.5 t47.5 77.5q15 20 35 30.5t41 10.5q33 0 50 -20.5t17 -59.5q0 -65 -26.5 -159.5t-73.5 -186.5q-19 -38 -41 -59t-43 -21q-1 0 -54 14.5t-116 14.5h-780zM453 654q29 0 66.5 0.5t121.5 0.5q92 0 143 -0.5t97 -0.5q29 199 45 347t16 220q0 38 -9.5 60t-25.5 22q-12 0 -27 -13 t-32 -39z" />
<glyph unicode="&#xc7;" horiz-adv-x="1442" d="M1157 104q-20 0 -63 -27.5t-68 -39.5q-78 -38 -163 -57t-173 -19q-292 0 -464.5 179t-172.5 483q0 192 66 356t194 291q122 119 280.5 183.5t328.5 64.5q152 0 282 -64q20 -10 25 -10q8 0 25 8t26 8q19 0 37 -14.5t39 -46.5q34 -54 52.5 -110t18.5 -101 q0 -60 -27.5 -91.5t-80.5 -31.5q-30 0 -57 14.5t-48 43.5l-20 27q-129 175 -274 175q-206 0 -334.5 -183.5t-128.5 -479.5q0 -217 96 -348.5t252 -131.5q70 0 142 31.5t149 95.5q25 21 63 64q59 67 98 67q33 0 52.5 -25t19.5 -67q0 -85 -48.5 -166.5t-96.5 -81.5q-4 0 -13 2 t-14 2zM481 0h100q-5 -30 -8.5 -61t-5.5 -61q30 5 52 8t38 3q83 0 135.5 -44.5t52.5 -114.5q0 -84 -71 -133.5t-195 -49.5q-119 0 -199.5 32.5t-80.5 78.5q0 24 14 39.5t35 15.5q3 0 68 -27.5t137 -27.5q53 0 79.5 17t26.5 51q0 32 -19 48.5t-57 16.5q-23 0 -54 -2t-40 -2 q-20 0 -28.5 10.5t-8.5 36.5q0 30 25 148z" />
<glyph unicode="&#xc8;" horiz-adv-x="1356" d="M143 0q-112 0 -156 19t-44 65q0 24 9.5 44.5t27.5 35.5q14 12 56.5 28.5t55.5 34.5q12 15 26.5 79.5t37.5 211.5q39 247 62.5 441t23.5 262q0 31 -7 45t-34 30q-6 4 -20 12q-52 29 -52 81q0 54 46 79t144 25h723q54 0 110 14.5t60 14.5q28 0 47.5 -19.5t38.5 -66.5 q22 -52 35 -104.5t13 -88.5q0 -53 -22.5 -81.5t-63.5 -28.5q-29 0 -50 14.5t-51 60.5q-37 58 -72.5 76.5t-95.5 18.5h-217q-68 0 -100.5 -17.5t-50.5 -62.5q-22 -52 -39 -144t-17 -166q0 -25 10 -30.5t46 -5.5h127q67 0 91 15.5t46 59.5q9 19 21 61q28 95 87 95q38 0 53 -19 t15 -69q0 -127 -19 -251t-53 -220q-17 -46 -36 -63t-52 -17q-34 0 -50.5 17t-16.5 51q-2 108 -23.5 133.5t-77.5 25.5h-147q-24 0 -35 -7t-16 -23q-16 -50 -28.5 -155t-12.5 -212q0 -60 37 -82t147 -22h119q95 0 149 22t103 78q12 14 38 63.5t48 77.5q14 20 34.5 30.5 t40.5 10.5q33 0 50.5 -20.5t17.5 -59.5q0 -65 -27 -159.5t-73 -186.5q-19 -38 -41 -59t-43 -21q-1 0 -54.5 14.5t-115.5 14.5h-783zM520 1744q-42 12 -56 25t-14 39q0 65 22.5 115.5t51.5 50.5q10 0 24.5 -4t43.5 -15l325 -137q68 -29 84.5 -45t16.5 -41q0 -48 -19 -76 t-53 -28q-10 0 -28 3t-40 9z" />
<glyph unicode="&#xc9;" horiz-adv-x="1356" d="M143 0q-112 0 -156 19t-44 65q0 24 9.5 44.5t27.5 35.5q14 12 56.5 28.5t55.5 34.5q12 15 26.5 79.5t37.5 211.5q39 247 62.5 441t23.5 262q0 31 -7 45t-34 30q-6 4 -20 12q-52 29 -52 81q0 54 46 79t144 25h723q54 0 110 14.5t60 14.5q28 0 47.5 -19.5t38.5 -66.5 q22 -52 35 -104.5t13 -88.5q0 -53 -22.5 -81.5t-63.5 -28.5q-29 0 -50 14.5t-51 60.5q-37 58 -72.5 76.5t-95.5 18.5h-217q-68 0 -100.5 -17.5t-50.5 -62.5q-22 -52 -39 -144t-17 -166q0 -25 10 -30.5t46 -5.5h127q67 0 91 15.5t46 59.5q9 19 21 61q28 95 87 95q38 0 53 -19 t15 -69q0 -127 -19 -251t-53 -220q-17 -46 -36 -63t-52 -17q-34 0 -50.5 17t-16.5 51q-2 108 -23.5 133.5t-77.5 25.5h-147q-24 0 -35 -7t-16 -23q-16 -50 -28.5 -155t-12.5 -212q0 -60 37 -82t147 -22h119q95 0 149 22t103 78q12 14 38 63.5t48 77.5q14 20 34.5 30.5 t40.5 10.5q33 0 50.5 -20.5t17.5 -59.5q0 -65 -27 -159.5t-73 -186.5q-19 -38 -41 -59t-43 -21q-1 0 -54.5 14.5t-115.5 14.5h-783zM669 1642q-21 -6 -39 -9t-28 -3q-34 0 -53 28t-19 78q0 23 17.5 39.5t80.5 44.5l326 135q28 11 43 15t25 4q29 0 52 -49.5t23 -114.5 q0 -27 -14.5 -41t-54.5 -25z" />
<glyph unicode="&#xca;" horiz-adv-x="1356" d="M143 0q-112 0 -156 19t-44 65q0 24 9.5 44.5t27.5 35.5q14 12 56.5 28.5t55.5 34.5q12 15 26.5 79.5t37.5 211.5q39 247 62.5 441t23.5 262q0 31 -7 45t-34 30q-6 4 -20 12q-52 29 -52 81q0 54 46 79t144 25h723q54 0 110 14.5t60 14.5q28 0 47.5 -19.5t38.5 -66.5 q22 -52 35 -104.5t13 -88.5q0 -53 -22.5 -81.5t-63.5 -28.5q-29 0 -50 14.5t-51 60.5q-37 58 -72.5 76.5t-95.5 18.5h-217q-68 0 -100.5 -17.5t-50.5 -62.5q-22 -52 -39 -144t-17 -166q0 -25 10 -30.5t46 -5.5h127q67 0 91 15.5t46 59.5q9 19 21 61q28 95 87 95q38 0 53 -19 t15 -69q0 -127 -19 -251t-53 -220q-17 -46 -36 -63t-52 -17q-34 0 -50.5 17t-16.5 51q-2 108 -23.5 133.5t-77.5 25.5h-147q-24 0 -35 -7t-16 -23q-16 -50 -28.5 -155t-12.5 -212q0 -60 37 -82t147 -22h119q95 0 149 22t103 78q12 14 38 63.5t48 77.5q14 20 34.5 30.5 t40.5 10.5q33 0 50.5 -20.5t17.5 -59.5q0 -65 -27 -159.5t-73 -186.5q-19 -38 -41 -59t-43 -21q-1 0 -54.5 14.5t-115.5 14.5h-783zM788 1855l-32 -47q-123 -180 -212 -180q-46 0 -68 8t-22 24q0 12 42 66l4 5l188 237q14 17 32 23.5t66 6.5q64 0 85 -7.5t40 -45.5l119 -244 q1 -2 4 -7q10 -19 10 -34q0 -16 -16.5 -23t-59.5 -7q-83 0 -147 149z" />
<glyph unicode="&#xcb;" horiz-adv-x="1356" d="M143 0q-112 0 -156 19t-44 65q0 24 9.5 44.5t27.5 35.5q14 12 56.5 28.5t55.5 34.5q12 15 26.5 79.5t37.5 211.5q39 247 62.5 441t23.5 262q0 31 -7 45t-34 30q-6 4 -20 12q-52 29 -52 81q0 54 46 79t144 25h723q54 0 110 14.5t60 14.5q28 0 47.5 -19.5t38.5 -66.5 q22 -52 35 -104.5t13 -88.5q0 -53 -22.5 -81.5t-63.5 -28.5q-29 0 -50 14.5t-51 60.5q-37 58 -72.5 76.5t-95.5 18.5h-217q-68 0 -100.5 -17.5t-50.5 -62.5q-22 -52 -39 -144t-17 -166q0 -25 10 -30.5t46 -5.5h127q67 0 91 15.5t46 59.5q9 19 21 61q28 95 87 95q38 0 53 -19 t15 -69q0 -127 -19 -251t-53 -220q-17 -46 -36 -63t-52 -17q-34 0 -50.5 17t-16.5 51q-2 108 -23.5 133.5t-77.5 25.5h-147q-24 0 -35 -7t-16 -23q-16 -50 -28.5 -155t-12.5 -212q0 -60 37 -82t147 -22h119q95 0 149 22t103 78q12 14 38 63.5t48 77.5q14 20 34.5 30.5 t40.5 10.5q33 0 50.5 -20.5t17.5 -59.5q0 -65 -27 -159.5t-73 -186.5q-19 -38 -41 -59t-43 -21q-1 0 -54.5 14.5t-115.5 14.5h-783zM952 1658q-48 0 -79.5 34.5t-31.5 86.5q0 65 45 112.5t107 47.5q52 0 82.5 -33t30.5 -90q0 -71 -42.5 -114.5t-111.5 -43.5zM528 1658 q-51 0 -83 34t-32 87q0 66 44 114t106 48q51 0 83 -34t32 -89q0 -69 -43 -114.5t-107 -45.5z" />
<glyph unicode="&#xcc;" horiz-adv-x="735" d="M465 1505q183 0 244 -22.5t61 -83.5q0 -22 -11.5 -41t-35.5 -37q-10 -8 -46 -24t-46 -37q-18 -41 -55 -281l-1 -6q-37 -253 -60 -456t-23 -267q0 -28 5.5 -39.5t28.5 -24.5q6 -4 18 -10q46 -26 46 -76q0 -61 -79.5 -85.5t-291.5 -24.5q-161 0 -219.5 21t-58.5 73 q0 26 10 46t31 34q12 8 49 22.5t51 32.5q9 14 20 51t23 97q53 264 79.5 475t26.5 362q0 49 -7 63t-31 29l-14 9q-60 36 -60 79q0 66 75 93.5t271 27.5zM240 1744q-42 12 -56 25t-14 39q0 65 22.5 115.5t51.5 50.5q10 0 24.5 -4t43.5 -15l325 -137q68 -29 84.5 -45t16.5 -41 q0 -48 -19 -76t-53 -28q-10 0 -28 3t-40 9z" />
<glyph unicode="&#xcd;" horiz-adv-x="735" d="M465 1505q183 0 244 -22.5t61 -83.5q0 -22 -11.5 -41t-35.5 -37q-10 -8 -46 -24t-46 -37q-18 -41 -55 -281l-1 -6q-37 -253 -60 -456t-23 -267q0 -28 5.5 -39.5t28.5 -24.5q6 -4 18 -10q46 -26 46 -76q0 -61 -79.5 -85.5t-291.5 -24.5q-161 0 -219.5 21t-58.5 73 q0 26 10 46t31 34q12 8 49 22.5t51 32.5q9 14 20 51t23 97q53 264 79.5 475t26.5 362q0 49 -7 63t-31 29l-14 9q-60 36 -60 79q0 66 75 93.5t271 27.5zM389 1642q-21 -6 -39 -9t-28 -3q-34 0 -53 28t-19 78q0 23 17.5 39.5t80.5 44.5l326 135q28 11 43 15t25 4 q29 0 52 -49.5t23 -114.5q0 -27 -14.5 -41t-54.5 -25z" />
<glyph unicode="&#xce;" horiz-adv-x="735" d="M465 1505q183 0 244 -22.5t61 -83.5q0 -22 -11.5 -41t-35.5 -37q-10 -8 -46 -24t-46 -37q-18 -41 -55 -281l-1 -6q-37 -253 -60 -456t-23 -267q0 -28 5.5 -39.5t28.5 -24.5q6 -4 18 -10q46 -26 46 -76q0 -61 -79.5 -85.5t-291.5 -24.5q-161 0 -219.5 21t-58.5 73 q0 26 10 46t31 34q12 8 49 22.5t51 32.5q9 14 20 51t23 97q53 264 79.5 475t26.5 362q0 49 -7 63t-31 29l-14 9q-60 36 -60 79q0 66 75 93.5t271 27.5zM508 1855l-32 -47q-123 -180 -212 -180q-46 0 -68 8t-22 24q0 12 42 66l4 5l188 237q14 17 32 23.5t66 6.5q64 0 85 -7.5 t40 -45.5l119 -244q1 -2 4 -7q10 -19 10 -34q0 -16 -16.5 -23t-59.5 -7q-83 0 -147 149z" />
<glyph unicode="&#xcf;" horiz-adv-x="735" d="M465 1505q183 0 244 -22.5t61 -83.5q0 -22 -11.5 -41t-35.5 -37q-10 -8 -46 -24t-46 -37q-18 -41 -55 -281l-1 -6q-37 -253 -60 -456t-23 -267q0 -28 5.5 -39.5t28.5 -24.5q6 -4 18 -10q46 -26 46 -76q0 -61 -79.5 -85.5t-291.5 -24.5q-161 0 -219.5 21t-58.5 73 q0 26 10 46t31 34q12 8 49 22.5t51 32.5q9 14 20 51t23 97q53 264 79.5 475t26.5 362q0 49 -7 63t-31 29l-14 9q-60 36 -60 79q0 66 75 93.5t271 27.5zM672 1658q-48 0 -79.5 34.5t-31.5 86.5q0 65 45 112.5t107 47.5q52 0 82.5 -33t30.5 -90q0 -71 -42.5 -114.5 t-111.5 -43.5zM248 1658q-51 0 -83 34t-32 87q0 66 44 114t106 48q51 0 83 -34t32 -89q0 -69 -43 -114.5t-107 -45.5z" />
<glyph unicode="&#xd0;" horiz-adv-x="1593" d="M535 657q-16 -136 -24.5 -241t-8.5 -144q0 -52 46 -78t138 -26q214 0 337.5 180.5t123.5 493.5q0 229 -92 357t-256 128q-54 0 -91.5 -12t-54.5 -35q-16 -20 -39 -127t-57 -322h160q48 0 66 -13t18 -48q0 -59 -22 -86t-70 -27h-174zM178 657h-88q-48 0 -66 13.5t-18 48.5 q0 59 22 85.5t70 26.5h105q18 119 27.5 218.5t9.5 177.5q0 49 -48 72q-20 10 -30 16q-17 9 -27 28.5t-10 42.5q0 68 84 92.5t393 24.5h213q198 0 324 -39.5t221 -128.5q83 -76 133.5 -213t50.5 -288q0 -184 -66.5 -346t-193.5 -287q-107 -106 -254 -160.5t-323 -54.5 q-89 0 -228 7t-190 7q-43 0 -101 -1t-73 -1q-92 0 -128 18.5t-36 63.5q0 69 109 119q14 6 22 10q31 16 79 332z" />
<glyph unicode="&#xd1;" horiz-adv-x="1554" d="M399 1004q-41 -291 -64.5 -494t-23.5 -260q0 -28 6 -39.5t29 -24.5q6 -4 17 -10q47 -26 47 -76q0 -55 -64.5 -81.5t-195.5 -26.5q-120 0 -170 21t-50 71q0 27 10 46.5t29 33.5q13 9 51 23t52 33q8 12 17.5 45.5t23.5 101.5q54 271 81 480.5t27 356.5q0 49 -7.5 63 t-30.5 29l-15 9q-59 36 -59 79q0 61 64.5 90t199.5 29h14q87 0 123 -16t65 -57q1 -2 193 -306l397 -616q41 268 64.5 469.5t23.5 265.5q0 29 -6 41t-28 25q-6 4 -18 10q-46 27 -46 76q0 55 64.5 81.5t195.5 26.5q120 0 169.5 -21t49.5 -71q0 -36 -18 -59t-64 -41 q-66 -27 -86 -117q-2 -10 -4 -17q-30 -136 -64.5 -365.5t-88.5 -655.5q-15 -107 -46.5 -143t-101.5 -36q-57 0 -103 34t-104 125l-195 310zM1047 1671q-63 0 -173.5 41t-158.5 41q-34 0 -56.5 -17.5t-43.5 -64.5q-9 -18 -18 -23.5t-25 -5.5q-24 0 -42 11.5t-18 27.5 q0 26 24 79.5t60 98.5q34 43 71 63.5t81 20.5t157 -41t181 -41q42 0 65.5 15t42.5 58q10 21 17.5 26t21.5 6q35 0 48.5 -9.5t13.5 -31.5q0 -91 -76.5 -172.5t-171.5 -81.5z" />
<glyph unicode="&#xd2;" horiz-adv-x="1636" d="M768 158q181 0 297.5 190t116.5 494q0 228 -84 353.5t-236 125.5q-185 0 -296 -191.5t-111 -515.5q0 -218 82 -337t231 -119zM725 -37q-308 0 -490 187t-182 503q0 198 77 367t224 293q119 100 263.5 151.5t308.5 51.5q301 0 479 -182.5t178 -489.5q0 -140 -39 -268 t-117 -244q-112 -171 -300.5 -270t-401.5 -99zM668 1744q-42 12 -56 25t-14 39q0 65 22.5 115.5t51.5 50.5q10 0 24.5 -4t43.5 -15l325 -137q68 -29 84.5 -45t16.5 -41q0 -48 -19 -76t-53 -28q-10 0 -28 3t-40 9z" />
<glyph unicode="&#xd3;" horiz-adv-x="1636" d="M768 158q181 0 297.5 190t116.5 494q0 228 -84 353.5t-236 125.5q-185 0 -296 -191.5t-111 -515.5q0 -218 82 -337t231 -119zM725 -37q-308 0 -490 187t-182 503q0 198 77 367t224 293q119 100 263.5 151.5t308.5 51.5q301 0 479 -182.5t178 -489.5q0 -140 -39 -268 t-117 -244q-112 -171 -300.5 -270t-401.5 -99zM817 1642q-21 -6 -39 -9t-28 -3q-34 0 -53 28t-19 78q0 23 17.5 39.5t80.5 44.5l326 135q28 11 43 15t25 4q29 0 52 -49.5t23 -114.5q0 -27 -14.5 -41t-54.5 -25z" />
<glyph unicode="&#xd4;" horiz-adv-x="1636" d="M768 158q181 0 297.5 190t116.5 494q0 228 -84 353.5t-236 125.5q-185 0 -296 -191.5t-111 -515.5q0 -218 82 -337t231 -119zM725 -37q-308 0 -490 187t-182 503q0 198 77 367t224 293q119 100 263.5 151.5t308.5 51.5q301 0 479 -182.5t178 -489.5q0 -140 -39 -268 t-117 -244q-112 -171 -300.5 -270t-401.5 -99zM936 1855l-32 -47q-123 -180 -212 -180q-46 0 -68 8t-22 24q0 12 42 66l4 5l188 237q14 17 32 23.5t66 6.5q64 0 85 -7.5t40 -45.5l119 -244q1 -2 4 -7q10 -19 10 -34q0 -16 -16.5 -23t-59.5 -7q-83 0 -147 149z" />
<glyph unicode="&#xd5;" horiz-adv-x="1636" d="M768 158q181 0 297.5 190t116.5 494q0 228 -84 353.5t-236 125.5q-185 0 -296 -191.5t-111 -515.5q0 -218 82 -337t231 -119zM725 -37q-308 0 -490 187t-182 503q0 198 77 367t224 293q119 100 263.5 151.5t308.5 51.5q301 0 479 -182.5t178 -489.5q0 -140 -39 -268 t-117 -244q-112 -171 -300.5 -270t-401.5 -99zM1051 1671q-63 0 -173.5 41t-158.5 41q-34 0 -56.5 -17.5t-43.5 -64.5q-9 -18 -18 -23.5t-25 -5.5q-24 0 -42 11.5t-18 27.5q0 26 24 79.5t60 98.5q34 43 71 63.5t81 20.5t157 -41t181 -41q42 0 65.5 15t42.5 58q10 21 17.5 26 t21.5 6q35 0 48.5 -9.5t13.5 -31.5q0 -91 -76.5 -172.5t-171.5 -81.5z" />
<glyph unicode="&#xd6;" horiz-adv-x="1636" d="M768 158q181 0 297.5 190t116.5 494q0 228 -84 353.5t-236 125.5q-185 0 -296 -191.5t-111 -515.5q0 -218 82 -337t231 -119zM725 -37q-308 0 -490 187t-182 503q0 198 77 367t224 293q119 100 263.5 151.5t308.5 51.5q301 0 479 -182.5t178 -489.5q0 -140 -39 -268 t-117 -244q-112 -171 -300.5 -270t-401.5 -99zM1100 1658q-48 0 -79.5 34.5t-31.5 86.5q0 65 45 112.5t107 47.5q52 0 82.5 -33t30.5 -90q0 -71 -42.5 -114.5t-111.5 -43.5zM676 1658q-51 0 -83 34t-32 87q0 66 44 114t106 48q51 0 83 -34t32 -89q0 -69 -43 -114.5 t-107 -45.5z" />
<glyph unicode="&#xd7;" horiz-adv-x="1706" d="M430 1214l440 -440l441 440l162 -161l-441 -443l441 -440l-162 -162l-441 441l-440 -441l-162 162l441 440l-441 443z" />
<glyph unicode="&#xd8;" horiz-adv-x="1636" d="M473 438l623 756q-43 70 -101 105.5t-129 35.5q-176 0 -295.5 -195t-119.5 -497q0 -43 5.5 -93.5t16.5 -111.5zM1157 1030l-616 -749q38 -69 93 -103.5t126 -34.5q94 0 175 59.5t146 176.5q46 81 74.5 202.5t28.5 241.5q0 45 -6.5 96.5t-20.5 110.5zM1282 1421l145 176 q32 40 53 53t46 13q31 0 53.5 -19t22.5 -45q0 -19 -10.5 -40.5t-30.5 -45.5l-160 -190q91 -88 136.5 -206.5t45.5 -268.5q0 -202 -77.5 -376t-223.5 -300q-121 -104 -264.5 -157.5t-300.5 -53.5q-100 0 -189.5 24t-173.5 72l-188 -227q-35 -41 -56 -54.5t-44 -13.5 q-32 0 -54 19t-22 45q0 18 10 39t33 49l200 244q-85 76 -132.5 201t-47.5 278q0 207 76.5 380t222.5 296q119 100 265 151.5t313 51.5q111 0 198.5 -23.5t153.5 -71.5z" />
<glyph unicode="&#xd9;" horiz-adv-x="1565" d="M500 599q-10 -61 -14.5 -105.5t-4.5 -77.5q0 -129 76 -196.5t219 -67.5q104 0 178.5 36.5t124.5 112.5q25 39 45.5 121t40.5 231l54 377q6 43 9 88.5t3 91.5q0 37 -10.5 56.5t-46.5 42.5q-31 20 -42.5 36.5t-11.5 38.5q0 60 61 87.5t193 27.5q149 0 200.5 -20.5 t51.5 -73.5q0 -58 -85 -102l-10 -5q-60 -31 -94 -247l-3 -20l-64 -421q-31 -205 -63.5 -299.5t-85.5 -156.5q-81 -95 -217 -144t-318 -49q-272 0 -408.5 105.5t-136.5 316.5q0 77 22 241l3 19l49 346q8 57 12 107t4 90q0 51 -9 71.5t-35 40.5l-15 9q-59 35 -59 77 q0 63 72 91t237 28q209 0 272.5 -21t63.5 -77q0 -59 -86 -103l-7 -4q-38 -19 -58.5 -70.5t-47.5 -230.5zM725 1744q-42 12 -56 25t-14 39q0 65 22.5 115.5t51.5 50.5q10 0 24.5 -4t43.5 -15l325 -137q68 -29 84.5 -45t16.5 -41q0 -48 -19 -76t-53 -28q-10 0 -28 3t-40 9z " />
<glyph unicode="&#xda;" horiz-adv-x="1565" d="M500 599q-10 -61 -14.5 -105.5t-4.5 -77.5q0 -129 76 -196.5t219 -67.5q104 0 178.5 36.5t124.5 112.5q25 39 45.5 121t40.5 231l54 377q6 43 9 88.5t3 91.5q0 37 -10.5 56.5t-46.5 42.5q-31 20 -42.5 36.5t-11.5 38.5q0 60 61 87.5t193 27.5q149 0 200.5 -20.5 t51.5 -73.5q0 -58 -85 -102l-10 -5q-60 -31 -94 -247l-3 -20l-64 -421q-31 -205 -63.5 -299.5t-85.5 -156.5q-81 -95 -217 -144t-318 -49q-272 0 -408.5 105.5t-136.5 316.5q0 77 22 241l3 19l49 346q8 57 12 107t4 90q0 51 -9 71.5t-35 40.5l-15 9q-59 35 -59 77 q0 63 72 91t237 28q209 0 272.5 -21t63.5 -77q0 -59 -86 -103l-7 -4q-38 -19 -58.5 -70.5t-47.5 -230.5zM874 1642q-21 -6 -39 -9t-28 -3q-34 0 -53 28t-19 78q0 23 17.5 39.5t80.5 44.5l326 135q28 11 43 15t25 4q29 0 52 -49.5t23 -114.5q0 -27 -14.5 -41t-54.5 -25z" />
<glyph unicode="&#xdb;" horiz-adv-x="1565" d="M500 599q-10 -61 -14.5 -105.5t-4.5 -77.5q0 -129 76 -196.5t219 -67.5q104 0 178.5 36.5t124.5 112.5q25 39 45.5 121t40.5 231l54 377q6 43 9 88.5t3 91.5q0 37 -10.5 56.5t-46.5 42.5q-31 20 -42.5 36.5t-11.5 38.5q0 60 61 87.5t193 27.5q149 0 200.5 -20.5 t51.5 -73.5q0 -58 -85 -102l-10 -5q-60 -31 -94 -247l-3 -20l-64 -421q-31 -205 -63.5 -299.5t-85.5 -156.5q-81 -95 -217 -144t-318 -49q-272 0 -408.5 105.5t-136.5 316.5q0 77 22 241l3 19l49 346q8 57 12 107t4 90q0 51 -9 71.5t-35 40.5l-15 9q-59 35 -59 77 q0 63 72 91t237 28q209 0 272.5 -21t63.5 -77q0 -59 -86 -103l-7 -4q-38 -19 -58.5 -70.5t-47.5 -230.5zM993 1855l-32 -47q-123 -180 -212 -180q-46 0 -68 8t-22 24q0 12 42 66l4 5l188 237q14 17 32 23.5t66 6.5q64 0 85 -7.5t40 -45.5l119 -244q1 -2 4 -7q10 -19 10 -34 q0 -16 -16.5 -23t-59.5 -7q-83 0 -147 149z" />
<glyph unicode="&#xdc;" horiz-adv-x="1565" d="M500 599q-10 -61 -14.5 -105.5t-4.5 -77.5q0 -129 76 -196.5t219 -67.5q104 0 178.5 36.5t124.5 112.5q25 39 45.5 121t40.5 231l54 377q6 43 9 88.5t3 91.5q0 37 -10.5 56.5t-46.5 42.5q-31 20 -42.5 36.5t-11.5 38.5q0 60 61 87.5t193 27.5q149 0 200.5 -20.5 t51.5 -73.5q0 -58 -85 -102l-10 -5q-60 -31 -94 -247l-3 -20l-64 -421q-31 -205 -63.5 -299.5t-85.5 -156.5q-81 -95 -217 -144t-318 -49q-272 0 -408.5 105.5t-136.5 316.5q0 77 22 241l3 19l49 346q8 57 12 107t4 90q0 51 -9 71.5t-35 40.5l-15 9q-59 35 -59 77 q0 63 72 91t237 28q209 0 272.5 -21t63.5 -77q0 -59 -86 -103l-7 -4q-38 -19 -58.5 -70.5t-47.5 -230.5zM1157 1658q-48 0 -79.5 34.5t-31.5 86.5q0 65 45 112.5t107 47.5q52 0 82.5 -33t30.5 -90q0 -71 -42.5 -114.5t-111.5 -43.5zM733 1658q-51 0 -83 34t-32 87 q0 66 44 114t106 48q51 0 83 -34t32 -89q0 -69 -43 -114.5t-107 -45.5z" />
<glyph unicode="&#xdd;" horiz-adv-x="1341" d="M485 686l-219 455q-25 51 -50.5 86t-49.5 51q-14 9 -45 22q-74 31 -74 80q0 64 88.5 93.5t282.5 29.5q154 0 212 -22t58 -76q0 -16 -8 -32t-20 -25q-10 -7 -26 -17q-42 -25 -42 -49q0 -10 4 -22.5t18 -40.5l160 -338l211 309q20 29 31.5 52.5t11.5 33.5q0 18 -38 49.5 t-38 63.5q0 59 67.5 86.5t215.5 27.5q122 0 177.5 -23.5t55.5 -74.5t-116 -101l-27 -12q-55 -25 -101 -64t-83 -93l-315 -448l-16 -172q-22 -239 -22 -265q0 -29 8.5 -43t39.5 -29q6 -3 19 -9q42 -18 42 -69q0 -63 -66.5 -86.5t-302.5 -23.5q-160 0 -216 20t-56 72 q0 69 80 102q20 8 29 13q51 25 99 349zM692 1642q-21 -6 -39 -9t-28 -3q-34 0 -53 28t-19 78q0 23 17.5 39.5t80.5 44.5l326 135q28 11 43 15t25 4q29 0 52 -49.5t23 -114.5q0 -27 -14.5 -41t-54.5 -25z" />
<glyph unicode="&#xde;" horiz-adv-x="1331" d="M555 817l-33 -241q42 -4 74 -5.5t53 -1.5q148 0 225.5 58.5t77.5 171.5q0 90 -58.5 135t-176.5 45q-92 0 -120.5 -30.5t-41.5 -131.5zM606 1151q48 3 91 4.5t83 1.5q281 0 405 -81.5t124 -264.5q0 -206 -165 -315t-476 -109q-13 0 -48 2t-57 2q-44 0 -57.5 -22.5 t-13.5 -126.5q0 -25 6 -35.5t23 -16.5q1 0 6 -2q81 -31 81 -88q0 -61 -80.5 -85.5t-304.5 -24.5q-170 0 -226 20t-56 72q0 26 10 47t29 35q12 8 50.5 22t51.5 33q8 13 17.5 46.5t23.5 99.5q54 273 81 481t27 356v12q0 38 -8 52.5t-30 29.5l-14 9q-60 36 -60 79q0 65 72 93 t239 28q215 0 277.5 -22.5t62.5 -83.5q0 -54 -89 -100l-5 -3q-35 -18 -48 -43.5t-22 -101.5z" />
<glyph unicode="&#xdf;" horiz-adv-x="1139" d="M457 834l-92 -828q-1 -5 -2 -16q-7 -68 -7 -101t6.5 -78.5t6.5 -58.5q0 -80 -95.5 -127t-261.5 -47q-59 0 -87.5 17.5t-28.5 52.5q0 38 43 69t47 37q15 25 46 271l11 90l84 661q36 291 78.5 415.5t116.5 201.5q59 61 147.5 93t198.5 32q185 0 289 -88t104 -244 q0 -130 -77.5 -219t-223.5 -127q148 -31 215 -115.5t67 -241.5q0 -229 -139 -370.5t-366 -141.5q-57 0 -85 17t-28 51q0 51 80 66q31 6 47 12q78 27 111.5 116.5t33.5 276.5q0 96 -16 152.5t-51 80.5q-10 8 -36 19q-63 26 -63 65q0 42 68 70q40 17 59 31q40 29 67.5 110.5 t27.5 175.5q0 83 -28 124.5t-83 41.5q-134 0 -168 -377q-10 -109 -16 -169z" />
<glyph unicode="&#xe0;" horiz-adv-x="1223" d="M1114 981q0 -30 -20 -155q-15 -91 -23 -148q-19 -136 -32 -248t-13 -133q0 -32 10.5 -43.5t38.5 -11.5q5 0 14.5 1t14.5 1q23 0 34 -9.5t11 -29.5q0 -34 -23 -66.5t-69 -62.5q-74 -48 -136 -73.5t-108 -25.5q-32 0 -49 12t-33 48q-14 31 -19.5 70.5t-13.5 39.5 q-9 0 -47 -27q-29 -21 -49 -34q-101 -64 -168 -89.5t-127 -25.5q-134 0 -214.5 98t-80.5 263q0 112 33 222.5t96 209.5q93 147 215 228t248 81q68 0 154 -33.5t104 -33.5q20 0 83 33.5t104 33.5q29 0 47 -25t18 -67zM774 739q0 75 -29 117.5t-79 42.5q-44 0 -85 -25.5 t-81 -78.5q-64 -84 -106 -207.5t-42 -227.5q0 -74 29 -116.5t80 -42.5q42 0 83.5 26.5t82.5 79.5q64 86 105.5 207.5t41.5 224.5zM483 1298q-42 12 -56 25t-14 39q0 65 22.5 115.5t51.5 50.5q10 0 24.5 -4t43.5 -15l325 -137q68 -29 84.5 -45t16.5 -41q0 -48 -19 -76 t-53 -28q-10 0 -28 3t-40 9z" />
<glyph unicode="&#xe1;" horiz-adv-x="1223" d="M1114 981q0 -30 -20 -155q-15 -91 -23 -148q-19 -136 -32 -248t-13 -133q0 -32 10.5 -43.5t38.5 -11.5q5 0 14.5 1t14.5 1q23 0 34 -9.5t11 -29.5q0 -34 -23 -66.5t-69 -62.5q-74 -48 -136 -73.5t-108 -25.5q-32 0 -49 12t-33 48q-14 31 -19.5 70.5t-13.5 39.5 q-9 0 -47 -27q-29 -21 -49 -34q-101 -64 -168 -89.5t-127 -25.5q-134 0 -214.5 98t-80.5 263q0 112 33 222.5t96 209.5q93 147 215 228t248 81q68 0 154 -33.5t104 -33.5q20 0 83 33.5t104 33.5q29 0 47 -25t18 -67zM774 739q0 75 -29 117.5t-79 42.5q-44 0 -85 -25.5 t-81 -78.5q-64 -84 -106 -207.5t-42 -227.5q0 -74 29 -116.5t80 -42.5q42 0 83.5 26.5t82.5 79.5q64 86 105.5 207.5t41.5 224.5zM632 1196q-21 -6 -39 -9t-28 -3q-34 0 -53 28t-19 78q0 23 17.5 39.5t80.5 44.5l326 135q28 11 43 15t25 4q29 0 52 -49.5t23 -114.5 q0 -27 -14.5 -41t-54.5 -25z" />
<glyph unicode="&#xe2;" horiz-adv-x="1223" d="M1114 981q0 -30 -20 -155q-15 -91 -23 -148q-19 -136 -32 -248t-13 -133q0 -32 10.5 -43.5t38.5 -11.5q5 0 14.5 1t14.5 1q23 0 34 -9.5t11 -29.5q0 -34 -23 -66.5t-69 -62.5q-74 -48 -136 -73.5t-108 -25.5q-32 0 -49 12t-33 48q-14 31 -19.5 70.5t-13.5 39.5 q-9 0 -47 -27q-29 -21 -49 -34q-101 -64 -168 -89.5t-127 -25.5q-134 0 -214.5 98t-80.5 263q0 112 33 222.5t96 209.5q93 147 215 228t248 81q68 0 154 -33.5t104 -33.5q20 0 83 33.5t104 33.5q29 0 47 -25t18 -67zM774 739q0 75 -29 117.5t-79 42.5q-44 0 -85 -25.5 t-81 -78.5q-64 -84 -106 -207.5t-42 -227.5q0 -74 29 -116.5t80 -42.5q42 0 83.5 26.5t82.5 79.5q64 86 105.5 207.5t41.5 224.5zM751 1409l-32 -47q-123 -180 -212 -180q-46 0 -68 8t-22 24q0 12 42 66l4 5l188 237q14 17 32 23.5t66 6.5q64 0 85 -7.5t40 -45.5l119 -244 q1 -2 4 -7q10 -19 10 -34q0 -16 -16.5 -23t-59.5 -7q-83 0 -147 149z" />
<glyph unicode="&#xe3;" horiz-adv-x="1223" d="M1114 981q0 -30 -20 -155q-15 -91 -23 -148q-19 -136 -32 -248t-13 -133q0 -32 10.5 -43.5t38.5 -11.5q5 0 14.5 1t14.5 1q23 0 34 -9.5t11 -29.5q0 -34 -23 -66.5t-69 -62.5q-74 -48 -136 -73.5t-108 -25.5q-32 0 -49 12t-33 48q-14 31 -19.5 70.5t-13.5 39.5 q-9 0 -47 -27q-29 -21 -49 -34q-101 -64 -168 -89.5t-127 -25.5q-134 0 -214.5 98t-80.5 263q0 112 33 222.5t96 209.5q93 147 215 228t248 81q68 0 154 -33.5t104 -33.5q20 0 83 33.5t104 33.5q29 0 47 -25t18 -67zM774 739q0 75 -29 117.5t-79 42.5q-44 0 -85 -25.5 t-81 -78.5q-64 -84 -106 -207.5t-42 -227.5q0 -74 29 -116.5t80 -42.5q42 0 83.5 26.5t82.5 79.5q64 86 105.5 207.5t41.5 224.5zM866 1225q-63 0 -173.5 41t-158.5 41q-34 0 -56.5 -17.5t-43.5 -64.5q-9 -18 -18 -23.5t-25 -5.5q-24 0 -42 11.5t-18 27.5q0 26 24 79.5 t60 98.5q34 43 71 63.5t81 20.5t157 -41t181 -41q42 0 65.5 15t42.5 58q10 21 17.5 26t21.5 6q35 0 48.5 -9.5t13.5 -31.5q0 -91 -76.5 -172.5t-171.5 -81.5z" />
<glyph unicode="&#xe4;" horiz-adv-x="1223" d="M1114 981q0 -30 -20 -155q-15 -91 -23 -148q-19 -136 -32 -248t-13 -133q0 -32 10.5 -43.5t38.5 -11.5q5 0 14.5 1t14.5 1q23 0 34 -9.5t11 -29.5q0 -34 -23 -66.5t-69 -62.5q-74 -48 -136 -73.5t-108 -25.5q-32 0 -49 12t-33 48q-14 31 -19.5 70.5t-13.5 39.5 q-9 0 -47 -27q-29 -21 -49 -34q-101 -64 -168 -89.5t-127 -25.5q-134 0 -214.5 98t-80.5 263q0 112 33 222.5t96 209.5q93 147 215 228t248 81q68 0 154 -33.5t104 -33.5q20 0 83 33.5t104 33.5q29 0 47 -25t18 -67zM774 739q0 75 -29 117.5t-79 42.5q-44 0 -85 -25.5 t-81 -78.5q-64 -84 -106 -207.5t-42 -227.5q0 -74 29 -116.5t80 -42.5q42 0 83.5 26.5t82.5 79.5q64 86 105.5 207.5t41.5 224.5zM915 1212q-48 0 -79.5 34.5t-31.5 86.5q0 65 45 112.5t107 47.5q52 0 82.5 -33t30.5 -90q0 -71 -42.5 -114.5t-111.5 -43.5zM491 1212 q-51 0 -83 34t-32 87q0 66 44 114t106 48q51 0 83 -34t32 -89q0 -69 -43 -114.5t-107 -45.5z" />
<glyph unicode="&#xe5;" horiz-adv-x="1223" d="M666 1448q0 -53 34.5 -88t85.5 -35t87 36t36 87q0 50 -36 85.5t-87 35.5q-52 0 -86 -34.5t-34 -86.5zM522 1448q0 111 76.5 187.5t187.5 76.5q112 0 189.5 -76.5t77.5 -187.5q0 -112 -77 -189t-190 -77q-111 0 -187.5 76.5t-76.5 189.5zM1114 981q0 -30 -20 -155 q-15 -91 -23 -148q-19 -136 -32 -248t-13 -133q0 -32 10.5 -43.5t38.5 -11.5q5 0 14.5 1t14.5 1q23 0 34 -9.5t11 -29.5q0 -34 -23 -66.5t-69 -62.5q-74 -48 -136 -73.5t-108 -25.5q-32 0 -49 12t-33 48q-14 31 -19.5 70.5t-13.5 39.5q-9 0 -47 -27q-29 -21 -49 -34 q-101 -64 -168 -89.5t-127 -25.5q-134 0 -214.5 98t-80.5 263q0 112 33 222.5t96 209.5q93 147 215 228t248 81q68 0 154 -33.5t104 -33.5q20 0 83 33.5t104 33.5q29 0 47 -25t18 -67zM774 739q0 75 -29 117.5t-79 42.5q-44 0 -85 -25.5t-81 -78.5q-64 -84 -106 -207.5 t-42 -227.5q0 -74 29 -116.5t80 -42.5q42 0 83.5 26.5t82.5 79.5q64 86 105.5 207.5t41.5 224.5z" />
<glyph unicode="&#xe6;" horiz-adv-x="1810" d="M1325 911q-40 0 -75 -21.5t-68 -68.5q-38 -51 -64 -125t-26 -123q0 -12 16 -20t43 -8q98 0 178 82t80 186q0 50 -20.5 74t-63.5 24zM1033 912q91 80 188 120.5t200 40.5q142 0 223.5 -69.5t81.5 -190.5q0 -183 -169.5 -303.5t-436.5 -120.5h-51q8 -110 60.5 -163.5 t154.5 -53.5q42 0 77.5 11.5t86.5 45.5q27 18 68 51t55 33q25 0 49.5 -25.5t24.5 -54.5q0 -23 -16.5 -49t-47.5 -51q-101 -79 -211.5 -120.5t-222.5 -41.5q-138 0 -233 61.5t-146 184.5q-120 -119 -237 -182.5t-214 -63.5q-132 0 -211 98t-79 263q0 113 31 222.5t92 209.5 q89 148 205 228.5t239 80.5q68 0 144.5 -31.5t84.5 -31.5q16 0 69.5 35.5t90.5 35.5q27 0 39 -26.5t12 -83.5q0 -23 -0.5 -35.5t-0.5 -23.5zM788 739q0 75 -29.5 117.5t-80.5 42.5q-43 0 -83 -25.5t-81 -78.5q-64 -84 -105.5 -207.5t-41.5 -227.5q0 -74 29 -116.5t79 -42.5 q42 0 83.5 26.5t82.5 79.5q65 86 106 207.5t41 224.5z" />
<glyph unicode="&#xe7;" horiz-adv-x="1063" d="M14 383q0 135 52 262t147 223q95 97 222 151t257 54q141 0 227.5 -70t86.5 -184q0 -86 -46 -137t-122 -51q-71 0 -106.5 34t-35.5 103q0 12 3 36.5t3 37.5q0 30 -19 49.5t-48 19.5q-104 0 -178 -135.5t-74 -339.5q0 -135 47.5 -199.5t147.5 -64.5q39 0 75.5 12.5 t87.5 44.5q28 18 70 51t57 33q26 0 51 -25.5t25 -54.5q0 -25 -16.5 -50.5t-48.5 -49.5q-105 -80 -218 -121t-231 -41q-194 0 -305 109.5t-111 302.5zM316 0h100q-5 -30 -8.5 -61t-5.5 -61q30 5 52 8t38 3q83 0 135.5 -44.5t52.5 -114.5q0 -84 -71 -133.5t-195 -49.5 q-119 0 -199.5 32.5t-80.5 78.5q0 24 14 39.5t35 15.5q3 0 68 -27.5t137 -27.5q53 0 79.5 17t26.5 51q0 32 -19 48.5t-57 16.5q-23 0 -54 -2t-40 -2q-20 0 -28.5 10.5t-8.5 36.5q0 30 25 148z" />
<glyph unicode="&#xe8;" horiz-adv-x="1104" d="M385 389q8 -111 55 -164t138 -53q39 0 75.5 12.5t87.5 44.5q28 18 70 51t57 33q26 0 51 -25.5t25 -54.5q0 -25 -16.5 -50.5t-48.5 -49.5q-105 -80 -218 -121t-231 -41q-193 0 -304.5 109t-111.5 297q0 147 60 283.5t168 234.5q90 82 215.5 130t251.5 48 q150 0 235.5 -69.5t85.5 -190.5q0 -180 -173.5 -302t-442.5 -122h-29zM616 911q-38 0 -71.5 -21.5t-67.5 -68.5q-36 -51 -61 -124t-25 -122q0 -13 16.5 -21.5t41.5 -8.5q94 0 172.5 82.5t78.5 185.5q0 49 -21 73.5t-63 24.5zM406 1298q-42 12 -56 25t-14 39q0 65 22.5 115.5 t51.5 50.5q10 0 24.5 -4t43.5 -15l325 -137q68 -29 84.5 -45t16.5 -41q0 -48 -19 -76t-53 -28q-10 0 -28 3t-40 9z" />
<glyph unicode="&#xe9;" horiz-adv-x="1104" d="M385 389q8 -111 55 -164t138 -53q39 0 75.5 12.5t87.5 44.5q28 18 70 51t57 33q26 0 51 -25.5t25 -54.5q0 -25 -16.5 -50.5t-48.5 -49.5q-105 -80 -218 -121t-231 -41q-193 0 -304.5 109t-111.5 297q0 147 60 283.5t168 234.5q90 82 215.5 130t251.5 48 q150 0 235.5 -69.5t85.5 -190.5q0 -180 -173.5 -302t-442.5 -122h-29zM616 911q-38 0 -71.5 -21.5t-67.5 -68.5q-36 -51 -61 -124t-25 -122q0 -13 16.5 -21.5t41.5 -8.5q94 0 172.5 82.5t78.5 185.5q0 49 -21 73.5t-63 24.5zM555 1196q-21 -6 -39 -9t-28 -3q-34 0 -53 28 t-19 78q0 23 17.5 39.5t80.5 44.5l326 135q28 11 43 15t25 4q29 0 52 -49.5t23 -114.5q0 -27 -14.5 -41t-54.5 -25z" />
<glyph unicode="&#xea;" horiz-adv-x="1104" d="M385 389q8 -111 55 -164t138 -53q39 0 75.5 12.5t87.5 44.5q28 18 70 51t57 33q26 0 51 -25.5t25 -54.5q0 -25 -16.5 -50.5t-48.5 -49.5q-105 -80 -218 -121t-231 -41q-193 0 -304.5 109t-111.5 297q0 147 60 283.5t168 234.5q90 82 215.5 130t251.5 48 q150 0 235.5 -69.5t85.5 -190.5q0 -180 -173.5 -302t-442.5 -122h-29zM616 911q-38 0 -71.5 -21.5t-67.5 -68.5q-36 -51 -61 -124t-25 -122q0 -13 16.5 -21.5t41.5 -8.5q94 0 172.5 82.5t78.5 185.5q0 49 -21 73.5t-63 24.5zM674 1409l-32 -47q-123 -180 -212 -180 q-46 0 -68 8t-22 24q0 12 42 66l4 5l188 237q14 17 32 23.5t66 6.5q64 0 85 -7.5t40 -45.5l119 -244q1 -2 4 -7q10 -19 10 -34q0 -16 -16.5 -23t-59.5 -7q-83 0 -147 149z" />
<glyph unicode="&#xeb;" horiz-adv-x="1104" d="M385 389q8 -111 55 -164t138 -53q39 0 75.5 12.5t87.5 44.5q28 18 70 51t57 33q26 0 51 -25.5t25 -54.5q0 -25 -16.5 -50.5t-48.5 -49.5q-105 -80 -218 -121t-231 -41q-193 0 -304.5 109t-111.5 297q0 147 60 283.5t168 234.5q90 82 215.5 130t251.5 48 q150 0 235.5 -69.5t85.5 -190.5q0 -180 -173.5 -302t-442.5 -122h-29zM616 911q-38 0 -71.5 -21.5t-67.5 -68.5q-36 -51 -61 -124t-25 -122q0 -13 16.5 -21.5t41.5 -8.5q94 0 172.5 82.5t78.5 185.5q0 49 -21 73.5t-63 24.5zM838 1212q-48 0 -79.5 34.5t-31.5 86.5 q0 65 45 112.5t107 47.5q52 0 82.5 -33t30.5 -90q0 -71 -42.5 -114.5t-111.5 -43.5zM414 1212q-51 0 -83 34t-32 87q0 66 44 114t106 48q51 0 83 -34t32 -89q0 -69 -43 -114.5t-107 -45.5z" />
<glyph unicode="&#xec;" horiz-adv-x="612" d="M41 63q0 31 32 195l25 131q20 109 30.5 193t10.5 127q0 51 -11.5 71t-51.5 31q-3 1 -7 2q-83 25 -83 68q0 31 35 59.5t108 56.5q92 36 177.5 56t139.5 20q30 0 49 -21t19 -55q0 -19 -18.5 -127t-30.5 -192q-22 -149 -34.5 -251.5t-12.5 -129.5q0 -33 10.5 -43t40.5 -10 q4 0 13.5 1t13.5 1q36 0 53.5 -13t17.5 -38q0 -32 -25.5 -63.5t-74.5 -61.5q-75 -45 -162.5 -72t-157.5 -27q-55 0 -80.5 22.5t-25.5 69.5zM131 1298q-42 12 -56 25t-14 39q0 65 22.5 115.5t51.5 50.5q10 0 24.5 -4t43.5 -15l325 -137q68 -29 84.5 -45t16.5 -41 q0 -48 -19 -76t-53 -28q-10 0 -28 3t-40 9z" />
<glyph unicode="&#xed;" horiz-adv-x="612" d="M41 63q0 31 32 195l25 131q20 109 30.5 193t10.5 127q0 51 -11.5 71t-51.5 31q-3 1 -7 2q-83 25 -83 68q0 31 35 59.5t108 56.5q92 36 177.5 56t139.5 20q30 0 49 -21t19 -55q0 -19 -18.5 -127t-30.5 -192q-22 -149 -34.5 -251.5t-12.5 -129.5q0 -33 10.5 -43t40.5 -10 q4 0 13.5 1t13.5 1q36 0 53.5 -13t17.5 -38q0 -32 -25.5 -63.5t-74.5 -61.5q-75 -45 -162.5 -72t-157.5 -27q-55 0 -80.5 22.5t-25.5 69.5zM280 1196q-21 -6 -39 -9t-28 -3q-34 0 -53 28t-19 78q0 23 17.5 39.5t80.5 44.5l326 135q28 11 43 15t25 4q29 0 52 -49.5t23 -114.5 q0 -27 -14.5 -41t-54.5 -25z" />
<glyph unicode="&#xee;" horiz-adv-x="612" d="M41 63q0 31 32 195l25 131q20 109 30.5 193t10.5 127q0 51 -11.5 71t-51.5 31q-3 1 -7 2q-83 25 -83 68q0 31 35 59.5t108 56.5q92 36 177.5 56t139.5 20q30 0 49 -21t19 -55q0 -19 -18.5 -127t-30.5 -192q-22 -149 -34.5 -251.5t-12.5 -129.5q0 -33 10.5 -43t40.5 -10 q4 0 13.5 1t13.5 1q36 0 53.5 -13t17.5 -38q0 -32 -25.5 -63.5t-74.5 -61.5q-75 -45 -162.5 -72t-157.5 -27q-55 0 -80.5 22.5t-25.5 69.5zM399 1409l-32 -47q-123 -180 -212 -180q-46 0 -68 8t-22 24q0 12 42 66l4 5l188 237q14 17 32 23.5t66 6.5q64 0 85 -7.5t40 -45.5 l119 -244q1 -2 4 -7q10 -19 10 -34q0 -16 -16.5 -23t-59.5 -7q-83 0 -147 149z" />
<glyph unicode="&#xef;" horiz-adv-x="612" d="M41 63q0 31 32 195l25 131q20 109 30.5 193t10.5 127q0 51 -11.5 71t-51.5 31q-3 1 -7 2q-83 25 -83 68q0 31 35 59.5t108 56.5q92 36 177.5 56t139.5 20q30 0 49 -21t19 -55q0 -19 -18.5 -127t-30.5 -192q-22 -149 -34.5 -251.5t-12.5 -129.5q0 -33 10.5 -43t40.5 -10 q4 0 13.5 1t13.5 1q36 0 53.5 -13t17.5 -38q0 -32 -25.5 -63.5t-74.5 -61.5q-75 -45 -162.5 -72t-157.5 -27q-55 0 -80.5 22.5t-25.5 69.5zM563 1212q-48 0 -79.5 34.5t-31.5 86.5q0 65 45 112.5t107 47.5q52 0 82.5 -33t30.5 -90q0 -71 -42.5 -114.5t-111.5 -43.5z M139 1212q-51 0 -83 34t-32 87q0 66 44 114t106 48q51 0 83 -34t32 -89q0 -69 -43 -114.5t-107 -45.5z" />
<glyph unicode="&#xf0;" horiz-adv-x="1090" d="M545 801q-76 0 -134.5 -120t-58.5 -290q0 -124 31.5 -193t87.5 -69q79 0 136 122.5t57 307.5q0 113 -32 177.5t-87 64.5zM949 1350q5 1 13 3q22 5 27 5q30 0 48 -20.5t18 -53.5q0 -25 -17 -41.5t-53 -25.5l-186 -52q107 -128 160 -267t53 -290q0 -90 -19.5 -173 t-56.5 -152q-79 -148 -212 -230t-294 -82q-186 0 -302 115t-116 299q0 103 42 198.5t124 178.5q81 80 181.5 126t195.5 46q28 0 55 -3.5t53 -10.5q-19 47 -44.5 92t-59.5 90l-252 -66q-14 -3 -23.5 -4.5t-15.5 -1.5q-31 0 -49 20t-18 54q0 25 17.5 41.5t53.5 25.5l199 52 q-35 46 -94 112q-74 82 -74 113t22 50.5t58 19.5q37 0 117 -61t192 -175z" />
<glyph unicode="&#xf1;" horiz-adv-x="1251" d="M436 967q7 -36 12.5 -50t12.5 -14q6 0 46.5 30t78.5 50q74 39 143 58.5t131 19.5q127 0 188.5 -72t61.5 -219q0 -109 -28.5 -268t-28.5 -205q0 -32 10.5 -43.5t38.5 -11.5q5 0 15 1t16 1q22 0 32.5 -9.5t10.5 -29.5q0 -36 -25 -69.5t-74 -65.5q-70 -46 -146 -72.5 t-138 -26.5q-67 0 -91 19.5t-24 72.5q0 33 28 180q4 21 7 34q33 174 46 265.5t13 141.5q0 68 -22.5 99.5t-71.5 31.5q-109 0 -166.5 -115t-83.5 -397q-2 -21 -5 -59q-11 -150 -38 -183q-25 -28 -105.5 -54.5t-156.5 -26.5q-46 0 -65 15t-19 50q0 38 32 204q18 89 27 142 q24 128 36.5 221.5t12.5 137.5q0 56 -62 63h-3l-12 3q-80 21 -80 58q0 21 15 40t46 38q21 13 51 26.5t82 33.5q63 22 116.5 35.5t78.5 13.5q18 0 31.5 -12.5t17.5 -32.5zM805 1225q-63 0 -173.5 41t-158.5 41q-34 0 -56.5 -17.5t-43.5 -64.5q-9 -18 -18 -23.5t-25 -5.5 q-24 0 -42 11.5t-18 27.5q0 26 24 79.5t60 98.5q34 43 71 63.5t81 20.5t157 -41t181 -41q42 0 65.5 15t42.5 58q10 21 17.5 26t21.5 6q35 0 48.5 -9.5t13.5 -31.5q0 -91 -76.5 -172.5t-171.5 -81.5z" />
<glyph unicode="&#xf2;" horiz-adv-x="1180" d="M608 909q-92 0 -161.5 -137t-69.5 -334q0 -143 38 -223t105 -80q95 0 162.5 142t67.5 356q0 128 -38.5 202t-103.5 74zM12 430q0 125 46 233.5t139 204.5q94 98 214 151.5t244 53.5q209 0 334 -123t125 -329q0 -121 -46 -236.5t-132 -208.5q-90 -99 -208 -152t-251 -53 q-204 0 -334.5 129.5t-130.5 329.5zM414 1298q-42 12 -56 25t-14 39q0 65 22.5 115.5t51.5 50.5q10 0 24.5 -4t43.5 -15l325 -137q68 -29 84.5 -45t16.5 -41q0 -48 -19 -76t-53 -28q-10 0 -28 3t-40 9z" />
<glyph unicode="&#xf3;" horiz-adv-x="1180" d="M608 909q-92 0 -161.5 -137t-69.5 -334q0 -143 38 -223t105 -80q95 0 162.5 142t67.5 356q0 128 -38.5 202t-103.5 74zM12 430q0 125 46 233.5t139 204.5q94 98 214 151.5t244 53.5q209 0 334 -123t125 -329q0 -121 -46 -236.5t-132 -208.5q-90 -99 -208 -152t-251 -53 q-204 0 -334.5 129.5t-130.5 329.5zM563 1196q-21 -6 -39 -9t-28 -3q-34 0 -53 28t-19 78q0 23 17.5 39.5t80.5 44.5l326 135q28 11 43 15t25 4q29 0 52 -49.5t23 -114.5q0 -27 -14.5 -41t-54.5 -25z" />
<glyph unicode="&#xf4;" horiz-adv-x="1180" d="M608 909q-92 0 -161.5 -137t-69.5 -334q0 -143 38 -223t105 -80q95 0 162.5 142t67.5 356q0 128 -38.5 202t-103.5 74zM12 430q0 125 46 233.5t139 204.5q94 98 214 151.5t244 53.5q209 0 334 -123t125 -329q0 -121 -46 -236.5t-132 -208.5q-90 -99 -208 -152t-251 -53 q-204 0 -334.5 129.5t-130.5 329.5zM682 1409l-32 -47q-123 -180 -212 -180q-46 0 -68 8t-22 24q0 12 42 66l4 5l188 237q14 17 32 23.5t66 6.5q64 0 85 -7.5t40 -45.5l119 -244q1 -2 4 -7q10 -19 10 -34q0 -16 -16.5 -23t-59.5 -7q-83 0 -147 149z" />
<glyph unicode="&#xf5;" horiz-adv-x="1180" d="M608 909q-92 0 -161.5 -137t-69.5 -334q0 -143 38 -223t105 -80q95 0 162.5 142t67.5 356q0 128 -38.5 202t-103.5 74zM12 430q0 125 46 233.5t139 204.5q94 98 214 151.5t244 53.5q209 0 334 -123t125 -329q0 -121 -46 -236.5t-132 -208.5q-90 -99 -208 -152t-251 -53 q-204 0 -334.5 129.5t-130.5 329.5zM797 1225q-63 0 -173.5 41t-158.5 41q-34 0 -56.5 -17.5t-43.5 -64.5q-9 -18 -18 -23.5t-25 -5.5q-24 0 -42 11.5t-18 27.5q0 26 24 79.5t60 98.5q34 43 71 63.5t81 20.5t157 -41t181 -41q42 0 65.5 15t42.5 58q10 21 17.5 26t21.5 6 q35 0 48.5 -9.5t13.5 -31.5q0 -91 -76.5 -172.5t-171.5 -81.5z" />
<glyph unicode="&#xf6;" horiz-adv-x="1180" d="M608 909q-92 0 -161.5 -137t-69.5 -334q0 -143 38 -223t105 -80q95 0 162.5 142t67.5 356q0 128 -38.5 202t-103.5 74zM12 430q0 125 46 233.5t139 204.5q94 98 214 151.5t244 53.5q209 0 334 -123t125 -329q0 -121 -46 -236.5t-132 -208.5q-90 -99 -208 -152t-251 -53 q-204 0 -334.5 129.5t-130.5 329.5zM846 1212q-48 0 -79.5 34.5t-31.5 86.5q0 65 45 112.5t107 47.5q52 0 82.5 -33t30.5 -90q0 -71 -42.5 -114.5t-111.5 -43.5zM422 1212q-51 0 -83 34t-32 87q0 66 44 114t106 48q51 0 83 -34t32 -89q0 -69 -43 -114.5t-107 -45.5z" />
<glyph unicode="&#xf7;" horiz-adv-x="1706" d="M854 371q68 0 116 -48.5t48 -117.5q0 -68 -47.5 -116t-116.5 -48t-117.5 48t-48.5 116t49 117t117 49zM254 727h1198v-231h-1198v231zM854 1182q67 0 115.5 -49t48.5 -117t-48.5 -116t-117.5 -48t-116.5 48t-47.5 116t49 117t117 49z" />
<glyph unicode="&#xf8;" horiz-adv-x="1180" d="M887 1018l108 129q33 39 55 51t50 12t45.5 -16.5t17.5 -42.5q0 -24 -33 -63q-4 -5 -6 -7l-120 -143q54 -59 82 -139t28 -176q0 -78 -19 -154t-55 -143q-94 -173 -238.5 -264t-324.5 -91q-52 0 -110.5 12.5t-120.5 36.5l-111 -131q-34 -41 -55.5 -53t-48.5 -12 q-28 0 -47 17t-19 42q0 23 31 58l10 12l135 160q-64 56 -96.5 136t-32.5 181q0 125 46 233.5t139 204.5q95 99 216 152t249 53q57 0 113 -13.5t112 -41.5zM750 647l-336 -405q12 -51 40.5 -79t67.5 -28q97 0 160 140t68 372zM381 385l344 416q-18 52 -48.5 80t-68.5 28 q-97 0 -162 -140.5t-65 -365.5v-18z" />
<glyph unicode="&#xf9;" horiz-adv-x="1251" d="M733 156q-89 -85 -200.5 -133t-217.5 -48q-119 0 -183 71.5t-64 205.5q0 97 32.5 268.5t32.5 239.5q0 25 -8 35.5t-37 21.5l-15 6q-55 20 -55 60q0 30 27 53.5t90 48.5q111 44 175 63t98 19q47 0 69.5 -25.5t22.5 -80.5q0 -76 -45 -282.5t-45 -326.5q0 -70 21 -101.5 t69 -31.5q109 0 166 112.5t90 418.5q3 28 7 79q9 119 34 148t105 55.5t157 26.5q45 0 64.5 -15.5t19.5 -50.5q0 -21 -19.5 -138.5t-31.5 -203.5q-18 -123 -28.5 -224t-10.5 -130q0 -32 10.5 -43.5t38.5 -11.5q5 0 15 1t16 1q22 0 32.5 -9.5t10.5 -29.5q0 -35 -22.5 -67 t-68.5 -62q-76 -50 -138 -75.5t-107 -25.5q-47 0 -69 34t-38 147zM451 1298q-42 12 -56 25t-14 39q0 65 22.5 115.5t51.5 50.5q10 0 24.5 -4t43.5 -15l325 -137q68 -29 84.5 -45t16.5 -41q0 -48 -19 -76t-53 -28q-10 0 -28 3t-40 9z" />
<glyph unicode="&#xfa;" horiz-adv-x="1251" d="M733 156q-89 -85 -200.5 -133t-217.5 -48q-119 0 -183 71.5t-64 205.5q0 97 32.5 268.5t32.5 239.5q0 25 -8 35.5t-37 21.5l-15 6q-55 20 -55 60q0 30 27 53.5t90 48.5q111 44 175 63t98 19q47 0 69.5 -25.5t22.5 -80.5q0 -76 -45 -282.5t-45 -326.5q0 -70 21 -101.5 t69 -31.5q109 0 166 112.5t90 418.5q3 28 7 79q9 119 34 148t105 55.5t157 26.5q45 0 64.5 -15.5t19.5 -50.5q0 -21 -19.5 -138.5t-31.5 -203.5q-18 -123 -28.5 -224t-10.5 -130q0 -32 10.5 -43.5t38.5 -11.5q5 0 15 1t16 1q22 0 32.5 -9.5t10.5 -29.5q0 -35 -22.5 -67 t-68.5 -62q-76 -50 -138 -75.5t-107 -25.5q-47 0 -69 34t-38 147zM600 1196q-21 -6 -39 -9t-28 -3q-34 0 -53 28t-19 78q0 23 17.5 39.5t80.5 44.5l326 135q28 11 43 15t25 4q29 0 52 -49.5t23 -114.5q0 -27 -14.5 -41t-54.5 -25z" />
<glyph unicode="&#xfb;" horiz-adv-x="1251" d="M733 156q-89 -85 -200.5 -133t-217.5 -48q-119 0 -183 71.5t-64 205.5q0 97 32.5 268.5t32.5 239.5q0 25 -8 35.5t-37 21.5l-15 6q-55 20 -55 60q0 30 27 53.5t90 48.5q111 44 175 63t98 19q47 0 69.5 -25.5t22.5 -80.5q0 -76 -45 -282.5t-45 -326.5q0 -70 21 -101.5 t69 -31.5q109 0 166 112.5t90 418.5q3 28 7 79q9 119 34 148t105 55.5t157 26.5q45 0 64.5 -15.5t19.5 -50.5q0 -21 -19.5 -138.5t-31.5 -203.5q-18 -123 -28.5 -224t-10.5 -130q0 -32 10.5 -43.5t38.5 -11.5q5 0 15 1t16 1q22 0 32.5 -9.5t10.5 -29.5q0 -35 -22.5 -67 t-68.5 -62q-76 -50 -138 -75.5t-107 -25.5q-47 0 -69 34t-38 147zM719 1409l-32 -47q-123 -180 -212 -180q-46 0 -68 8t-22 24q0 12 42 66l4 5l188 237q14 17 32 23.5t66 6.5q64 0 85 -7.5t40 -45.5l119 -244q1 -2 4 -7q10 -19 10 -34q0 -16 -16.5 -23t-59.5 -7 q-83 0 -147 149z" />
<glyph unicode="&#xfc;" horiz-adv-x="1251" d="M733 156q-89 -85 -200.5 -133t-217.5 -48q-119 0 -183 71.5t-64 205.5q0 97 32.5 268.5t32.5 239.5q0 25 -8 35.5t-37 21.5l-15 6q-55 20 -55 60q0 30 27 53.5t90 48.5q111 44 175 63t98 19q47 0 69.5 -25.5t22.5 -80.5q0 -76 -45 -282.5t-45 -326.5q0 -70 21 -101.5 t69 -31.5q109 0 166 112.5t90 418.5q3 28 7 79q9 119 34 148t105 55.5t157 26.5q45 0 64.5 -15.5t19.5 -50.5q0 -21 -19.5 -138.5t-31.5 -203.5q-18 -123 -28.5 -224t-10.5 -130q0 -32 10.5 -43.5t38.5 -11.5q5 0 15 1t16 1q22 0 32.5 -9.5t10.5 -29.5q0 -35 -22.5 -67 t-68.5 -62q-76 -50 -138 -75.5t-107 -25.5q-47 0 -69 34t-38 147zM883 1212q-48 0 -79.5 34.5t-31.5 86.5q0 65 45 112.5t107 47.5q52 0 82.5 -33t30.5 -90q0 -71 -42.5 -114.5t-111.5 -43.5zM459 1212q-51 0 -83 34t-32 87q0 66 44 114t106 48q51 0 83 -34t32 -89 q0 -69 -43 -114.5t-107 -45.5z" />
<glyph unicode="&#xfd;" horiz-adv-x="1161" d="M705 154q68 132 100.5 245.5t32.5 221.5q0 90 -53.5 200t-53.5 137q0 46 40.5 75.5t102.5 29.5q81 0 123.5 -76.5t42.5 -222.5q0 -163 -51 -344t-143 -344q-136 -239 -313 -369.5t-365 -130.5q-141 0 -222 65.5t-81 178.5q0 75 43.5 125.5t105.5 50.5t99 -38.5t37 -102.5 q0 -14 -3.5 -39.5t-3.5 -38.5q0 -18 18 -30.5t44 -12.5q87 0 156 73t69 168q0 70 -48.5 230.5t-129.5 347.5q-61 142 -95.5 182.5t-78.5 40.5q-6 0 -19 -2t-22 -2q-27 0 -43.5 12.5t-16.5 32.5q0 37 31 78.5t88 81.5q54 39 115 61.5t108 22.5q86 0 182 -225.5t204 -681.5z M555 1196q-21 -6 -39 -9t-28 -3q-34 0 -53 28t-19 78q0 23 17.5 39.5t80.5 44.5l326 135q28 11 43 15t25 4q29 0 52 -49.5t23 -114.5q0 -27 -14.5 -41t-54.5 -25z" />
<glyph unicode="&#xfe;" horiz-adv-x="1247" d="M821 662q0 81 -30.5 127.5t-83.5 46.5q-45 0 -87 -29t-79 -84q-53 -78 -86 -191t-33 -217q0 -82 30.5 -128t84.5 -46q43 0 85 29.5t80 85.5q54 77 86.5 188.5t32.5 217.5zM133 590q29 205 44.5 348.5t15.5 202.5q0 61 -11.5 81.5t-50.5 32.5q-2 1 -8 3q-80 24 -80 69 q0 30 32.5 56.5t106.5 56.5q96 37 182 58.5t138 21.5q31 0 48 -21t17 -57q0 -25 -18 -161l-2 -17l-51 -361l14 -8q79 89 170 134.5t186 45.5q139 0 220 -101.5t81 -277.5q0 -125 -31.5 -237t-93.5 -209q-85 -134 -193.5 -208.5t-219.5 -74.5q-91 0 -202 60q-29 16 -36 16 q-8 0 -12.5 -8t-7.5 -28l-15 -96q-3 -21 -4.5 -38.5t-1.5 -34.5t8.5 -33.5t20.5 -21.5q5 -2 14 -6q86 -35 86 -80q0 -49 -72.5 -71.5t-230.5 -22.5q-164 0 -224.5 21t-60.5 73q0 46 65 79q27 14 38 23q31 26 61 231l2 17z" />
<glyph unicode="&#xff;" horiz-adv-x="1161" d="M705 154q68 132 100.5 245.5t32.5 221.5q0 90 -53.5 200t-53.5 137q0 46 40.5 75.5t102.5 29.5q81 0 123.5 -76.5t42.5 -222.5q0 -163 -51 -344t-143 -344q-136 -239 -313 -369.5t-365 -130.5q-141 0 -222 65.5t-81 178.5q0 75 43.5 125.5t105.5 50.5t99 -38.5t37 -102.5 q0 -14 -3.5 -39.5t-3.5 -38.5q0 -18 18 -30.5t44 -12.5q87 0 156 73t69 168q0 70 -48.5 230.5t-129.5 347.5q-61 142 -95.5 182.5t-78.5 40.5q-6 0 -19 -2t-22 -2q-27 0 -43.5 12.5t-16.5 32.5q0 37 31 78.5t88 81.5q54 39 115 61.5t108 22.5q86 0 182 -225.5t204 -681.5z M838 1212q-48 0 -79.5 34.5t-31.5 86.5q0 65 45 112.5t107 47.5q52 0 82.5 -33t30.5 -90q0 -71 -42.5 -114.5t-111.5 -43.5zM414 1212q-51 0 -83 34t-32 87q0 66 44 114t106 48q51 0 83 -34t32 -89q0 -69 -43 -114.5t-107 -45.5z" />
<glyph unicode="&#x131;" horiz-adv-x="612" d="M41 63q0 31 32 195l25 131q20 109 30.5 193t10.5 127q0 51 -11.5 71t-51.5 31q-3 1 -7 2q-83 25 -83 68q0 31 35 59.5t108 56.5q92 36 177.5 56t139.5 20q30 0 49 -21t19 -55q0 -19 -18.5 -127t-30.5 -192q-22 -149 -34.5 -251.5t-12.5 -129.5q0 -33 10.5 -43t40.5 -10 q4 0 13.5 1t13.5 1q36 0 53.5 -13t17.5 -38q0 -32 -25.5 -63.5t-74.5 -61.5q-75 -45 -162.5 -72t-157.5 -27q-55 0 -80.5 22.5t-25.5 69.5z" />
<glyph unicode="&#x152;" horiz-adv-x="2314" d="M1223 0q-151 0 -316 -14.5t-182 -14.5q-304 0 -488 183t-184 485q0 204 76.5 375t222.5 293q120 100 268.5 154.5t305.5 54.5q43 0 209.5 -11.5t287.5 -11.5h600q54 0 111 10t61 10q30 0 49.5 -17t36.5 -60q22 -52 35 -104.5t13 -88.5q0 -52 -23.5 -81t-64.5 -29 q-28 0 -48 13.5t-51 61.5q-37 57 -73 76t-97 19h-217q-68 0 -99.5 -17t-49.5 -63q-23 -54 -40.5 -145.5t-17.5 -164.5q0 -24 10.5 -30t47.5 -6h127q66 0 89.5 15.5t45.5 59.5q9 19 21 61q28 95 87 95q38 0 53 -19t15 -69q0 -127 -19 -251t-53 -220q-17 -47 -35.5 -63.5 t-50.5 -16.5q-34 0 -50.5 17t-16.5 51q-2 108 -23.5 133.5t-77.5 25.5h-147q-24 0 -36 -7t-17 -23q-16 -50 -28.5 -155t-12.5 -212q0 -60 37.5 -82t148.5 -22h119q95 0 149 22t103 78q12 14 38 63.5t48 78.5q15 19 34 29.5t39 10.5q34 0 52 -20.5t18 -59.5 q0 -63 -27.5 -157.5t-74.5 -188.5q-20 -40 -41 -61t-41 -21q-1 0 -55.5 15.5t-116.5 15.5h-684zM801 141q209 0 302 191t93 620q0 215 -61.5 304.5t-206.5 89.5q-223 0 -348 -193t-125 -539q0 -225 90.5 -349t255.5 -124z" />
<glyph unicode="&#x153;" horiz-adv-x="1767" d="M1290 909q-39 0 -72.5 -21t-66.5 -67q-37 -52 -62.5 -125t-25.5 -121q0 -13 16 -21.5t41 -8.5q95 0 174.5 82.5t79.5 185.5q0 48 -21 72t-63 24zM965 905q81 84 183.5 126t227.5 42q154 0 240 -68.5t86 -191.5q0 -180 -174 -302t-443 -122h-28q7 -111 54.5 -164 t137.5 -53q40 0 78 13t88 44q28 18 70 51t57 33q26 0 50 -25.5t24 -54.5q0 -25 -16.5 -50.5t-49.5 -49.5q-105 -81 -217 -121.5t-231 -40.5q-103 0 -177 34.5t-120 103.5q-71 -68 -156.5 -103t-181.5 -35q-197 0 -323 129t-126 330q0 126 44 234.5t133 203.5 q89 97 203.5 151t230.5 54q102 0 186 -42t150 -126zM594 909q-89 0 -156 -137.5t-67 -335.5q0 -142 36 -221.5t101 -79.5q92 0 156.5 141t64.5 355q0 130 -36 204t-99 74z" />
<glyph unicode="&#x178;" horiz-adv-x="1341" d="M485 686l-219 455q-25 51 -50.5 86t-49.5 51q-14 9 -45 22q-74 31 -74 80q0 64 88.5 93.5t282.5 29.5q154 0 212 -22t58 -76q0 -16 -8 -32t-20 -25q-10 -7 -26 -17q-42 -25 -42 -49q0 -10 4 -22.5t18 -40.5l160 -338l211 309q20 29 31.5 52.5t11.5 33.5q0 18 -38 49.5 t-38 63.5q0 59 67.5 86.5t215.5 27.5q122 0 177.5 -23.5t55.5 -74.5t-116 -101l-27 -12q-55 -25 -101 -64t-83 -93l-315 -448l-16 -172q-22 -239 -22 -265q0 -29 8.5 -43t39.5 -29q6 -3 19 -9q42 -18 42 -69q0 -63 -66.5 -86.5t-302.5 -23.5q-160 0 -216 20t-56 72 q0 69 80 102q20 8 29 13q51 25 99 349zM975 1658q-48 0 -79.5 34.5t-31.5 86.5q0 65 45 112.5t107 47.5q52 0 82.5 -33t30.5 -90q0 -71 -42.5 -114.5t-111.5 -43.5zM551 1658q-51 0 -83 34t-32 87q0 66 44 114t106 48q51 0 83 -34t32 -89q0 -69 -43 -114.5t-107 -45.5z" />
<glyph unicode="&#x2c6;" horiz-adv-x="1024" d="M604 1409l-32 -47q-123 -180 -212 -180q-46 0 -68 8t-22 24q0 12 42 66l4 5l188 237q14 17 32 23.5t66 6.5q64 0 85 -7.5t40 -45.5l119 -244q1 -2 4 -7q10 -19 10 -34q0 -16 -16.5 -23t-59.5 -7q-83 0 -147 149z" />
<glyph unicode="&#x2dc;" horiz-adv-x="1024" d="M719 1225q-63 0 -173.5 41t-158.5 41q-34 0 -56.5 -17.5t-43.5 -64.5q-9 -18 -18 -23.5t-25 -5.5q-24 0 -42 11.5t-18 27.5q0 26 24 79.5t60 98.5q34 43 71 63.5t81 20.5t157 -41t181 -41q42 0 65.5 15t42.5 58q10 21 17.5 26t21.5 6q35 0 48.5 -9.5t13.5 -31.5 q0 -91 -76.5 -172.5t-171.5 -81.5z" />
<glyph unicode="&#x2000;" horiz-adv-x="999" />
<glyph unicode="&#x2001;" horiz-adv-x="1998" />
<glyph unicode="&#x2002;" horiz-adv-x="999" />
<glyph unicode="&#x2003;" horiz-adv-x="1998" />
<glyph unicode="&#x2004;" horiz-adv-x="666" />
<glyph unicode="&#x2005;" horiz-adv-x="499" />
<glyph unicode="&#x2006;" horiz-adv-x="333" />
<glyph unicode="&#x2007;" horiz-adv-x="333" />
<glyph unicode="&#x2008;" horiz-adv-x="249" />
<glyph unicode="&#x2009;" horiz-adv-x="399" />
<glyph unicode="&#x200a;" horiz-adv-x="111" />
<glyph unicode="&#x2010;" horiz-adv-x="797" d="M326 412q-52 0 -113 -5.5t-72 -5.5q-37 0 -53 15.5t-16 50.5q0 24 10 61t29 82q16 40 32 52t74 12q10 0 76 -1t123 -1q58 0 120 5t66 5q37 0 52.5 -14.5t15.5 -49.5q0 -32 -14.5 -81.5t-34.5 -85.5q-14 -26 -29 -34.5t-45 -8.5q-7 0 -29 1t-37 1q-1 0 -53 1t-102 1z" />
<glyph unicode="&#x2011;" horiz-adv-x="797" d="M326 412q-52 0 -113 -5.5t-72 -5.5q-37 0 -53 15.5t-16 50.5q0 24 10 61t29 82q16 40 32 52t74 12q10 0 76 -1t123 -1q58 0 120 5t66 5q37 0 52.5 -14.5t15.5 -49.5q0 -32 -14.5 -81.5t-34.5 -85.5q-14 -26 -29 -34.5t-45 -8.5q-7 0 -29 1t-37 1q-1 0 -53 1t-102 1z" />
<glyph unicode="&#x2013;" horiz-adv-x="1024" d="M8 451q-16 0 -25.5 11t-9.5 32v12l11 74q2 23 11.5 37t22.5 14h943q17 0 26.5 -12t9.5 -33v-11l-12 -74q-3 -24 -11.5 -37t-23.5 -13h-942z" />
<glyph unicode="&#x2014;" horiz-adv-x="2048" d="M1978 631q23 0 36.5 -12t13.5 -31q0 -2 -1.5 -6t-1.5 -7l-14 -74q-5 -25 -17 -37.5t-30 -12.5h-1939q-23 0 -36.5 11.5t-13.5 31.5q0 2 1 6t1 6l15 74q4 23 16.5 36.5t30.5 14.5h1939z" />
<glyph unicode="&#x2018;" horiz-adv-x="602" d="M145 1016q0 75 37 165.5t111 194.5q66 93 94 117.5t57 24.5q23 0 39.5 -14t16.5 -31t-36 -62q-29 -36 -44 -59q-23 -34 -37 -70.5t-14 -58.5q0 -16 4 -26t12 -13q6 -3 16 -7q111 -46 111 -151q0 -96 -57 -158.5t-144 -62.5q-76 0 -121 57t-45 154z" />
<glyph unicode="&#x2019;" horiz-adv-x="602" d="M537 1305q0 -77 -37 -167.5t-109 -193.5q-63 -90 -93 -115.5t-60 -25.5q-23 0 -39.5 13.5t-16.5 31.5q0 16 37 63q28 35 43 58q23 33 37 69.5t14 59.5q0 15 -4 25t-13 14q-4 2 -14 6q-112 46 -112 151q0 96 57 159t144 63q76 0 121 -57t45 -154z" />
<glyph unicode="&#x201a;" horiz-adv-x="602" d="M426 150q0 -78 -36.5 -169.5t-108.5 -193.5q-66 -93 -94.5 -117t-57.5 -24q-22 0 -39.5 13.5t-17.5 31.5q0 16 33 58t49 65q23 33 37 69t14 58q0 14 -5 25.5t-14 15.5q-6 2 -17 7q-108 44 -108 148q0 97 56.5 159t142.5 62q77 0 121.5 -56t44.5 -152z" />
<glyph unicode="&#x201c;" horiz-adv-x="1057" d="M604 1016q0 77 36.5 167.5t109.5 192.5q65 93 93.5 117.5t57.5 24.5q23 0 40 -14t17 -31t-33 -57t-48 -64q-23 -33 -36.5 -69.5t-13.5 -59.5q0 -16 4.5 -26t11.5 -13l15 -6q113 -47 113 -152q0 -96 -57 -158.5t-144 -62.5q-76 0 -121 57t-45 154zM143 1016 q0 77 36.5 167.5t109.5 192.5q63 90 93 116t60 26q23 0 39.5 -14t16.5 -31t-33 -57t-49 -64q-22 -33 -35.5 -69.5t-13.5 -59.5q0 -16 4 -26t12 -13q6 -3 16 -7q111 -46 111 -151q0 -96 -57 -158.5t-144 -62.5q-76 0 -121 57t-45 154z" />
<glyph unicode="&#x201d;" horiz-adv-x="1057" d="M545 1305q0 -76 -37 -166.5t-111 -194.5q-65 -93 -93.5 -117t-57.5 -24q-22 0 -39 13.5t-17 31.5q0 16 37 62q28 36 43 58q23 34 37.5 70.5t14.5 59.5q0 15 -5 25.5t-12 13.5l-15 6q-112 46 -112 151q0 97 56.5 159.5t142.5 62.5q76 0 122 -57.5t46 -153.5zM1004 1305 q0 -77 -37 -167.5t-109 -193.5q-66 -93 -94 -117t-57 -24q-23 0 -40.5 14t-17.5 31q0 16 33 56.5t49 64.5q22 32 35.5 68.5t13.5 60.5q0 15 -4 25t-13 14q-5 2 -14 6q-112 46 -112 151q0 96 57 159t144 63q76 0 121 -57t45 -154z" />
<glyph unicode="&#x201e;" horiz-adv-x="1057" d="M868 150q0 -78 -36.5 -169.5t-108.5 -193.5q-66 -93 -94.5 -117t-57.5 -24q-22 0 -39.5 13.5t-17.5 31.5q0 16 33.5 58t48.5 65q22 32 35.5 67.5t13.5 59.5q0 15 -4.5 26.5t-12.5 14.5l-17 7q-109 45 -109 148q0 96 57 158.5t143 62.5q77 0 121.5 -56t44.5 -152zM410 150 q0 -76 -37.5 -167.5t-110.5 -195.5q-66 -93 -94 -117t-57 -24q-23 0 -39.5 13.5t-16.5 31.5q0 17 38 65q27 35 42 58q23 33 37 69t14 58q0 16 -4.5 27t-12.5 14l-17 7q-109 45 -109 148q0 96 57 158.5t144 62.5q76 0 121 -56t45 -152z" />
<glyph unicode="&#x2022;" horiz-adv-x="1208" d="M307 762q0 123 87 209t210 86q122 0 208.5 -86.5t86.5 -208.5t-87.5 -209.5t-209.5 -87.5q-123 0 -209 87t-86 210z" />
<glyph unicode="&#x2026;" horiz-adv-x="2048" d="M96 166q0 83 56 138.5t139 55.5q82 0 138 -56t56 -138t-56.5 -138.5t-137.5 -56.5q-82 0 -138.5 56.5t-56.5 138.5zM778 166q0 83 56 138.5t139 55.5q82 0 138 -56t56 -138t-56.5 -138.5t-137.5 -56.5q-82 0 -138.5 56.5t-56.5 138.5zM1462 166q0 83 56 138.5t139 55.5 q82 0 138 -56t56 -138t-56.5 -138.5t-137.5 -56.5q-82 0 -138.5 56.5t-56.5 138.5z" />
<glyph unicode="&#x202f;" horiz-adv-x="399" />
<glyph unicode="&#x2039;" horiz-adv-x="602" d="M274 512q78 -141 116 -230t38 -128q0 -22 -17 -38t-40 -16q-26 0 -56 24t-73 79l-50 63q-169 219 -169 248q0 37 143 172l18 16l45 43q205 195 258 195q20 0 29.5 -11.5t9.5 -35.5q0 -32 -59 -122t-193 -259z" />
<glyph unicode="&#x203a;" horiz-adv-x="602" d="M274 526q-77 141 -115 230t-38 129q0 22 16.5 38.5t38.5 16.5q25 0 54.5 -23.5t74.5 -80.5l67 -87q154 -198 154 -225q0 -36 -143 -171l-18 -17l-33 -31q-216 -205 -271 -205q-20 0 -30.5 11.5t-10.5 33.5q0 31 58 118.5t196 262.5z" />
<glyph unicode="&#x205f;" horiz-adv-x="499" />
<glyph unicode="&#x2122;" horiz-adv-x="1683" d="M745 1460h222l127 -356l123 356h206v-26l-22 -7q-19 -4 -27 -15t-8 -34v-383q0 -22 8 -33t27 -16l22 -6v-33h-260v33l30 6q18 3 27 15.5t9 33.5v355l-148 -445h-43l-166 457v-367q0 -22 9 -34t27 -15l34 -6v-33h-197v33l35 6q18 4 26.5 16t8.5 33v375q0 21 -9 33.5 t-25 15.5l-36 6v35zM229 1460h457l12 -198h-36q-7 79 -38 116t-92 37v-420q0 -21 8 -33.5t24 -15.5l30 -6v-33h-272v33l30 6q15 3 23 15.5t8 33.5v420h-4q-58 0 -89.5 -38t-37.5 -115h-35z" />
</font>
</defs>
</svg>
